<?xml version="1.0" encoding="UTF-8" standalone="no"?>
<svg
   xmlns:dc="http://purl.org/dc/elements/1.1/"
   xmlns:cc="http://creativecommons.org/ns#"
   xmlns:rdf="http://www.w3.org/1999/02/22-rdf-syntax-ns#"
   xmlns:svg="http://www.w3.org/2000/svg"
   xmlns="http://www.w3.org/2000/svg"
   xmlns:sodipodi="http://sodipodi.sourceforge.net/DTD/sodipodi-0.dtd"
   xmlns:inkscape="http://www.inkscape.org/namespaces/inkscape"
   id="svg4562"
   xml:space="preserve"
   enable-background="new 0 0 1024.00 1024.00"
   viewBox="0 0 1024.00 1024.00"
   height="1024"
   width="1024"
   version="1.1"
   sodipodi:docname="uE90F-download.svg"
   inkscape:version="0.92.1 r15371"><sodipodi:namedview
     pagecolor="#ffffff"
     bordercolor="#666666"
     borderopacity="1"
     objecttolerance="10"
     gridtolerance="10"
     guidetolerance="10"
     inkscape:pageopacity="0"
     inkscape:pageshadow="2"
     inkscape:window-width="1920"
     inkscape:window-height="1017"
     id="namedview5099"
     showgrid="false"
     inkscape:zoom="0.4609375"
     inkscape:cx="-46.991105"
     inkscape:cy="745.67442"
     inkscape:window-x="-8"
     inkscape:window-y="-8"
     inkscape:window-maximized="1"
     inkscape:current-layer="svg4562"
     inkscape:measure-start="149.961,530.648"
     inkscape:measure-end="874.039,530.648" /><metadata
     id="metadata4568"><rdf:RDF><cc:Work
         rdf:about=""><dc:format>image/svg+xml</dc:format><dc:type
           rdf:resource="http://purl.org/dc/dcmitype/StillImage" /><dc:title></dc:title></cc:Work></rdf:RDF></metadata><defs
     id="defs4566" /><path
     style="fill:#f900bb;fill-opacity:1;stroke:none;stroke-width:0.96580178"
     d="m 480,1024 c 0,-257.83073 0,-515.66146 0,-773.49219 C 385.07227,345.4362 290.14453,440.36458 195.2168,535.29297 180.13151,520.20833 165.04623,505.1237 149.96094,490.03906 270.64063,369.35937 391.32031,248.67969 512,128 632.67969,248.67969 753.35937,369.35937 874.03906,490.03906 858.95377,505.1237 843.86849,520.20833 828.7832,535.29297 733.85547,440.36458 638.92773,345.4362 544,250.50781 c 0,257.83073 0,515.66146 0,773.49219 -21.33333,0 -42.66667,0 -64,0 z M 149.96094,64 c 0,-21.33333 0,-42.6667 0,-64 241.35937,0 482.71875,0 724.07812,0 0,21.3333 0,42.66667 0,64 -241.35937,0 -482.71875,0 -724.07812,0 z"
     id="rect5644"
     inkscape:connector-curvature="0" /></svg>