<?xml version="1.0" encoding="UTF-8" standalone="no"?>
<svg
   xmlns:osb="http://www.openswatchbook.org/uri/2009/osb"
   xmlns:dc="http://purl.org/dc/elements/1.1/"
   xmlns:cc="http://creativecommons.org/ns#"
   xmlns:rdf="http://www.w3.org/1999/02/22-rdf-syntax-ns#"
   xmlns:svg="http://www.w3.org/2000/svg"
   xmlns="http://www.w3.org/2000/svg"
   xmlns:sodipodi="http://sodipodi.sourceforge.net/DTD/sodipodi-0.dtd"
   xmlns:inkscape="http://www.inkscape.org/namespaces/inkscape"
   id="svg4562"
   xml:space="preserve"
   enable-background="new 0 0 1024.00 1024.00"
   viewBox="0 0 1024.00 1024.00"
   height="1024"
   width="1024"
   version="1.1"
   sodipodi:docname="uE95d-package-outline.svg"
   inkscape:version="0.92.1 r15371"><sodipodi:namedview
     pagecolor="#ffffff"
     bordercolor="#666666"
     borderopacity="1"
     objecttolerance="10"
     gridtolerance="10"
     guidetolerance="10"
     inkscape:pageopacity="0"
     inkscape:pageshadow="2"
     inkscape:window-width="1920"
     inkscape:window-height="1017"
     id="namedview1415"
     showgrid="false"
     inkscape:zoom="0.65186406"
     inkscape:cx="499.12128"
     inkscape:cy="547.78422"
     inkscape:window-x="-8"
     inkscape:window-y="-8"
     inkscape:window-maximized="1"
     inkscape:current-layer="svg4562"
     inkscape:measure-start="375.845,866.745"
     inkscape:measure-end="572.205,794.644"
     showguides="true"
     inkscape:guide-bbox="true"><sodipodi:guide
       position="-625.89737,297.60806"
       orientation="0,1"
       id="guide10840"
       inkscape:locked="false" /></sodipodi:namedview><metadata
     id="metadata4568"><rdf:RDF><cc:Work
         rdf:about=""><dc:format>image/svg+xml</dc:format><dc:type
           rdf:resource="http://purl.org/dc/dcmitype/StillImage" /><dc:title></dc:title></cc:Work></rdf:RDF></metadata><defs
     id="defs4566"><inkscape:perspective
       sodipodi:type="inkscape:persp3d"
       inkscape:vp_x="0 : 512 : 1"
       inkscape:vp_y="0 : 1000 : 0"
       inkscape:vp_z="1024 : 512 : 1"
       inkscape:persp3d-origin="512 : 341.33333 : 1"
       id="perspective15926" /><linearGradient
       id="linearGradient5239"
       osb:paint="solid"><stop
         style="stop-color:#41e7d0;stop-opacity:1;"
         offset="0"
         id="stop5237" /></linearGradient></defs><g
     id="g4653"
     transform="translate(-382.73715)"><path
       style="color:#000000;font-style:normal;font-variant:normal;font-weight:normal;font-stretch:normal;font-size:medium;line-height:normal;font-family:sans-serif;font-variant-ligatures:normal;font-variant-position:normal;font-variant-caps:normal;font-variant-numeric:normal;font-variant-alternates:normal;font-feature-settings:normal;text-indent:0;text-align:start;text-decoration:none;text-decoration-line:none;text-decoration-style:solid;text-decoration-color:#000000;letter-spacing:normal;word-spacing:normal;text-transform:none;writing-mode:lr-tb;direction:ltr;text-orientation:mixed;dominant-baseline:auto;baseline-shift:baseline;text-anchor:start;white-space:normal;shape-padding:0;clip-rule:nonzero;display:inline;overflow:visible;visibility:visible;opacity:1;isolation:auto;mix-blend-mode:normal;color-interpolation:sRGB;color-interpolation-filters:linearRGB;solid-color:#000000;solid-opacity:1;vector-effect:none;fill:#ce00b6;fill-opacity:1;fill-rule:nonzero;stroke:none;stroke-width:64;stroke-linecap:butt;stroke-linejoin:miter;stroke-miterlimit:4;stroke-dasharray:none;stroke-dashoffset:0;stroke-opacity:1;color-rendering:auto;image-rendering:auto;shape-rendering:auto;text-rendering:auto;enable-background:accumulate"
       d="M 620.5477,0.046875 C 565.75886,-1.3805861 514.037,45.588484 515.41165,101.46044 c -1.01524,52.83954 38.85256,94.71428 80.70614,121.2462 87.54953,55.51653 194.46101,75.98705 297.04709,67.43398 13.84513,0.17071 59.55067,3.86375 86.28423,0.55711 93.66289,-7.70938 190.46739,-37.85837 258.95019,-104.81101 36.7877,-36.31144 49.3312,-99.091348 16.9502,-142.244073 C 1228.8182,4.8307435 1177.0152,-7.3359392 1133.0879,3.7862139 1061.2007,20.202672 999.33531,67.27494 952.4333,122.90082 918.75536,163.89267 895.8903,215.03112 894.87192,268.61133 892.71687,215.63679 871.7834,164.7055 837.91202,124.08081 788.48193,65.386419 722.29155,14.930585 645.12083,1.73027 637.00254,0.4306118 628.76241,-0.01868547 620.5477,0.046875 Z m 552.8145,63.410156 c 31.7068,0.504509 50.1017,43.400579 27.5228,66.332209 -36.6327,48.03948 -96.9875,69.74092 -153.2677,84.99387 -26.4121,6.55275 -53.41597,10.71223 -80.57351,12.43759 30.2865,-74.13053 94.87041,-134.583116 171.24031,-158.911741 11.421,-3.251629 23.2538,-4.403759 35.0781,-4.851928 z m -555.89263,0.04102 c 68.79039,3.636651 127.02543,50.126963 169.1633,101.358703 12.53888,17.52975 34.43403,46.35275 32.43973,62.10169 -77.82154,-6.63924 -158.75108,-28.28017 -217.86124,-81.79942 -20.06044,-16.75358 -32.94137,-50.606675 -10.09109,-70.612414 6.93747,-6.859449 16.50151,-11.252416 26.3493,-11.048559 z"
       id="path4557"
       inkscape:connector-curvature="0" /></g><rect
     style="opacity:0.98999999;fill:none;fill-opacity:1;stroke:#00e400;stroke-width:63.99999619;stroke-linecap:butt;stroke-linejoin:miter;stroke-miterlimit:4;stroke-dasharray:none;stroke-dashoffset:0;stroke-opacity:1"
     id="rect5243"
     width="895.89233"
     height="711.80487"
     x="61.752766"
     y="280.19516" /><rect
     style="opacity:0.98999999;fill:#0000e3;fill-opacity:1;stroke:none;stroke-width:64;stroke-linecap:butt;stroke-linejoin:miter;stroke-miterlimit:4;stroke-dasharray:none;stroke-dashoffset:0;stroke-opacity:1"
     id="rect5245"
     width="874.41541"
     height="64"
     x="70.566856"
     y="604.0976" /><rect
     style="opacity:0.98999999;fill:#0000e3;fill-opacity:1;stroke:none;stroke-width:64;stroke-linecap:butt;stroke-linejoin:miter;stroke-miterlimit:4;stroke-dasharray:none;stroke-dashoffset:0;stroke-opacity:1"
     id="rect5245-5"
     width="750.15637"
     height="64"
     x="255.43483"
     y="-541.69891"
     transform="rotate(90)" /></svg>