<?xml version="1.0" encoding="UTF-8" standalone="no"?>
<svg
   xmlns:dc="http://purl.org/dc/elements/1.1/"
   xmlns:cc="http://creativecommons.org/ns#"
   xmlns:rdf="http://www.w3.org/1999/02/22-rdf-syntax-ns#"
   xmlns:svg="http://www.w3.org/2000/svg"
   xmlns="http://www.w3.org/2000/svg"
   version="1.1"
   width="1024"
   height="1024"
   viewBox="0 0 1024.00 1024.00"
   enable-background="new 0 0 1024.00 1024.00"
   xml:space="preserve"
   id="svg4562"><metadata
     id="metadata4568"><rdf:RDF><cc:Work
         rdf:about=""><dc:format>image/svg+xml</dc:format><dc:type
           rdf:resource="http://purl.org/dc/dcmitype/StillImage" /><dc:title></dc:title></cc:Work></rdf:RDF></metadata><defs
     id="defs4566" /><path
     id="rect5192"
     d="M 767.03125 0 C 649.27086 -2.796949e-006 551.33062 94.001362 551.58594 215.92773 L 551.19531 438.20312 L 45.625 438.20312 L 45.625 1021.1191 L 766.81641 1021.1191 L 766.81641 438.20312 L 615.19531 438.20312 L 615.53711 219.8125 C 615.53711 132.98332 683.39152 63.999998 767.03125 64 C 850.67098 64.000002 918.52539 132.98332 918.52539 219.8125 L 919.58398 442.63477 L 983.58398 442.63477 L 984.05469 219.50586 C 983.89097 99.022697 885.97196 2.8249829e-006 767.03125 0 z M 109.625 502.20312 L 702.81641 502.20312 L 702.81641 957.11914 L 109.625 957.11914 L 109.625 502.20312 z M 406.2207 589.86133 A 68.26577 68.26577 0 0 0 337.95508 658.12695 A 68.26577 68.26577 0 0 0 374.2207 718.38672 L 374.2207 874.77344 L 438.2207 874.77344 L 438.2207 718.37109 A 68.26577 68.26577 0 0 0 474.48633 658.12695 A 68.26577 68.26577 0 0 0 406.2207 589.86133 z "
     style="color:#000000;font-style:normal;font-variant:normal;font-weight:normal;font-stretch:normal;font-size:medium;line-height:normal;font-family:sans-serif;font-variant-ligatures:normal;font-variant-position:normal;font-variant-caps:normal;font-variant-numeric:normal;font-variant-alternates:normal;font-feature-settings:normal;text-indent:0;text-align:start;text-decoration:none;text-decoration-line:none;text-decoration-style:solid;text-decoration-color:#000000;letter-spacing:normal;word-spacing:normal;text-transform:none;writing-mode:lr-tb;direction:ltr;text-orientation:mixed;dominant-baseline:auto;baseline-shift:baseline;text-anchor:start;white-space:normal;shape-padding:0;clip-rule:nonzero;display:inline;overflow:visible;visibility:visible;opacity:0.98999999;isolation:auto;mix-blend-mode:normal;color-interpolation:sRGB;color-interpolation-filters:linearRGB;solid-color:#000000;solid-opacity:1;vector-effect:none;fill:#ecb000;fill-opacity:1;fill-rule:nonzero;stroke:none;stroke-width:64;stroke-linecap:butt;stroke-linejoin:miter;stroke-miterlimit:4;stroke-dasharray:none;stroke-dashoffset:0;stroke-opacity:1;color-rendering:auto;image-rendering:auto;shape-rendering:auto;text-rendering:auto;enable-background:accumulate" /><g
     transform="translate(4.2208328)"
     id="g5830" /></svg>