<?xml version="1.0" encoding="UTF-8" standalone="no"?>
<svg
   xmlns:dc="http://purl.org/dc/elements/1.1/"
   xmlns:cc="http://creativecommons.org/ns#"
   xmlns:rdf="http://www.w3.org/1999/02/22-rdf-syntax-ns#"
   xmlns:svg="http://www.w3.org/2000/svg"
   xmlns="http://www.w3.org/2000/svg"
   xmlns:sodipodi="http://sodipodi.sourceforge.net/DTD/sodipodi-0.dtd"
   xmlns:inkscape="http://www.inkscape.org/namespaces/inkscape"
   version="1.1"
   width="1024"
   height="1024"
   viewBox="0 0 1024.00 1024.00"
   enable-background="new 0 0 1024.00 1024.00"
   xml:space="preserve"
   id="svg4562"
   sodipodi:docname="uE9ba-pin.svg"
   inkscape:version="0.92.1 r15371"><sodipodi:namedview
     pagecolor="#ffffff"
     bordercolor="#666666"
     borderopacity="1"
     objecttolerance="10"
     gridtolerance="10"
     guidetolerance="10"
     inkscape:pageopacity="0"
     inkscape:pageshadow="2"
     inkscape:window-width="1920"
     inkscape:window-height="1017"
     id="namedview4526"
     showgrid="false"
     inkscape:zoom="0.65930143"
     inkscape:cx="124.15445"
     inkscape:cy="500.70594"
     inkscape:window-x="-8"
     inkscape:window-y="-8"
     inkscape:window-maximized="1"
     inkscape:current-layer="svg4562"
     inkscape:measure-start="406.491,309.418"
     inkscape:measure-end="359.471,182.011" /><metadata
     id="metadata4568"><rdf:RDF><cc:Work
         rdf:about=""><dc:format>image/svg+xml</dc:format><dc:type
           rdf:resource="http://purl.org/dc/dcmitype/StillImage" /><dc:title></dc:title></cc:Work></rdf:RDF></metadata><defs
     id="defs4566" /><g
     id="g8114"
     transform="matrix(0.94539768,0,0,0.9505983,-58.465019,117.54705)"
     style="stroke-width:1.05485857"><path
       style="color:#000000;font-style:normal;font-variant:normal;font-weight:normal;font-stretch:normal;font-size:medium;line-height:normal;font-family:sans-serif;font-variant-ligatures:normal;font-variant-position:normal;font-variant-caps:normal;font-variant-numeric:normal;font-variant-alternates:normal;font-feature-settings:normal;text-indent:0;text-align:start;text-decoration:none;text-decoration-line:none;text-decoration-style:solid;text-decoration-color:#000000;letter-spacing:normal;word-spacing:normal;text-transform:none;writing-mode:lr-tb;direction:ltr;text-orientation:mixed;dominant-baseline:auto;baseline-shift:baseline;text-anchor:start;white-space:normal;shape-padding:0;clip-rule:nonzero;display:inline;overflow:visible;visibility:visible;opacity:0.98999999;isolation:auto;mix-blend-mode:normal;color-interpolation:sRGB;color-interpolation-filters:linearRGB;solid-color:#000000;solid-opacity:1;vector-effect:none;fill:#000000;fill-opacity:1;fill-rule:nonzero;stroke:none;stroke-width:67.51094055;stroke-linecap:butt;stroke-linejoin:miter;stroke-miterlimit:4;stroke-dasharray:none;stroke-dashoffset:0;stroke-opacity:1;color-rendering:auto;image-rendering:auto;shape-rendering:auto;text-rendering:auto;enable-background:accumulate"
       d="m 741.27223,-76.826819 -23.85116,23.882986 C 677.235,-12.706673 660.78061,45.474634 668.28294,105.60353 l -154.1266,153.92034 c -99.52972,-32.28067 -202.099,-15.53088 -268.54398,50.82531 l -23.91727,23.88298 201.60373,201.33292 -284.49088,282.93448 -31.64591,88.23186 91.61158,-34.2568 281.48495,-280.02925 207.77673,207.49885 23.85323,-23.82134 c 66.43142,-66.34144 83.22952,-168.81316 50.92516,-268.2213 L 916.97953,353.94426 c 60.16373,7.5062 118.37047,-8.88109 158.67577,-48.98026 l 24.0082,-23.88299 -179.23387,-178.995 z m 4.34258,99.743933 127.10838,126.938976 127.00302,126.83213 c -24.05183,11.49029 -53.94885,15.08174 -87.64086,8.15892 l -17.79386,-3.65723 -210.73513,210.4534 9.22231,21.1154 c 0.66811,1.52964 1.31483,3.06237 1.95437,4.59621 26.1833,70.08911 20.80724,136.43861 -9.46816,184.41101 L 502.60366,519.34996 320.01888,337.01412 c 48.11441,-30.23907 114.69466,-35.58449 184.97092,-9.32183 1.71379,0.66358 3.42621,1.34101 5.13591,2.04024 l 20.76052,8.48972 210.17115,-209.88427 -3.67323,-17.83211 c -6.94066,-33.69234 -3.32599,-63.564959 8.23066,-87.588756 z"
       id="path4519"
       inkscape:connector-curvature="0" /></g><g
     id="g8118"
     transform="matrix(1.192255,0,0,1.192255,-140.80285,-56.549276)"
     style="stroke-width:0.83874679" /></svg>