<?xml version="1.0" encoding="UTF-8" standalone="no"?>
<svg
   xmlns:dc="http://purl.org/dc/elements/1.1/"
   xmlns:cc="http://creativecommons.org/ns#"
   xmlns:rdf="http://www.w3.org/1999/02/22-rdf-syntax-ns#"
   xmlns:svg="http://www.w3.org/2000/svg"
   xmlns="http://www.w3.org/2000/svg"
   xmlns:sodipodi="http://sodipodi.sourceforge.net/DTD/sodipodi-0.dtd"
   xmlns:inkscape="http://www.inkscape.org/namespaces/inkscape"
   id="svg4562"
   xml:space="preserve"
   enable-background="new 0 0 1024.00 1024.00"
   viewBox="0 0 1024.00 1024.00"
   height="1024"
   width="1024"
   version="1.1"
   sodipodi:docname="uEaca-logo-youtube.svg"
   inkscape:version="0.92.4 (5da689c313, 2019-01-14)"><sodipodi:namedview
     pagecolor="#ffffff"
     bordercolor="#666666"
     borderopacity="1"
     objecttolerance="10"
     gridtolerance="10"
     guidetolerance="10"
     inkscape:pageopacity="0"
     inkscape:pageshadow="2"
     inkscape:window-width="1920"
     inkscape:window-height="1017"
     id="namedview4519"
     showgrid="false"
     inkscape:measure-start="26.0339,481.627"
     inkscape:measure-end="99.556,481.364"
     inkscape:zoom="0.65186406"
     inkscape:cx="247.03626"
     inkscape:cy="558.63064"
     inkscape:window-x="-8"
     inkscape:window-y="-8"
     inkscape:window-maximized="1"
     inkscape:current-layer="g5360" /><metadata
     id="metadata4568"><rdf:RDF><cc:Work
         rdf:about=""><dc:format>image/svg+xml</dc:format><dc:type
           rdf:resource="http://purl.org/dc/dcmitype/StillImage" /><dc:title /></cc:Work></rdf:RDF></metadata><defs
     id="defs4566"><pattern
       id="EMFhbasepattern"
       patternUnits="userSpaceOnUse"
       width="6"
       height="6"
       x="0"
       y="0" /><pattern
       id="EMFhbasepattern-4"
       patternUnits="userSpaceOnUse"
       width="6"
       height="6"
       x="0"
       y="0" /><pattern
       id="EMFhbasepattern-8"
       patternUnits="userSpaceOnUse"
       width="6"
       height="6"
       x="0"
       y="0" /></defs><g
     id="g5360"
     transform="translate(-795.84018,280.31794)"><path
       style="fill:none;fill-opacity:1;fill-rule:nonzero;stroke:#000000;stroke-width:64;stroke-miterlimit:4;stroke-dasharray:none;stroke-opacity:1"
       d="m 1307.5572,-103.65636 c 0,0 -300.0313,2.8e-4 -375.33516,19.534726 -40.32023,11.246917 -73.52083,44.392072 -84.78683,85.23658 -19.56717,75.177283 -19.56765,230.863244 -19.56765,230.863244 0,0 4.8e-4,156.277 19.56765,230.27102 11.266,40.84394 43.87364,73.39714 84.78683,84.64434 75.89676,20.12617 375.33516,20.12693 375.33516,20.12693 0,0 300.6257,-2.3e-4 375.9281,-19.53468 40.9136,-11.24697 73.5204,-43.20837 84.1935,-84.64435 20.1607,-74.58608 20.1612,-230.27101 20.1612,-230.27101 0,0 0.5922,-156.278211 -20.1612,-231.455494 -10.6731,-40.844508 -43.2799,-73.396949 -84.1935,-84.052098 -75.3024,-20.718268 -375.9281,-20.719208 -375.9281,-20.719208 z"
       id="path4156"
       inkscape:connector-curvature="0"
       sodipodi:nodetypes="ccccccccccccc" /><path
       style="opacity:0.53800001;fill:none;fill-opacity:0.14070351;fill-rule:nonzero;stroke:#000000;stroke-width:64;stroke-linecap:square;stroke-linejoin:miter;stroke-miterlimit:4;stroke-dasharray:none;stroke-dashoffset:0;stroke-opacity:1;paint-order:fill markers stroke"
       d="m 1205.6906,78.305755 266.2826,153.692725 -266.2826,153.0599 z"
       id="rect8549"
       inkscape:connector-curvature="0"
       sodipodi:nodetypes="cccc" /></g></svg>