<?xml version="1.0" encoding="UTF-8" standalone="no"?>
<svg
   xmlns:dc="http://purl.org/dc/elements/1.1/"
   xmlns:cc="http://creativecommons.org/ns#"
   xmlns:rdf="http://www.w3.org/1999/02/22-rdf-syntax-ns#"
   xmlns:svg="http://www.w3.org/2000/svg"
   xmlns="http://www.w3.org/2000/svg"
   version="1.1"
   width="1024"
   height="1024"
   viewBox="0 0 1024.00 1024.00"
   enable-background="new 0 0 1024.00 1024.00"
   xml:space="preserve"
   id="svg4562"><metadata
     id="metadata4568"><rdf:RDF><cc:Work
         rdf:about=""><dc:format>image/svg+xml</dc:format><dc:type
           rdf:resource="http://purl.org/dc/dcmitype/StillImage" /><dc:title></dc:title></cc:Work></rdf:RDF></metadata><defs
     id="defs4566" /><path
     id="path5068"
     d="M 78.765625 3.2734375 L 78.765625 67.273438 L 309.4043 67.273438 C 157.93479 141.31689 50.459902 285.15564 27.539062 454.1582 C 0.03779239 656.93374 99.781247 856.17092 279.65234 958.98438 L 311.41211 903.41992 C 153.55554 813.18987 66.969078 639.63051 90.957031 462.75977 C 112.67792 302.6048 221.34013 168.04579 372.77734 109.3125 L 372.77734 355.14844 L 436.77734 355.14844 L 436.77734 3.2734375 L 78.765625 3.2734375 z M 744.89062 62.914062 L 713.13086 118.47852 C 870.98743 208.70857 957.57194 382.26793 933.58398 559.13867 C 911.8631 719.29363 803.20253 853.8543 651.76562 912.58789 L 651.76562 666.75 L 587.76562 666.75 L 587.76562 954.62695 L 587.76562 1018.627 L 945.77734 1018.627 L 945.77734 954.62695 L 715.13281 954.62695 C 866.60484 880.58406 974.08287 736.74427 997.00391 567.74023 C 1024.5052 364.9647 924.76174 165.72752 744.89062 62.914062 z "
     style="color:#000000;font-style:normal;font-variant:normal;font-weight:normal;font-stretch:normal;font-size:medium;line-height:normal;font-family:sans-serif;font-variant-ligatures:normal;font-variant-position:normal;font-variant-caps:normal;font-variant-numeric:normal;font-variant-alternates:normal;font-feature-settings:normal;text-indent:0;text-align:start;text-decoration:none;text-decoration-line:none;text-decoration-style:solid;text-decoration-color:#000000;letter-spacing:normal;word-spacing:normal;text-transform:none;writing-mode:lr-tb;direction:ltr;text-orientation:mixed;dominant-baseline:auto;baseline-shift:baseline;text-anchor:start;white-space:normal;shape-padding:0;clip-rule:nonzero;display:inline;overflow:visible;visibility:visible;opacity:0.98999999;isolation:auto;mix-blend-mode:normal;color-interpolation:sRGB;color-interpolation-filters:linearRGB;solid-color:#000000;solid-opacity:1;vector-effect:none;fill:#d82828;fill-opacity:1;fill-rule:nonzero;stroke:none;stroke-width:63.99999619;stroke-linecap:butt;stroke-linejoin:miter;stroke-miterlimit:4;stroke-dasharray:none;stroke-dashoffset:0;stroke-opacity:1;color-rendering:auto;image-rendering:auto;shape-rendering:auto;text-rendering:auto;enable-background:accumulate" /></svg>