<?xml version="1.0" encoding="UTF-8" standalone="no"?>
<svg
   xmlns:dc="http://purl.org/dc/elements/1.1/"
   xmlns:cc="http://creativecommons.org/ns#"
   xmlns:rdf="http://www.w3.org/1999/02/22-rdf-syntax-ns#"
   xmlns:svg="http://www.w3.org/2000/svg"
   xmlns="http://www.w3.org/2000/svg"
   version="1.1"
   width="1024"
   height="1024"
   viewBox="0 0 1024.00 1024.00"
   enable-background="new 0 0 1024.00 1024.00"
   xml:space="preserve"
   id="svg4562"><metadata
     id="metadata4568"><rdf:RDF><cc:Work
         rdf:about=""><dc:format>image/svg+xml</dc:format><dc:type
           rdf:resource="http://purl.org/dc/dcmitype/StillImage" /><dc:title></dc:title></cc:Work></rdf:RDF></metadata><defs
     id="defs4566" /><path
     id="rect5644"
     d="m 708.15653,9.2021591 c 0,21.3333329 0,42.6666669 0,63.9999999 127.08203,-1.92965 234.13634,109.227511 248.11633,231.858871 21.10445,128.76301 -56.13961,272.50526 -185.60384,307.52444 -57.8277,14.52318 -117.77945,5.79535 -177.11552,8.17528 -156.90771,0 -313.81543,0 -470.72314,0 C 217.75875,525.83236 312.68713,430.90398 407.61552,335.97559 392.53023,320.89096 377.44495,305.80632 362.35966,290.72169 241.67976,411.40052 121.00207,532.08155 0.32059409,652.7588 121.00028,773.43849 241.67997,894.11817 362.35966,1014.7979 c 15.08529,-15.08468 30.17057,-30.16932 45.25586,-45.25395 -94.92773,-94.92773 -189.85547,-189.85547 -284.7832,-284.7832 203.10739,-0.40917 407.2609,0.81911 609.69369,-0.61516 C 887.24562,673.45679 1010.4419,532.50884 1021.5745,381.45028 1039.8675,223.86688 937.23186,55.682515 779.62149,17.941903 756.27644,12.118624 732.21545,9.1953 708.15653,9.2021591 Z"
     style="fill:#f900bb;fill-opacity:1;stroke:none;stroke-width:0.96580184" /></svg>