<?xml version="1.0" encoding="UTF-8" standalone="no"?>
<svg
   xmlns:osb="http://www.openswatchbook.org/uri/2009/osb"
   xmlns:dc="http://purl.org/dc/elements/1.1/"
   xmlns:cc="http://creativecommons.org/ns#"
   xmlns:rdf="http://www.w3.org/1999/02/22-rdf-syntax-ns#"
   xmlns:svg="http://www.w3.org/2000/svg"
   xmlns="http://www.w3.org/2000/svg"
   version="1.1"
   width="1024"
   height="1024"
   viewBox="0 0 1024.00 1024.00"
   enable-background="new 0 0 1024.00 1024.00"
   xml:space="preserve"
   id="svg4562"><metadata
     id="metadata4568"><rdf:RDF><cc:Work
         rdf:about=""><dc:format>image/svg+xml</dc:format><dc:type
           rdf:resource="http://purl.org/dc/dcmitype/StillImage" /><dc:title></dc:title></cc:Work></rdf:RDF></metadata><defs
     id="defs4566"><linearGradient
       osb:paint="solid"
       id="linearGradient5239"><stop
         id="stop5237"
         offset="0"
         style="stop-color:#41e7d0;stop-opacity:1;" /></linearGradient></defs><path
     cx="512"
     cy="512"
     r="448"
     id="path1995-3"
     style="fill:#d2f628;fill-opacity:1;stroke:#000000;stroke-opacity:1" /><path
     id="rect5644"
     d="M 780.63867 20.617188 L 455.36914 345.88672 C 563.79029 454.31193 672.2157 562.73287 780.63867 671.15625 L 826.49609 625.29688 L 579.08398 377.88672 L 1026.8203 377.88672 L 1026.8203 313.88672 L 579.08594 313.88672 C 661.55599 231.41667 744.02604 148.94661 826.49609 66.476562 C 811.21028 51.190104 795.92448 35.903646 780.63867 20.617188 z M 253.5957 352.59375 L 207.73828 398.45312 L 455.75 646.46484 L -0.86328125 646.46484 L -0.86328125 710.46484 L 454.54688 710.46484 L 207.13477 957.87695 C 222.42123 973.1634 237.70768 988.44988 252.99414 1003.7363 C 361.61786 895.11202 470.24126 786.48735 578.86523 677.86328 L 253.5957 352.59375 z "
     style="fill:#f900bb;fill-opacity:1;stroke:none;stroke-width:0.96580172" /></svg>