<?xml version="1.0" encoding="UTF-8" standalone="no"?>
<svg
   xmlns:dc="http://purl.org/dc/elements/1.1/"
   xmlns:cc="http://creativecommons.org/ns#"
   xmlns:rdf="http://www.w3.org/1999/02/22-rdf-syntax-ns#"
   xmlns:svg="http://www.w3.org/2000/svg"
   xmlns="http://www.w3.org/2000/svg"
   version="1.1"
   width="1024"
   height="1024"
   viewBox="0 0 1024.00 1024.00"
   enable-background="new 0 0 1024.00 1024.00"
   xml:space="preserve"
   id="svg4562"><metadata
     id="metadata4568"><rdf:RDF><cc:Work
         rdf:about=""><dc:format>image/svg+xml</dc:format><dc:type
           rdf:resource="http://purl.org/dc/dcmitype/StillImage" /><dc:title></dc:title></cc:Work></rdf:RDF></metadata><defs
     id="defs4566" /><path
     id="rect5644"
     d="m 315.84338,1014.7979 c 0,-21.33334 0,-42.66668 0,-64.00001 C 188.76135,952.72754 81.707044,841.57038 67.727054,718.93902 46.622604,590.17601 123.86666,446.43376 253.33089,411.41458 c 57.8277,-14.52318 117.77945,-5.79535 177.11552,-8.17528 156.90771,0 313.81543,0 470.72314,0 -94.92839,94.92839 -189.85677,189.85677 -284.78516,284.78516 15.08529,15.08463 30.17057,30.16927 45.25586,45.2539 C 782.32015,612.59953 902.99784,491.9185 1023.6794,371.24125 902.99963,250.56156 782.31994,129.88188 661.64025,9.2021471 646.55496,24.286827 631.46968,39.371467 616.38439,54.456097 711.31212,149.38383 806.23986,244.31157 901.16759,339.2393 698.0602,339.64847 493.90669,338.42019 291.4739,339.85446 136.75429,350.54326 13.558054,491.49121 2.4254544,642.54977 -15.867546,800.13317 86.768054,968.31753 244.37842,1006.0581 c 23.34505,5.8233 47.40604,8.7466 71.46496,8.7398 z"
     style="fill:#f900bb;fill-opacity:1;stroke:none;stroke-width:0.96580184" /></svg>