<?xml version="1.0" encoding="UTF-8" standalone="no"?>
<svg
   xmlns:dc="http://purl.org/dc/elements/1.1/"
   xmlns:cc="http://creativecommons.org/ns#"
   xmlns:rdf="http://www.w3.org/1999/02/22-rdf-syntax-ns#"
   xmlns:svg="http://www.w3.org/2000/svg"
   xmlns="http://www.w3.org/2000/svg"
   xmlns:sodipodi="http://sodipodi.sourceforge.net/DTD/sodipodi-0.dtd"
   xmlns:inkscape="http://www.inkscape.org/namespaces/inkscape"
   id="svg4562"
   xml:space="preserve"
   enable-background="new 0 0 1024.00 1024.00"
   viewBox="0 0 1024.00 1024.00"
   height="1024"
   width="1024"
   version="1.1"
   sodipodi:docname="uE90F-download.svg"
   inkscape:version="0.92.1 r15371"><sodipodi:namedview
     pagecolor="#ffffff"
     bordercolor="#666666"
     borderopacity="1"
     objecttolerance="10"
     gridtolerance="10"
     guidetolerance="10"
     inkscape:pageopacity="0"
     inkscape:pageshadow="2"
     inkscape:window-width="1920"
     inkscape:window-height="1017"
     id="namedview5099"
     showgrid="false"
     inkscape:zoom="0.4609375"
     inkscape:cx="-46.991105"
     inkscape:cy="745.67442"
     inkscape:window-x="-8"
     inkscape:window-y="-8"
     inkscape:window-maximized="1"
     inkscape:current-layer="svg4562"
     inkscape:measure-start="149.961,530.648"
     inkscape:measure-end="874.039,530.648" /><metadata
     id="metadata4568"><rdf:RDF><cc:Work
         rdf:about=""><dc:format>image/svg+xml</dc:format><dc:type
           rdf:resource="http://purl.org/dc/dcmitype/StillImage" /><dc:title></dc:title></cc:Work></rdf:RDF></metadata><defs
     id="defs4566" /><path
     style="fill:#f900bb;fill-opacity:1;stroke:none;stroke-width:0.96580178"
     d="m 480,0 c 0,257.83073 0,515.66146 0,773.49219 C 385.07227,678.5638 290.14453,583.63542 195.2168,488.70703 180.13151,503.79167 165.04623,518.8763 149.96094,533.96094 270.64063,654.64063 391.32031,775.32031 512,896 632.67969,775.32031 753.35937,654.64063 874.03906,533.96094 858.95377,518.8763 843.86849,503.79167 828.7832,488.70703 733.85547,583.63542 638.92773,678.5638 544,773.49219 544,515.66146 544,257.83073 544,0 522.66667,0 501.33333,0 480,0 Z M 149.96094,960 c 0,21.33333 0,42.6667 0,64 241.35937,0 482.71875,0 724.07812,0 0,-21.3333 0,-42.66667 0,-64 -241.35937,0 -482.71875,0 -724.07812,0 z"
     id="rect5644"
     inkscape:connector-curvature="0" /></svg>