<?xml version="1.0" encoding="UTF-8" standalone="no"?>
<svg
   id="svg4562"
   xml:space="preserve"
   enable-background="new 0 0 1024.00 1024.00"
   viewBox="0 0 1024.00 1024.00"
   height="1024"
   width="1024"
   version="1.1"
   xmlns="http://www.w3.org/2000/svg"
   xmlns:svg="http://www.w3.org/2000/svg"
   xmlns:rdf="http://www.w3.org/1999/02/22-rdf-syntax-ns#"
   xmlns:cc="http://creativecommons.org/ns#"
   xmlns:dc="http://purl.org/dc/elements/1.1/"><metadata
     id="metadata4568"><rdf:RDF><cc:Work
         rdf:about=""><dc:format>image/svg+xml</dc:format><dc:type
           rdf:resource="http://purl.org/dc/dcmitype/StillImage" /></cc:Work></rdf:RDF></metadata><defs
     id="defs4566"><linearGradient
       id="linearGradient5239"><stop
         style="stop-color:#41e7d0;stop-opacity:1;"
         offset="0"
         id="stop5237" /></linearGradient></defs><path
     style="fill:#d2f628;fill-opacity:1;stroke:#000000;stroke-opacity:1"
     id="path1995-3"
     r="448"
     cy="512"
     cx="512"
     d="" /><path
     id="rect615-3-3"
     style="fill:#2bc265;stroke-width:64.0001;stroke-miterlimit:1000"
     d="M 891.62035,177.46176 C 829.9336,112.61467 715.81534,117.704 657.84659,184.96135 535.41909,307.86542 411.98346,429.87143 290.18599,553.33658 c -40.51079,46.14768 -21.1984,127.77983 37.32564,148.56217 34.54525,14.17251 78.12955,5.35889 103.3168,-21.64952 -15.0099,-15.0099 -30.01981,-30.01981 -45.02972,-45.02972 -29.64239,33.03052 -76.78264,-21.8248 -40.80762,-46.89299 124.01354,-123.55011 247.12767,-248.05634 371.70565,-371.00641 44.03143,-39.21515 121.15498,-24.82109 146.80708,28.68748 19.85307,36.67634 11.26548,85.17725 -18.53321,113.90702 15.0785,15.07851 30.15702,30.15703 45.23553,45.23553 62.12854,-59.85966 63.91127,-167.3236 1.41421,-227.68838 z M 844.97063,359.91464 C 701.88655,502.986 558.80234,646.0572 415.71818,789.12849 c 15.08424,15.08565 30.16777,30.17201 45.25201,45.25766 143.08408,-143.07135 286.1683,-286.14256 429.25245,-429.21384 -15.08423,-15.08565 -30.16775,-30.172 -45.25198,-45.25764 z M 460.97022,834.38606 c -15.08494,-15.08494 -30.16989,-30.16989 -45.25483,-45.25484 -60.23694,61.94665 -168.06992,46.5493 -221.45068,-16.68297 -53.74768,-55.21588 -62.19361,-153.82248 -4.82349,-209.5912 -15.08495,-15.08494 -30.16989,-30.16989 -45.25483,-45.25483 -73.922373,71.50171 -74.916183,195.84158 -14.81811,276.16343 61.52037,90.06766 192.83646,128.37384 289.35197,72.74583 15.45916,-8.71867 29.70596,-19.57153 42.24997,-32.12542 z M 189.44122,562.85705 C 313.712,438.59914 437.9828,314.34125 562.2536,190.08334 547.16913,174.99792 532.08441,159.91274 517.00018,144.82709 392.72937,269.08501 268.45856,393.34293 144.18776,517.60084 c 15.08449,15.08541 30.16919,30.1706 45.25342,45.25625 z M 430.82841,680.24921 C 532.58057,578.50837 634.33335,476.76817 736.08586,375.02768 721.0014,359.94226 705.91668,344.85708 690.83244,329.77143 589.08029,431.51227 487.3275,533.25247 385.57499,634.99296 c 15.08447,15.08542 30.16919,30.1706 45.25342,45.25625 z" /></svg>
