<?xml version="1.0" encoding="UTF-8" standalone="no"?>
<svg
   id="svg4562"
   xml:space="preserve"
   enable-background="new 0 0 1024.00 1024.00"
   viewBox="0 0 1024.00 1024.00"
   height="1024"
   width="1024"
   version="1.1"
   xmlns="http://www.w3.org/2000/svg"
   xmlns:svg="http://www.w3.org/2000/svg"
   xmlns:rdf="http://www.w3.org/1999/02/22-rdf-syntax-ns#"
   xmlns:cc="http://creativecommons.org/ns#"
   xmlns:dc="http://purl.org/dc/elements/1.1/"><metadata
     id="metadata4568"><rdf:RDF><cc:Work
         rdf:about=""><dc:format>image/svg+xml</dc:format><dc:type
           rdf:resource="http://purl.org/dc/dcmitype/StillImage" /></cc:Work></rdf:RDF></metadata><defs
     id="defs4566"><linearGradient
       id="linearGradient5239"><stop
         style="stop-color:#41e7d0;stop-opacity:1;"
         offset="0"
         id="stop5237" /></linearGradient></defs><path
     style="fill:#d2f628;fill-opacity:1;stroke:#000000;stroke-opacity:1"
     id="path1995-3"
     r="448"
     cy="512"
     cx="512" /><path
     id="rect615"
     style="fill:#2bc265;stroke-width:64.0001;stroke-miterlimit:1000"
     d="M 672.01367 43.431641 L 626.75781 88.6875 L 758.4082 220.33789 L 602.07227 376.67383 L 198.62109 376.67383 L 198.62109 440.67383 L 538.07227 440.67383 L 395.41992 583.32617 L 45.253906 583.32617 L 0 628.58203 L 175.08203 803.66406 L 79.605469 899.14062 L 124.85938 944.39453 L 220.33594 848.91797 L 351.98633 980.56836 L 397.24219 935.3125 L 265.5918 803.66211 L 421.92773 647.32617 L 825.37891 647.32617 L 825.37891 583.32617 L 485.92773 583.32617 L 628.58008 440.67383 L 978.74609 440.67383 L 1024 395.41797 L 848.91797 220.33594 L 944.39453 124.85938 L 899.14062 79.605469 L 803.66406 175.08203 L 672.01367 43.431641 z M 803.66211 265.5918 L 914.74609 376.67383 L 692.58008 376.67383 L 803.66211 265.5918 z M 109.25391 647.32617 L 331.41992 647.32617 L 220.33789 758.4082 L 109.25391 647.32617 z " /></svg>
