<?xml version="1.0" encoding="UTF-8" standalone="no"?>
<svg
   xmlns:dc="http://purl.org/dc/elements/1.1/"
   xmlns:cc="http://creativecommons.org/ns#"
   xmlns:rdf="http://www.w3.org/1999/02/22-rdf-syntax-ns#"
   xmlns:svg="http://www.w3.org/2000/svg"
   xmlns="http://www.w3.org/2000/svg"
   version="1.1"
   width="1024"
   height="1024"
   viewBox="0 0 1024.00 1024.00"
   enable-background="new 0 0 1024.00 1024.00"
   xml:space="preserve"
   id="svg4562"><metadata
     id="metadata4568"><rdf:RDF><cc:Work
         rdf:about=""><dc:format>image/svg+xml</dc:format><dc:type
           rdf:resource="http://purl.org/dc/dcmitype/StillImage" /><dc:title></dc:title></cc:Work></rdf:RDF></metadata><defs
     id="defs4566" /><path
     id="rect5264"
     d="m 0,0 c 0,341.33333 0,682.66667 0,1024 341.33333,0 682.66667,0 1024,0 0,-341.33333 0,-682.66667 0,-1024 C 682.66667,0 341.33333,0 0,0 Z m 64,64 c 298.66667,0 597.33333,0 896,0 0,298.66667 0,597.33333 0,896 -298.66667,0 -597.33333,0 -896,0 0,-33.33333 0,-66.66667 0,-100 263.99089,0 527.98177,0 791.97266,0 0,-85.33333 0,-170.66667 0,-256 -263.99089,0 -527.98177,0 -791.97266,0 0,-62.66667 0,-125.33333 0,-188 173.54427,0 347.08854,0 520.63281,0 0,-85.33333 0,-170.66667 0,-256 C 411.08854,160 237.54427,160 64,160 64,128 64,96 64,64 Z m 223.22852,160 c 77.80143,0 155.60286,0 233.40429,0 0,42.66667 0,85.33333 0,128 -77.80143,0 -155.60286,0 -233.40429,0 0,-42.66667 0,-85.33333 0,-128 z M 65.015625,668 c 99.986325,0 199.972655,0 299.958985,0 0,42.66667 0,85.33333 0,128 -99.98633,0 -199.97266,0 -299.958985,0 0,-42.66667 0,-85.33333 0,-128 z"
     style="color:#000000;font-style:normal;font-variant:normal;font-weight:normal;font-stretch:normal;font-size:medium;line-height:normal;font-family:sans-serif;font-variant-ligatures:normal;font-variant-position:normal;font-variant-caps:normal;font-variant-numeric:normal;font-variant-alternates:normal;font-feature-settings:normal;text-indent:0;text-align:start;text-decoration:none;text-decoration-line:none;text-decoration-style:solid;text-decoration-color:#000000;letter-spacing:normal;word-spacing:normal;text-transform:none;writing-mode:lr-tb;direction:ltr;text-orientation:mixed;dominant-baseline:auto;baseline-shift:baseline;text-anchor:start;white-space:normal;shape-padding:0;clip-rule:nonzero;display:inline;overflow:visible;visibility:visible;opacity:0.98999999;isolation:auto;mix-blend-mode:normal;color-interpolation:sRGB;color-interpolation-filters:linearRGB;solid-color:#000000;solid-opacity:1;vector-effect:none;fill:#d82828;fill-opacity:1;fill-rule:nonzero;stroke:none;stroke-width:64;stroke-linecap:butt;stroke-linejoin:miter;stroke-miterlimit:4;stroke-dasharray:none;stroke-dashoffset:0;stroke-opacity:1;color-rendering:auto;image-rendering:auto;shape-rendering:auto;text-rendering:auto;enable-background:accumulate" /></svg>