<?xml version="1.0" encoding="UTF-8" standalone="no"?>
<svg
   xmlns:osb="http://www.openswatchbook.org/uri/2009/osb"
   xmlns:dc="http://purl.org/dc/elements/1.1/"
   xmlns:cc="http://creativecommons.org/ns#"
   xmlns:rdf="http://www.w3.org/1999/02/22-rdf-syntax-ns#"
   xmlns:svg="http://www.w3.org/2000/svg"
   xmlns="http://www.w3.org/2000/svg"
   version="1.1"
   width="1024"
   height="1024"
   viewBox="0 0 1024.00 1024.00"
   enable-background="new 0 0 1024.00 1024.00"
   xml:space="preserve"
   id="svg4562"><metadata
   id="metadata4568"><rdf:RDF><cc:Work
       rdf:about=""><dc:format>image/svg+xml</dc:format><dc:type
         rdf:resource="http://purl.org/dc/dcmitype/StillImage" /><dc:title></dc:title></cc:Work></rdf:RDF></metadata><defs
   id="defs4566"><linearGradient
     osb:paint="solid"
     id="linearGradient5239"><stop
       id="stop5237"
       offset="0"
       style="stop-color:#41e7d0;stop-opacity:1;" /></linearGradient></defs>
	
	
<path
   id="path1995"
   d="M 512 0 A 512 512 0 0 0 0 512 A 512 512 0 0 0 512 1024 A 512 512 0 0 0 893.22266 852.84766 A 512 512 0 0 0 900.52148 844.53906 A 512 512 0 0 0 927.23828 810.44336 A 512 512 0 0 0 931.44727 804.55664 A 512 512 0 0 0 955.33789 766.83789 A 512 512 0 0 0 958.30859 761.6582 A 512 512 0 0 0 978.81055 720.75391 A 512 512 0 0 0 980.84766 716.19922 A 512 512 0 0 0 997.46875 672.65234 A 512 512 0 0 0 998.80078 668.64453 A 512 512 0 0 0 1011.1777 622.95898 A 512 512 0 0 0 1011.9531 619.50391 A 512 512 0 0 0 1019.793 572.31641 A 512 512 0 0 0 1020.1758 569.14844 A 512 512 0 0 0 1024 512 A 512 512 0 0 0 512 0 z M 512 64 A 448 448 0 0 1 828.29883 195.14648 L 511.44531 512 L 828.31836 828.875 A 448 448 0 0 1 512 960 A 448 448 0 0 1 64 512 A 448 448 0 0 1 512 64 z "
   style="fill:#d21b28;fill-opacity:1;stroke:#000000;stroke-opacity:1" /></svg>