<?xml version="1.0" encoding="UTF-8" standalone="no"?>
<svg
   id="svg4562"
   xml:space="preserve"
   enable-background="new 0 0 1024.00 1024.00"
   viewBox="0 0 1024.00 1024.00"
   height="1024"
   width="1024"
   version="1.1"
   xmlns="http://www.w3.org/2000/svg"
   xmlns:svg="http://www.w3.org/2000/svg"
   xmlns:rdf="http://www.w3.org/1999/02/22-rdf-syntax-ns#"
   xmlns:cc="http://creativecommons.org/ns#"
   xmlns:dc="http://purl.org/dc/elements/1.1/"><metadata
     id="metadata4568"><rdf:RDF><cc:Work
         rdf:about=""><dc:format>image/svg+xml</dc:format><dc:type
           rdf:resource="http://purl.org/dc/dcmitype/StillImage" /></cc:Work></rdf:RDF></metadata><defs
     id="defs4566" /><path
     id="rect9400"
     style="color:#000000;opacity:0.99;fill:#e900db;stroke-linecap:round;-inkscape-stroke:none"
     d="M 170.28125 11.992188 L 170.28125 94.351562 L 12 94.351562 L 12 1011.5117 L 1012 1011.5117 L 1012 94.351562 L 851.4043 94.351562 L 851.4043 11.992188 L 787.4043 11.992188 L 787.4043 94.351562 L 234.28125 94.351562 L 234.28125 11.992188 L 170.28125 11.992188 z M 76 158.35156 L 170.28125 158.35156 L 170.28125 234 L 234.28125 234 L 234.28125 158.35156 L 787.4043 158.35156 L 787.4043 234 L 851.4043 234 L 851.4043 158.35156 L 948 158.35156 L 948 321.40039 L 76 321.40039 L 76 158.35156 z M 76 390.43164 L 948 390.43164 L 948 947.51172 L 76 947.51172 L 76 390.43164 z M 781.31836 448.70117 C 670.42263 559.59689 559.52658 670.49295 448.63086 781.38867 C 377.59902 710.35684 306.567 639.32481 235.53516 568.29297 C 220.45045 583.37814 205.36595 598.46365 190.28125 613.54883 C 276.39769 699.66527 362.51442 785.78198 448.63086 871.89844 C 574.61176 745.91799 700.59331 619.93747 826.57422 493.95703 L 781.31836 448.70117 z " /></svg>
