<?xml version="1.0" encoding="UTF-8" standalone="no"?>
<svg
   xmlns:dc="http://purl.org/dc/elements/1.1/"
   xmlns:cc="http://creativecommons.org/ns#"
   xmlns:rdf="http://www.w3.org/1999/02/22-rdf-syntax-ns#"
   xmlns:svg="http://www.w3.org/2000/svg"
   xmlns="http://www.w3.org/2000/svg"
   xmlns:sodipodi="http://sodipodi.sourceforge.net/DTD/sodipodi-0.dtd"
   xmlns:inkscape="http://www.inkscape.org/namespaces/inkscape"
   id="svg4562"
   xml:space="preserve"
   enable-background="new 0 0 1024.00 1024.00"
   viewBox="0 0 1024.00 1024.00"
   height="1024"
   width="1024"
   version="1.1"
   sodipodi:docname="uE941-cloud.svg"
   inkscape:version="0.92.1 r15371"><sodipodi:namedview
     pagecolor="#ffffff"
     bordercolor="#666666"
     borderopacity="1"
     objecttolerance="10"
     gridtolerance="10"
     guidetolerance="10"
     inkscape:pageopacity="0"
     inkscape:pageshadow="2"
     inkscape:window-width="1920"
     inkscape:window-height="1017"
     id="namedview4519"
     showgrid="false"
     inkscape:measure-start="26.0339,481.627"
     inkscape:measure-end="99.556,481.364"
     inkscape:zoom="0.65186406"
     inkscape:cx="-45.202584"
     inkscape:cy="558.63064"
     inkscape:window-x="-8"
     inkscape:window-y="-8"
     inkscape:window-maximized="1"
     inkscape:current-layer="svg4562" /><metadata
     id="metadata4568"><rdf:RDF><cc:Work
         rdf:about=""><dc:format>image/svg+xml</dc:format><dc:type
           rdf:resource="http://purl.org/dc/dcmitype/StillImage" /><dc:title></dc:title></cc:Work></rdf:RDF></metadata><defs
     id="defs4566" /><path
     style="color:#000000;font-style:normal;font-variant:normal;font-weight:normal;font-stretch:normal;font-size:medium;line-height:normal;font-family:sans-serif;font-variant-ligatures:normal;font-variant-position:normal;font-variant-caps:normal;font-variant-numeric:normal;font-variant-alternates:normal;font-feature-settings:normal;text-indent:0;text-align:start;text-decoration:none;text-decoration-line:none;text-decoration-style:solid;text-decoration-color:#000000;letter-spacing:normal;word-spacing:normal;text-transform:none;writing-mode:lr-tb;direction:ltr;text-orientation:mixed;dominant-baseline:auto;baseline-shift:baseline;text-anchor:start;white-space:normal;shape-padding:0;clip-rule:nonzero;display:inline;overflow:visible;visibility:visible;opacity:0.98999999;isolation:auto;mix-blend-mode:normal;color-interpolation:sRGB;color-interpolation-filters:linearRGB;solid-color:#000000;solid-opacity:1;vector-effect:none;fill:#000000;fill-opacity:1;fill-rule:nonzero;stroke:none;stroke-width:64;stroke-linecap:butt;stroke-linejoin:miter;stroke-miterlimit:4;stroke-dasharray:none;stroke-dashoffset:0;stroke-opacity:1;color-rendering:auto;image-rendering:auto;shape-rendering:auto;text-rendering:auto;enable-background:accumulate"
     d="m 564.55078,190.38672 c -5.0599,-0.16109 -10.15652,-0.15675 -15.2832,0.0176 l 1.64453,-0.0137 C 446.59582,188.57728 350.28286,256.62888 307.99219,353.57227 181.39311,305.71222 27.425178,397.11909 5.7753906,538.54297 -27.876639,686.92768 93.071117,842.87153 241.04297,833.05273 c 209.06139,1.29314 418.18487,0.27435 626.97656,0.59961 h 0.99414 l 0.99219,-0.0586 c 55.21095,-3.34661 99.89774,-38.2064 126.03711,-82.57422 26.13933,-44.36782 35.90693,-99.77974 20.62303,-151.97851 l -0.1172,-0.39649 -0.125,-0.39453 C 991.19058,519.67198 917.97627,458.37052 835.02344,472.92969 l 0.51758,-0.0879 -17.06446,2.70703 C 821.43242,330.34811 707.05893,194.92377 564.55078,190.38672 Z m -13.10742,63.98047 c 117.15965,-3.98387 223.15631,128.60979 199.64844,253.35937 l -8.41407,44.64844 103.15039,-16.36328 0.25977,-0.0469 c 45.26153,-7.94391 91.78687,27.71651 109.22852,81.37696 9.47784,32.74893 3.14008,71.39381 -14.41407,101.18945 -17.52428,29.74495 -44.06018,49.1143 -74.33398,51.12109 -208.68658,-0.31848 -417.33159,0.69129 -625.54102,-0.59961 l -1.34179,-0.008 -1.33594,0.10352 C 138.85358,776.88224 43.739766,657.8182 68.347656,551.86719 l 0.300782,-1.29492 0.191406,-1.31446 C 84.893152,439.47703 220.31182,369.75356 308.98828,425.04883 l 36.30274,22.63867 11.46093,-41.2207 C 381.06306,319.02058 465.96156,252.92347 549.80078,254.38086 l 0.82031,0.0156 z"
     id="rect4615"
     inkscape:connector-curvature="0" /></svg>