<?xml version="1.0" encoding="UTF-8" standalone="no"?>
<svg
   id="svg4562"
   xml:space="preserve"
   enable-background="new 0 0 1024.00 1024.00"
   viewBox="0 0 1024.00 1024.00"
   height="1024"
   width="1024"
   version="1.1"
   xmlns="http://www.w3.org/2000/svg"
   xmlns:svg="http://www.w3.org/2000/svg"
   xmlns:rdf="http://www.w3.org/1999/02/22-rdf-syntax-ns#"
   xmlns:cc="http://creativecommons.org/ns#"
   xmlns:dc="http://purl.org/dc/elements/1.1/"><metadata
     id="metadata4568"><rdf:RDF><cc:Work
         rdf:about=""><dc:format>image/svg+xml</dc:format><dc:type
           rdf:resource="http://purl.org/dc/dcmitype/StillImage" /></cc:Work></rdf:RDF></metadata><defs
     id="defs4566"><linearGradient
       id="linearGradient5239"><stop
         style="stop-color:#41e7d0;stop-opacity:1;"
         offset="0"
         id="stop5237" /></linearGradient></defs><path
     style="fill:#d2f628;fill-opacity:1;stroke:#000000;stroke-opacity:1"
     id="path1995-3"
     r="448"
     cy="512"
     cx="512" /><path
     id="rect10676-2"
     style="color:#000000;opacity:0.99;fill:#f60000;stroke-linecap:square;-inkscape-stroke:none"
     d="M 0 76 L 0 320 L 64 320 L 64 140 L 428.87695 140 C 476.2102 186.66657 523.54372 233.33343 570.87695 280 L 964 280 L 964 890 L 64 890 L 64 704 L 0 704 L 0 954 L 1028 954 L 1028 216 L 597.12305 216 C 549.7898 169.33343 502.45628 122.66657 455.12305 76 L 0 76 z M 275.09961 308.63477 C 260.01498 323.71938 244.93033 338.80406 229.8457 353.88867 L 357.07812 481.12109 L 0 481.12109 L 0 545.12109 L 354.83594 545.12109 L 229.8457 670.11133 C 244.93033 685.19594 260.01498 700.28062 275.09961 715.36523 C 342.88795 647.57689 410.67651 579.78835 478.46484 512 C 410.67651 444.21165 342.88795 376.42311 275.09961 308.63477 z " /><g
     id="g5111"
     transform="translate(-414.07465,108.10571)"
     style="fill:#e3cf34;fill-opacity:1"><g
       transform="translate(406.49085,182.01083)"
       id="g5105"
       style="fill:#e3cf34;fill-opacity:1" /></g></svg>
