<?xml version="1.0" encoding="UTF-8" standalone="no"?>
<svg
   xmlns:osb="http://www.openswatchbook.org/uri/2009/osb"
   xmlns:dc="http://purl.org/dc/elements/1.1/"
   xmlns:cc="http://creativecommons.org/ns#"
   xmlns:rdf="http://www.w3.org/1999/02/22-rdf-syntax-ns#"
   xmlns:svg="http://www.w3.org/2000/svg"
   xmlns="http://www.w3.org/2000/svg"
   version="1.1"
   width="1024"
   height="1024"
   viewBox="0 0 1024.00 1024.00"
   enable-background="new 0 0 1024.00 1024.00"
   xml:space="preserve"
   id="svg4562"><metadata
     id="metadata4568"><rdf:RDF><cc:Work
         rdf:about=""><dc:format>image/svg+xml</dc:format><dc:type
           rdf:resource="http://purl.org/dc/dcmitype/StillImage" /><dc:title></dc:title></cc:Work></rdf:RDF></metadata><defs
     id="defs4566"><linearGradient
       osb:paint="solid"
       id="linearGradient5239"><stop
         id="stop5237"
         offset="0"
         style="stop-color:#41e7d0;stop-opacity:1;" /></linearGradient></defs><g
     transform="translate(-382.73715)"
     id="g4653"><path
       id="path4557"
       transform="translate(382.73715)"
       d="M 784.25586 -0.13671875 C 772.8075 -0.31972847 761.33339 1.0065711 750.35156 3.7871094 C 678.46436 20.203567 616.59732 67.274511 569.69531 122.90039 C 540.32357 158.65085 519.18338 202.12054 513.58008 248.19531 L 510.36523 248.19531 C 504.34748 202.6464 484.67014 159.45505 455.17578 124.08008 C 405.74569 65.385687 339.55353 14.930784 262.38281 1.7304688 C 254.26452 0.43081055 246.02526 -0.01868547 237.81055 0.046875 C 183.02171 -1.3805861 131.29918 45.588981 132.67383 101.46094 C 131.65859 154.30048 171.52728 196.17511 213.38086 222.70703 C 228.38743 232.22293 243.96329 240.7084 259.98828 248.19531 L 29.751953 248.19531 L 29.751953 1024 L 989.64453 1024 L 989.64453 248.19531 L 764.65625 248.19531 C 798.04645 232.43842 829.00063 211.95249 855.66211 185.88672 C 892.44981 149.57528 904.99428 86.795303 872.61328 43.642578 C 852.71481 14.53365 818.60094 0.4123104 784.25586 -0.13671875 z M 790.625 63.457031 C 822.3318 63.96154 840.72734 106.85743 818.14844 129.78906 C 781.51574 177.82854 721.16106 199.53025 664.88086 214.7832 C 638.46876 221.33595 611.46418 225.49534 584.30664 227.2207 C 614.59314 153.09017 679.17698 92.637219 755.54688 68.308594 C 766.96788 65.056965 778.8007 63.9052 790.625 63.457031 z M 234.73242 63.498047 C 303.52281 67.134698 361.75861 113.62568 403.89648 164.85742 C 416.43536 182.38717 438.33024 211.21004 436.33594 226.95898 C 358.5144 220.31974 277.58477 198.67745 218.47461 145.1582 C 198.41417 128.40462 185.53253 94.552614 208.38281 74.546875 C 215.32028 67.687426 224.88463 63.29419 234.73242 63.498047 z M 93.751953 312.19531 L 477.69922 312.19531 L 477.69922 604.09766 L 93.751953 604.09766 L 93.751953 312.19531 z M 541.69922 312.19531 L 925.64453 312.19531 L 925.64453 604.09766 L 541.69922 604.09766 L 541.69922 312.19531 z M 93.751953 668.09766 L 477.69922 668.09766 L 477.69922 960 L 93.751953 960 L 93.751953 668.09766 z M 541.69922 668.09766 L 925.64453 668.09766 L 925.64453 960 L 541.69922 960 L 541.69922 668.09766 z "
       style="color:#000000;font-style:normal;font-variant:normal;font-weight:normal;font-stretch:normal;font-size:medium;line-height:normal;font-family:sans-serif;font-variant-ligatures:normal;font-variant-position:normal;font-variant-caps:normal;font-variant-numeric:normal;font-variant-alternates:normal;font-feature-settings:normal;text-indent:0;text-align:start;text-decoration:none;text-decoration-line:none;text-decoration-style:solid;text-decoration-color:#000000;letter-spacing:normal;word-spacing:normal;text-transform:none;writing-mode:lr-tb;direction:ltr;text-orientation:mixed;dominant-baseline:auto;baseline-shift:baseline;text-anchor:start;white-space:normal;shape-padding:0;clip-rule:nonzero;display:inline;overflow:visible;visibility:visible;opacity:1;isolation:auto;mix-blend-mode:normal;color-interpolation:sRGB;color-interpolation-filters:linearRGB;solid-color:#000000;solid-opacity:1;vector-effect:none;fill:#ce00b6;fill-opacity:1;fill-rule:nonzero;stroke:none;stroke-width:64;stroke-linecap:butt;stroke-linejoin:miter;stroke-miterlimit:4;stroke-dasharray:none;stroke-dashoffset:0;stroke-opacity:1;color-rendering:auto;image-rendering:auto;shape-rendering:auto;text-rendering:auto;enable-background:accumulate" /></g></svg>