<?xml version="1.0" encoding="UTF-8" standalone="no"?>
<svg
   xmlns:osb="http://www.openswatchbook.org/uri/2009/osb"
   xmlns:dc="http://purl.org/dc/elements/1.1/"
   xmlns:cc="http://creativecommons.org/ns#"
   xmlns:rdf="http://www.w3.org/1999/02/22-rdf-syntax-ns#"
   xmlns:svg="http://www.w3.org/2000/svg"
   xmlns="http://www.w3.org/2000/svg"
   version="1.1"
   width="1024"
   height="1024"
   viewBox="0 0 1024.00 1024.00"
   enable-background="new 0 0 1024.00 1024.00"
   xml:space="preserve"
   id="svg4562"><metadata
     id="metadata4568"><rdf:RDF><cc:Work
         rdf:about=""><dc:format>image/svg+xml</dc:format><dc:type
           rdf:resource="http://purl.org/dc/dcmitype/StillImage" /><dc:title></dc:title></cc:Work></rdf:RDF></metadata><defs
     id="defs4566"><linearGradient
       osb:paint="solid"
       id="linearGradient5239"><stop
         id="stop5237"
         offset="0"
         style="stop-color:#41e7d0;stop-opacity:1;" /></linearGradient></defs><path
     cx="512"
     cy="512"
     r="448"
     id="path1995-3"
     style="fill:#d2f628;fill-opacity:1;stroke:#000000;stroke-opacity:1" /><path
     id="rect10899"
     d="m 288,0 c -40.57151,-1.0617682 -69.89283,39.743008 -64,78.098607 0,315.300463 0,630.600933 0,945.901393 192,0 384,0 576,0 C 799.7768,701.84605 800.44679,379.66898 799.6647,57.529497 796.63075,18.236947 756.23434,-5.4190121 719.55163,0 575.70108,0 431.85054,0 288,0 Z m 0,64 c 149.33333,0 298.66667,0 448,0 0,298.66667 0,597.33333 0,896 -149.33333,0 -298.66667,0 -448,0 0,-298.66667 0,-597.33333 0,-896 z m 82.09961,86.01562 c 0,21.33333 0,42.66667 0,64 94.60026,0 189.20052,0 283.80078,0 0,-21.33333 0,-42.66667 0,-64 -94.60026,0 -189.20052,0 -283.80078,0 z m 0,512.37696 c 0,21.33333 0,42.66667 0,64 94.60026,0 189.20052,0 283.80078,0 0,-21.33333 0,-42.66667 0,-64 -94.60026,0 -189.20052,0 -283.80078,0 z m 0,145.98633 c 0,21.33333 0,42.66667 0,64 94.60026,0 189.20052,0 283.80078,0 0,-21.33333 0,-42.66667 0,-64 -94.60026,0 -189.20052,0 -283.80078,0 z"
     style="color:#000000;font-style:normal;font-variant:normal;font-weight:normal;font-stretch:normal;font-size:medium;line-height:normal;font-family:sans-serif;font-variant-ligatures:normal;font-variant-position:normal;font-variant-caps:normal;font-variant-numeric:normal;font-variant-alternates:normal;font-feature-settings:normal;text-indent:0;text-align:start;text-decoration:none;text-decoration-line:none;text-decoration-style:solid;text-decoration-color:#000000;letter-spacing:normal;word-spacing:normal;text-transform:none;writing-mode:lr-tb;direction:ltr;text-orientation:mixed;dominant-baseline:auto;baseline-shift:baseline;text-anchor:start;white-space:normal;shape-padding:0;clip-rule:nonzero;display:inline;overflow:visible;visibility:visible;opacity:0.98999999;isolation:auto;mix-blend-mode:normal;color-interpolation:sRGB;color-interpolation-filters:linearRGB;solid-color:#000000;solid-opacity:1;vector-effect:none;fill:#00f000;fill-opacity:1;fill-rule:nonzero;stroke:none;stroke-width:64;stroke-linecap:square;stroke-linejoin:miter;stroke-miterlimit:4;stroke-dasharray:none;stroke-dashoffset:0;stroke-opacity:1;color-rendering:auto;image-rendering:auto;shape-rendering:auto;text-rendering:auto;enable-background:accumulate" /></svg>