<?xml version="1.0" encoding="UTF-8" standalone="no"?>
<svg
   xmlns:dc="http://purl.org/dc/elements/1.1/"
   xmlns:cc="http://creativecommons.org/ns#"
   xmlns:rdf="http://www.w3.org/1999/02/22-rdf-syntax-ns#"
   xmlns:svg="http://www.w3.org/2000/svg"
   xmlns="http://www.w3.org/2000/svg"
   version="1.1"
   width="1024"
   height="1024"
   viewBox="0 0 1024.00 1024.00"
   enable-background="new 0 0 1024.00 1024.00"
   xml:space="preserve"
   id="svg4"><metadata
     id="metadata10"><rdf:RDF><cc:Work
         rdf:about=""><dc:format>image/svg+xml</dc:format><dc:type
           rdf:resource="http://purl.org/dc/dcmitype/StillImage" /><dc:title></dc:title></cc:Work></rdf:RDF></metadata><defs
     id="defs8" /><g
     transform="translate(-138.00001,-140.06168)"
     id="g4501"><path
       id="path1382"
       transform="translate(138.00001,140.06168)"
       d="M 0 96 L 0 928 L 1024 928 L 1024 96 L 0 96 z M 64 160 L 960 160 L 960 864 L 64 864 L 64 160 z M 374 253.2168 C 277.17691 253.2168 198 332.39371 198 429.2168 C 198 484.72597 224.03127 534.4273 264.48438 566.74219 C 184.03785 604.01422 128.00001 681.00905 128 770.78125 L 192.60352 770.78125 C 192.60352 680.67228 272.31768 606.18359 374 606.18359 C 475.68232 606.1836 555.39648 680.67228 555.39648 770.78125 L 620 770.78125 C 620 681.00905 563.96215 604.01422 483.51562 566.74219 C 523.96873 534.4273 550 484.72597 550 429.2168 C 550 332.39371 470.82309 253.2168 374 253.2168 z M 640 312 L 640 376 L 896 376 L 896 312 L 640 312 z M 374 317.2168 C 436.23492 317.2168 486 366.98188 486 429.2168 C 486 491.45172 436.23492 541.2168 374 541.2168 C 311.76508 541.2168 262 491.45172 262 429.2168 C 262 366.98188 311.76508 317.2168 374 317.2168 z M 640 476 L 640 540 L 896 540 L 896 476 L 640 476 z M 640 640 L 640 704 L 896 704 L 896 640 L 640 640 z "
       style="color:#000000;font-style:normal;font-variant:normal;font-weight:normal;font-stretch:normal;font-size:medium;line-height:normal;font-family:sans-serif;font-variant-ligatures:normal;font-variant-position:normal;font-variant-caps:normal;font-variant-numeric:normal;font-variant-alternates:normal;font-feature-settings:normal;text-indent:0;text-align:start;text-decoration:none;text-decoration-line:none;text-decoration-style:solid;text-decoration-color:#000000;letter-spacing:normal;word-spacing:normal;text-transform:none;writing-mode:lr-tb;direction:ltr;text-orientation:mixed;dominant-baseline:auto;baseline-shift:baseline;text-anchor:start;white-space:normal;shape-padding:0;clip-rule:nonzero;display:inline;overflow:visible;visibility:visible;opacity:1;isolation:auto;mix-blend-mode:normal;color-interpolation:sRGB;color-interpolation-filters:linearRGB;solid-color:#000000;solid-opacity:1;vector-effect:none;fill:#de0000;fill-opacity:1;fill-rule:nonzero;stroke:none;stroke-width:64;stroke-linecap:butt;stroke-linejoin:miter;stroke-miterlimit:4;stroke-dasharray:none;stroke-dashoffset:0;stroke-opacity:1;color-rendering:auto;image-rendering:auto;shape-rendering:auto;text-rendering:auto;enable-background:accumulate" /><g
       id="g2710"
       transform="matrix(0.77567103,0,0,0.76124015,-65.123581,408.82869)"
       style="stroke:#de0000;stroke-width:83.28759766;stroke-miterlimit:4;stroke-dasharray:none;stroke-opacity:1" /></g></svg>