<?xml version="1.0" encoding="UTF-8" standalone="no"?>
<svg
   xmlns:osb="http://www.openswatchbook.org/uri/2009/osb"
   xmlns:dc="http://purl.org/dc/elements/1.1/"
   xmlns:cc="http://creativecommons.org/ns#"
   xmlns:rdf="http://www.w3.org/1999/02/22-rdf-syntax-ns#"
   xmlns:svg="http://www.w3.org/2000/svg"
   xmlns="http://www.w3.org/2000/svg"
   version="1.1"
   width="1024"
   height="1024"
   viewBox="0 0 1024.00 1024.00"
   enable-background="new 0 0 1024.00 1024.00"
   xml:space="preserve"
   id="svg4562"><metadata
   id="metadata4568"><rdf:RDF><cc:Work
       rdf:about=""><dc:format>image/svg+xml</dc:format><dc:type
         rdf:resource="http://purl.org/dc/dcmitype/StillImage" /><dc:title></dc:title></cc:Work></rdf:RDF></metadata><defs
   id="defs4566"><linearGradient
     osb:paint="solid"
     id="linearGradient5239"><stop
       id="stop5237"
       offset="0"
       style="stop-color:#41e7d0;stop-opacity:1;" /></linearGradient></defs>
	
	
<path
   id="rect5163"
   d="M 0.51367188 0.51367188 L 0.51367188 1023.4863 L 1023.4863 1023.4863 L 1023.4863 0.51367188 L 0.51367188 0.51367188 z M 789.67773 146.96289 C 818.79428 176.07985 847.9108 205.19553 877.02734 234.3125 C 784.46722 326.87393 691.90778 419.43661 599.34766 511.99805 C 691.90751 604.55791 784.46749 697.11788 877.02734 789.67773 L 789.67773 877.02734 C 697.11788 784.46749 604.5579 691.90752 511.99805 599.34766 C 419.43955 691.90746 326.88076 784.46753 234.32227 877.02734 C 205.20572 847.91037 176.08921 818.79274 146.97266 789.67578 C 239.53097 697.11616 332.09013 604.55767 424.64844 511.99805 C 332.08988 419.43949 239.53121 326.88083 146.97266 234.32227 L 234.32227 146.97266 L 511.99609 424.64648 C 604.55636 332.08491 697.11747 239.52446 789.67773 146.96289 z "
   style="fill:#f40000;fill-opacity:1;stroke:none;stroke-width:1.02808583;stroke-opacity:1" /></svg>