<?xml version="1.0" encoding="UTF-8" standalone="no"?>
<svg
   xmlns:dc="http://purl.org/dc/elements/1.1/"
   xmlns:cc="http://creativecommons.org/ns#"
   xmlns:rdf="http://www.w3.org/1999/02/22-rdf-syntax-ns#"
   xmlns:svg="http://www.w3.org/2000/svg"
   xmlns="http://www.w3.org/2000/svg"
   xmlns:sodipodi="http://sodipodi.sourceforge.net/DTD/sodipodi-0.dtd"
   xmlns:inkscape="http://www.inkscape.org/namespaces/inkscape"
   version="1.1"
   width="1024"
   height="1024"
   viewBox="0 0 1024.00 1024.00"
   enable-background="new 0 0 1024.00 1024.00"
   xml:space="preserve"
   id="svg4"
   sodipodi:docname="uE97a-checkbox-checked.svg"
   inkscape:version="0.92.1 r15371"><sodipodi:namedview
     pagecolor="#ffffff"
     bordercolor="#666666"
     borderopacity="1"
     objecttolerance="10"
     gridtolerance="10"
     guidetolerance="10"
     inkscape:pageopacity="0"
     inkscape:pageshadow="2"
     inkscape:window-width="1920"
     inkscape:window-height="1017"
     id="namedview12922"
     showgrid="false"
     inkscape:zoom="0.4609375"
     inkscape:cx="830.56838"
     inkscape:cy="330.68459"
     inkscape:window-x="-8"
     inkscape:window-y="-8"
     inkscape:window-maximized="1"
     inkscape:current-layer="svg4" /><metadata
     id="metadata10"><rdf:RDF><cc:Work
         rdf:about=""><dc:format>image/svg+xml</dc:format><dc:type
           rdf:resource="http://purl.org/dc/dcmitype/StillImage" /><dc:title></dc:title></cc:Work></rdf:RDF></metadata><defs
     id="defs8" /><g
     transform="translate(-3.1596555e-7,5.1231888)"
     id="g5269" /><g
     id="g4515"
     transform="matrix(0.74410588,0,0,0.80946886,176.57701,56.331527)"
     style="stroke-width:1.28849447"><g
       transform="rotate(-45,506.6188,508.35822)"
       id="g4542"
       style="stroke-width:1.28849447"><path
         style="opacity:0.98999999;fill:#dacd00;fill-opacity:1;stroke:none;stroke-width:64;stroke-linecap:square;stroke-linejoin:miter;stroke-miterlimit:4;stroke-dasharray:none;stroke-dashoffset:0;stroke-opacity:1;paint-order:markers fill stroke"
         d="M 0 0 L 0 1024 L 1024 1024 L 1024 0 L 0 0 z M 64 64 L 960 64 L 960 960 L 64 960 L 64 64 z M 794.61719 221.94141 C 665.06458 362.91411 535.50985 503.88498 405.95703 644.85742 L 229.38477 452.7207 C 205.30623 478.92119 181.22672 505.12148 157.14844 531.32227 C 240.08426 621.56821 323.02042 711.81335 405.95508 802.06055 C 559.58659 634.88708 713.2201 467.71446 866.85156 300.54102 C 842.77365 274.34121 818.69484 248.14151 794.61719 221.94141 z "
         transform="matrix(0.9502771,0.9502771,-0.87354414,0.87354414,389.25974,-426.34408)"
         id="rect4523" /></g></g></svg>