<?xml version="1.0" encoding="UTF-8" standalone="no"?>
<svg
   id="svg4562"
   xml:space="preserve"
   enable-background="new 0 0 1024.00 1024.00"
   viewBox="0 0 1024.00 1024.00"
   height="1024"
   width="1024"
   version="1.1"
   sodipodi:docname="uE971-robot.svg"
   inkscape:version="1.2.1 (9c6d41e410, 2022-07-14)"
   xmlns:inkscape="http://www.inkscape.org/namespaces/inkscape"
   xmlns:sodipodi="http://sodipodi.sourceforge.net/DTD/sodipodi-0.dtd"
   xmlns="http://www.w3.org/2000/svg"
   xmlns:svg="http://www.w3.org/2000/svg"
   xmlns:rdf="http://www.w3.org/1999/02/22-rdf-syntax-ns#"
   xmlns:cc="http://creativecommons.org/ns#"
   xmlns:dc="http://purl.org/dc/elements/1.1/"><sodipodi:namedview
   pagecolor="#ffffff"
   bordercolor="#666666"
   borderopacity="1"
   objecttolerance="10"
   gridtolerance="10"
   guidetolerance="10"
   inkscape:pageopacity="0"
   inkscape:pageshadow="2"
   inkscape:window-width="1920"
   inkscape:window-height="1009"
   id="namedview5099"
   showgrid="false"
   inkscape:zoom="0.70710678"
   inkscape:cx="153.44217"
   inkscape:cy="465.27626"
   inkscape:window-x="-8"
   inkscape:window-y="-8"
   inkscape:window-maximized="1"
   inkscape:current-layer="svg4562"
   inkscape:showpageshadow="2"
   inkscape:pagecheckerboard="0"
   inkscape:deskcolor="#d1d1d1" /><metadata
   id="metadata4568"><rdf:RDF><cc:Work
       rdf:about=""><dc:format>image/svg+xml</dc:format><dc:type
         rdf:resource="http://purl.org/dc/dcmitype/StillImage" /></cc:Work></rdf:RDF></metadata><defs
   id="defs4566" />
	
	
<path
   id="path4598"
   style="color:#000000;fill:#000000;stroke-linejoin:bevel"
   d="m 512,810.69922 c -141.73909,0 -263.87978,92.23136 -263.91211,215.38478 l 64,0.018 C 312.10874,946.67168 397.61486,874.69922 512,874.69922 c 114.38514,0 199.89126,71.97246 199.91211,151.40238 l 64,-0.018 C 775.87978,902.93058 653.73909,810.69922 512,810.69922 Z M 661.22461,341.11523 c -64.5772,0 -117.62109,53.02724 -117.62109,117.60157 0,64.57433 53.04389,117.60156 117.62109,117.60156 64.5772,0 117.62109,-53.02723 117.62109,-117.60156 0,-64.57433 -53.04389,-117.60157 -117.62109,-117.60157 z m 0,64 c 29.99691,0 53.62109,23.62321 53.62109,53.60157 0,29.97836 -23.62418,53.60156 -53.62109,53.60156 -29.99691,0 -53.62109,-23.6232 -53.62109,-53.60156 0,-29.97836 23.62418,-53.60157 53.62109,-53.60157 z m -298.44922,-64 c -64.5772,0 -117.62109,53.02724 -117.62109,117.60157 0,64.57433 53.04389,117.60156 117.62109,117.60156 64.5772,0 117.62109,-53.02723 117.62109,-117.60156 0,-64.57433 -53.04389,-117.60157 -117.62109,-117.60157 z m 0,64 c 29.99691,0 53.62109,23.62321 53.62109,53.60157 0,29.97836 -23.62418,53.60156 -53.62109,53.60156 -29.99691,0 -53.62109,-23.6232 -53.62109,-53.60156 0,-29.97836 23.62418,-53.60157 53.62109,-53.60157 z m 499.41016,-82.35351 -0.0195,64 32,0.01 C 930.91057,386.78199 960,415.8771 960,452.60156 c 0,36.72446 -29.08943,65.81958 -65.83398,65.83008 l -32,0.01 0.0195,64 32,-0.01 C 965.5039,582.41125 1024,523.91546 1024,452.60156 1024,381.28766 965.5039,322.79187 894.18555,322.77148 Z m -700.3711,6.11523 -32,0.01 C 58.496097,328.90711 0,387.4029 0,458.7168 0,530.03069 58.496097,588.52649 129.81445,588.54687 l 32,0.008 0.0195,-64 -32,-0.008 C 93.089433,524.53637 64,495.44126 64,458.7168 c 0,-36.72447 29.089433,-65.81958 65.83398,-65.83008 l 32,-0.01 z m 150.5,-131.38867 c -112.46237,0 -204,91.53763 -204,204 V 574.0918 c 0,112.46237 91.53763,204 204,204 h 399.3711 c 112.46237,0 204,-91.53763 204,-204 V 401.48828 c 0,-112.46237 -91.53763,-204 -204,-204 z m 0,64 h 399.3711 c 78.11343,0 140,61.88657 140,140 V 574.0918 c 0,78.11343 -61.88657,140 -140,140 h -399.3711 c -78.11343,0 -140,-61.88657 -140,-140 V 401.48828 c 0,-78.11343 61.88657,-140 140,-140 z M 512,100.88281 a 32,32 0 0 0 -32,32 v 73.3711 a 32,32 0 0 0 32,32 32,32 0 0 0 32,-32 v -73.3711 a 32,32 0 0 0 -32,-32 z m 0,-97.8300756 c -44.31132,0 -80.92578,36.6010246 -80.92578,80.9140626 0,44.313033 36.61446,80.916013 80.92578,80.916013 44.31132,0 80.92578,-36.60298 80.92578,-80.916013 C 592.92578,39.653759 556.31132,3.0527344 512,3.0527344 Z m 0,63.9999996 c 9.73102,0 16.92578,7.196994 16.92578,16.914063 0,9.717069 -7.19476,16.916013 -16.92578,16.916013 -9.73102,0 -16.92578,-7.198944 -16.92578,-16.916013 0,-9.717069 7.19476,-16.914063 16.92578,-16.914063 z" /></svg>
