<?xml version="1.0" encoding="UTF-8" standalone="no"?>
<svg
   id="svg4562"
   xml:space="preserve"
   enable-background="new 0 0 1024.00 1024.00"
   viewBox="0 0 1024.00 1024.00"
   height="1024"
   width="1024"
   version="1.1"
   xmlns="http://www.w3.org/2000/svg"
   xmlns:svg="http://www.w3.org/2000/svg"
   xmlns:rdf="http://www.w3.org/1999/02/22-rdf-syntax-ns#"
   xmlns:cc="http://creativecommons.org/ns#"
   xmlns:dc="http://purl.org/dc/elements/1.1/"><metadata
   id="metadata4568"><rdf:RDF><cc:Work
       rdf:about=""><dc:format>image/svg+xml</dc:format><dc:type
         rdf:resource="http://purl.org/dc/dcmitype/StillImage" /></cc:Work></rdf:RDF></metadata><defs
   id="defs4566"><linearGradient
     id="linearGradient5239"><stop
       style="stop-color:#41e7d0;stop-opacity:1;"
       offset="0"
       id="stop5237" /></linearGradient></defs>
	
	
<path
   id="path351"
   style="color:#000000;fill:#c70000;stroke-linecap:round;-inkscape-stroke:none"
   d="M 480.24023 0 L 480 181.89062 L 543.75977 182 L 544 0.109375 L 480.24023 0 z M 170.08789 128.47852 L 124.92578 173.48633 L 253.37109 302.27148 L 298.5332 257.26367 L 170.08789 128.47852 z M 854.1582 128.57227 L 725.37305 257.01953 L 770.38086 302.18164 L 899.16602 173.73633 L 854.1582 128.57227 z M 512 239.30664 C 500.31903 239.30664 488.83171 240.13061 477.53125 241.56641 A 272.6925 272.6925 0 0 0 475.42773 241.83594 C 464.01525 243.37663 452.81582 245.59124 441.89062 248.50586 A 272.6925 272.6925 0 0 0 440.68164 248.85156 C 429.83812 251.79865 419.26345 255.39434 408.99609 259.60547 A 272.6925 272.6925 0 0 0 406.87305 260.44531 C 396.98252 264.59942 387.41441 269.36179 378.15234 274.60938 A 272.6925 272.6925 0 0 0 373.4082 277.3418 C 364.77514 282.46426 356.42697 288.01428 348.4375 294.02734 A 272.6925 272.6925 0 0 0 342.79688 298.46484 C 335.76678 304.04926 329.01665 309.96421 322.57227 316.20117 A 272.6925 272.6925 0 0 0 316.20117 322.57227 C 309.96421 329.01665 304.04926 335.76678 298.46484 342.79688 A 272.6925 272.6925 0 0 0 294.02734 348.4375 C 288.01428 356.42697 282.46426 364.77514 277.3418 373.4082 A 272.6925 272.6925 0 0 0 275.8418 375.6543 A 272.6925 272.6925 0 0 0 274.60938 378.15234 C 269.36179 387.41441 264.59942 396.98252 260.44531 406.87305 A 272.6925 272.6925 0 0 0 259.60547 408.99609 C 255.39434 419.26345 251.79865 429.83812 248.85156 440.68164 A 272.6925 272.6925 0 0 0 248.50586 441.89062 C 245.59124 452.81582 243.37663 464.01525 241.83594 475.42773 A 272.6925 272.6925 0 0 0 241.56641 477.53125 C 240.13061 488.83171 239.30664 500.31903 239.30664 512 C 239.30664 523.68097 240.13061 535.16829 241.56641 546.46875 A 272.6925 272.6925 0 0 0 241.83594 548.57227 C 243.37663 559.98475 245.59124 571.18418 248.50586 582.10938 A 272.6925 272.6925 0 0 0 248.85156 583.31836 C 251.79865 594.16188 255.39434 604.73655 259.60547 615.00391 A 272.6925 272.6925 0 0 0 260.44531 617.12695 C 264.59942 627.01748 269.36179 636.58559 274.60938 645.84766 A 272.6925 272.6925 0 0 0 275.8418 648.3457 A 272.6925 272.6925 0 0 0 277.3418 650.5918 C 282.46426 659.22486 288.01428 667.57303 294.02734 675.5625 A 272.6925 272.6925 0 0 0 298.46484 681.20312 C 304.04926 688.23322 309.96421 694.98335 316.20117 701.42773 A 272.6925 272.6925 0 0 0 322.57227 707.79883 C 329.01665 714.03579 335.76678 719.95074 342.79688 725.53516 A 272.6925 272.6925 0 0 0 348.4375 729.97266 C 356.42697 735.98572 364.77514 741.53574 373.4082 746.6582 A 272.6925 272.6925 0 0 0 378.15234 749.39062 C 387.41441 754.63821 396.98252 759.40058 406.87305 763.55469 A 272.6925 272.6925 0 0 0 408.99609 764.39453 C 419.26345 768.60566 429.83812 772.20135 440.68164 775.14844 A 272.6925 272.6925 0 0 0 441.89062 775.49414 C 452.81582 778.40876 464.01525 780.62337 475.42773 782.16406 A 272.6925 272.6925 0 0 0 477.53125 782.43359 C 488.83171 783.86939 500.31903 784.69336 512 784.69336 C 662.24468 784.69336 784.69336 662.24468 784.69336 512 C 784.69336 361.75532 662.24468 239.30664 512 239.30664 z M 512 299.89062 C 629.5035 299.89062 724.10937 394.4965 724.10938 512 C 724.10938 629.5035 629.5035 724.10937 512 724.10938 L 512 299.89062 z M -3.5390625 483.64453 L -3.6484375 547.4043 L 178.24219 547.64453 L 178.35156 483.88281 L -3.5390625 483.64453 z M 845.75391 483.64844 L 845.64453 547.4082 L 1027.5352 547.64844 L 1027.6445 483.88672 L 845.75391 483.64844 z M 770.625 729.01953 L 725.46094 774.0293 L 853.9082 902.81445 L 899.07031 857.80664 L 770.625 729.01953 z M 253.61523 729.10938 L 124.83008 857.55664 L 169.83789 902.71875 L 298.62305 774.27148 L 253.61523 729.10938 z M 543.75977 849.29102 L 480 849.40039 L 480.24023 1031.291 L 544 1031.1816 L 543.75977 849.29102 z " /></svg>
