<?xml version="1.0" encoding="UTF-8" standalone="no"?>
<svg
   id="svg4562"
   xml:space="preserve"
   enable-background="new 0 0 1024.00 1024.00"
   viewBox="0 0 1024.00 1024.00"
   height="1024"
   width="1024"
   version="1.1"
   xmlns="http://www.w3.org/2000/svg"
   xmlns:svg="http://www.w3.org/2000/svg"
   xmlns:rdf="http://www.w3.org/1999/02/22-rdf-syntax-ns#"
   xmlns:cc="http://creativecommons.org/ns#"
   xmlns:dc="http://purl.org/dc/elements/1.1/"><metadata
   id="metadata4568"><rdf:RDF><cc:Work
       rdf:about=""><dc:format>image/svg+xml</dc:format><dc:type
         rdf:resource="http://purl.org/dc/dcmitype/StillImage" /></cc:Work></rdf:RDF></metadata><defs
   id="defs4566" />
	
	
<path
   id="circle4584"
   style="color:#000000;fill:#000000;stroke-linecap:round;stroke-linejoin:round"
   d="m 512,38.394531 c -54.33936,-2.618803 -86.61058,72.541589 -45.03108,109.177379 22.36516,10.11129 9.74746,37.20477 13.03108,56.70333 0,18.52219 0,37.04437 0,55.56656 -86.98457,0.91825 -174.15493,-1.89307 -261.01632,1.51109 -68.65847,8.95966 -118.47252,77.84778 -110.66923,145.68882 -3.7264,15.18753 7.84435,43.50085 -6.47418,49.59976 C 30.723261,473.9855 2.8128006,555.83387 0.25435453,621.41544 -2.2011532,689.85492 18.009051,773.47839 85.207145,805.4079 c 31.718345,-2.87085 21.909535,24.65415 23.107305,45.13018 -4.78874,76.90337 68.49862,143.73625 144.41009,135.06739 181.92118,-0.44531 363.8993,0.89465 545.78458,-0.67718 71.43597,-5.5519 125.46694,-76.34598 117.17643,-146.52274 -11.59528,-35.29606 25.72751,-28.5145 45.60097,-46.11734 67.61198,-59.50448 75.19788,-164.04367 48.54018,-245.34285 -14.63894,-42.29985 -46.59427,-85.66542 -94.14115,-91.29888 -0.33226,-52.49263 7.06436,-112.2139 -34.00692,-152.9318 -32.53027,-39.13888 -85.06877,-45.79285 -132.7218,-42.87288 -68.31894,0 -136.63789,0 -204.95683,0 0,-34.07031 0,-68.14063 0,-102.21094 C 592.17926,133.07249 582.58518,54.711962 530.89163,41.303925 524.79237,39.376847 518.39675,38.391418 512,38.394531 Z m -0.008,63.998049 c 0.0503,7.7e-4 -0.006,0.008 0,0 z M 238.77539,323.8418 c 184.44878,0.22311 368.91926,-0.44672 553.35445,0.3358 41.14726,2.3994 65.3295,44.84085 59.55571,82.86411 -0.2232,151.66664 0.44684,303.355 -0.3358,455.00805 -2.3994,41.14727 -44.84086,65.32949 -82.86412,59.55571 -178.86912,-0.22306 -357.75994,0.44666 -536.61547,-0.3358 -41.14727,-2.3994 -65.32949,-44.84086 -59.55571,-82.86412 0.2232,-151.66664 -0.44684,-303.355 0.3358,-455.00805 2.42104,-33.33609 32.77312,-60.46431 66.12514,-59.5557 z m 86.83203,124.91211 c -69.55824,-2.91577 -120.62107,81.70984 -84.33609,141.57007 30.35834,62.41619 127.66055,67.24956 163.8397,7.9153 44.04022,-60.74197 -4.90114,-151.42896 -79.50361,-149.48537 z m 372.78516,0 c -69.55824,-2.91577 -120.62107,81.70984 -84.33609,141.57007 30.35834,62.41619 127.66055,67.24956 163.8397,7.9153 44.04022,-60.74197 -4.90114,-151.42896 -79.50361,-149.48537 z m -372.78516,64 c 54.95361,-0.32847 27.85539,89.5772 -18.05993,58.60509 -25.88182,-16.15498 -12.88239,-60.208 18.05993,-58.60509 z m 372.78516,0 c 54.95361,-0.32847 27.85539,89.5772 -18.05993,58.60509 -25.88182,-16.15498 -12.88239,-60.208 18.05993,-58.60509 z m -590.07813,8.73437 c 0,74.65104 0,149.30209 0,223.95313 C 61.84062,710.25378 58.869604,642.03203 68.771745,588.9299 c 6.19631,-25.08551 15.795429,-53.73437 39.542705,-67.44162 z m 807.3711,0 c 45.16205,33.57282 48.71333,99.31862 40.71945,150.80522 4.45009,20.9292 -45.55526,104.26664 -40.71945,50.82928 0,-67.2115 0,-134.423 0,-201.6345 z M 369.32031,751.03711 c 0,21.33333 0,42.66667 0,64 95.11979,0 190.23959,0 285.35938,0 0,-21.33333 0,-42.66667 0,-64 -95.11979,0 -190.23959,0 -285.35938,0 z" /></svg>
