<?xml version="1.0" encoding="UTF-8" standalone="no"?>
<svg
   xmlns:dc="http://purl.org/dc/elements/1.1/"
   xmlns:cc="http://creativecommons.org/ns#"
   xmlns:rdf="http://www.w3.org/1999/02/22-rdf-syntax-ns#"
   xmlns:svg="http://www.w3.org/2000/svg"
   xmlns="http://www.w3.org/2000/svg"
   version="1.1"
   width="1024"
   height="1024"
   viewBox="0 0 1024.00 1024.00"
   enable-background="new 0 0 1024.00 1024.00"
   xml:space="preserve"
   id="svg4562"><metadata
     id="metadata4568"><rdf:RDF><cc:Work
         rdf:about=""><dc:format>image/svg+xml</dc:format><dc:type
           rdf:resource="http://purl.org/dc/dcmitype/StillImage" /><dc:title></dc:title></cc:Work></rdf:RDF></metadata><defs
     id="defs4566" /><path
     id="rect4700"
     d="M 225.00781 0.99609375 L 225.00781 32.996094 L 225.00781 442.70703 L 116.77344 442.70703 C 50.806541 442.70703 0 501.01792 0 568.50391 L 0 830.82031 C 0 835.5226 0.24418659 840.14247 0.70117188 844.66406 L 3.609375 873.44727 L 223.64258 873.44727 L 223.64258 1024 L 800.35742 1024 L 800.35742 873.44727 L 1020.3906 873.44727 L 1023.2988 844.66406 C 1023.7558 840.14249 1024 835.5226 1024 830.82031 L 1024 568.50391 C 1024 501.01792 973.19345 442.70703 907.22656 442.70703 L 801.72266 442.70703 L 801.72266 0.99609375 L 225.00781 0.99609375 z M 289.00781 64.996094 L 737.72266 64.996094 L 737.72266 438.20312 L 289.00781 438.20312 L 289.00781 64.996094 z M 116.77344 506.70703 L 907.22656 506.70703 C 935.18861 506.70703 960 532.06226 960 568.50391 L 960 809.44727 L 800.35742 809.44727 L 800.35742 725.28906 L 223.64258 725.28906 L 223.64258 757.28906 L 223.64258 809.44727 L 64 809.44727 L 64 568.50391 C 64 532.06226 88.811377 506.70703 116.77344 506.70703 z M 181.01953 582.18945 A 41.419678 39.447315 0 0 0 139.59961 621.63672 A 41.419678 39.447315 0 0 0 181.01953 661.08398 A 41.419678 39.447315 0 0 0 222.43945 621.63672 A 41.419678 39.447315 0 0 0 181.01953 582.18945 z M 287.64258 789.28906 L 736.35742 789.28906 L 736.35742 960 L 287.64258 960 L 287.64258 789.28906 z "
     style="color:#000000;font-style:normal;font-variant:normal;font-weight:normal;font-stretch:normal;font-size:medium;line-height:normal;font-family:sans-serif;font-variant-ligatures:normal;font-variant-position:normal;font-variant-caps:normal;font-variant-numeric:normal;font-variant-alternates:normal;font-feature-settings:normal;text-indent:0;text-align:start;text-decoration:none;text-decoration-line:none;text-decoration-style:solid;text-decoration-color:#000000;letter-spacing:normal;word-spacing:normal;text-transform:none;writing-mode:lr-tb;direction:ltr;text-orientation:mixed;dominant-baseline:auto;baseline-shift:baseline;text-anchor:start;white-space:normal;shape-padding:0;clip-rule:nonzero;display:inline;overflow:visible;visibility:visible;opacity:0.98999999;isolation:auto;mix-blend-mode:normal;color-interpolation:sRGB;color-interpolation-filters:linearRGB;solid-color:#000000;solid-opacity:1;vector-effect:none;fill:#bdb37b;fill-opacity:1;fill-rule:nonzero;stroke:none;stroke-width:63.99999619;stroke-linecap:butt;stroke-linejoin:miter;stroke-miterlimit:4;stroke-dasharray:none;stroke-dashoffset:0;stroke-opacity:1;color-rendering:auto;image-rendering:auto;shape-rendering:auto;text-rendering:auto;enable-background:accumulate" /></svg>