<?xml version="1.0" encoding="UTF-8" standalone="no"?>
<svg
   id="svg4562"
   xml:space="preserve"
   enable-background="new 0 0 1024.00 1024.00"
   viewBox="0 0 1024.00 1024.00"
   height="1024"
   width="1024"
   version="1.1"
   xmlns="http://www.w3.org/2000/svg"
   xmlns:svg="http://www.w3.org/2000/svg"
   xmlns:rdf="http://www.w3.org/1999/02/22-rdf-syntax-ns#"
   xmlns:cc="http://creativecommons.org/ns#"
   xmlns:dc="http://purl.org/dc/elements/1.1/"><metadata
   id="metadata4568"><rdf:RDF><cc:Work
       rdf:about=""><dc:format>image/svg+xml</dc:format><dc:type
         rdf:resource="http://purl.org/dc/dcmitype/StillImage" /></cc:Work></rdf:RDF></metadata><defs
   id="defs4566"><linearGradient
     id="linearGradient5239"><stop
       style="stop-color:#41e7d0;stop-opacity:1;"
       offset="0"
       id="stop5237" /></linearGradient></defs>
	
	
<path
   style="color:#000000;fill:#c759c5;stroke-miterlimit:4.3;-inkscape-stroke:none"
   d="m 474.9043,130.60352 22.52929,56.0625 c 65.32172,162.55202 36.41434,284.80283 -40.74023,373.87304 -77.15457,89.07021 -207.5053,143.74106 -347.21484,151.84571 l -59.996098,3.48046 36.378906,47.83789 C 199.4232,913.03306 403.35862,975.33783 592.31445,914.56836 780.57895,854.02136 912.29517,689.61172 891.01562,506.73437 870.10633,327.03756 730.69915,186.34343 533.93945,143.4668 Z m 102.17578,91.34179 C 719.79767,271.32688 811.80949,379.77165 827.44336,514.13086 844.69391,662.38288 737.4337,800.66793 572.7207,853.64062 429.45514,899.7158 277.39896,863.77069 177.00781,769.51758 306.76816,749.86296 426.13412,693.56809 505.06836,602.44336 586.57249,508.35185 621.0257,376.25478 577.08008,221.94531 Z"
   id="path3891" /></svg>
