<?xml version="1.0" encoding="UTF-8" standalone="no"?>
<svg
   xmlns:dc="http://purl.org/dc/elements/1.1/"
   xmlns:cc="http://creativecommons.org/ns#"
   xmlns:rdf="http://www.w3.org/1999/02/22-rdf-syntax-ns#"
   xmlns:svg="http://www.w3.org/2000/svg"
   xmlns="http://www.w3.org/2000/svg"
   version="1.1"
   width="1024"
   height="1024"
   viewBox="0 0 1024.00 1024.00"
   enable-background="new 0 0 1024.00 1024.00"
   xml:space="preserve"
   id="svg4"><metadata
     id="metadata10"><rdf:RDF><cc:Work
         rdf:about=""><dc:format>image/svg+xml</dc:format><dc:type
           rdf:resource="http://purl.org/dc/dcmitype/StillImage" /><dc:title></dc:title></cc:Work></rdf:RDF></metadata><defs
     id="defs8" /><g
     style="stroke-width:1.26321363"
     transform="matrix(0.79202792,0,0,0.79123615,6.6711215,6.6644526)"
     id="g5058"><path
       id="path830"
       transform="matrix(1.2625818,0,0,1.2638452,-8.4228363,-8.4228363)"
       d="M 0 0 L 0 703.54102 L 9.3769531 712.9082 L 120.13281 823.55469 L 690.71484 823.55469 L 624.88281 759.58789 L 587.37695 759.58789 L 587.37695 523.87695 L 178.6582 523.87695 L 178.6582 554.47852 L 178.6582 759.58789 L 146.6582 759.58789 L 64.03125 677.04297 L 64.03125 63.966797 L 116.20508 63.966797 L 116.20508 415.57617 L 706.26172 415.57617 L 706.26172 63.966797 L 760.34766 63.966797 L 760.34766 633.95898 L 824.37891 696.17578 L 824.37891 0 L 0 0 z M 180.23633 63.966797 L 642.23047 63.966797 L 642.23047 351.60742 L 180.23633 351.60742 L 180.23633 63.966797 z M 239.91992 585.07812 L 526.11719 585.07812 L 526.11719 759.58789 L 355.49805 759.58789 L 355.49805 642.81836 L 291.4668 642.81836 L 291.4668 759.58789 L 239.91992 759.58789 L 239.91992 585.07812 z M 661.96094 616.70703 L 616.70703 661.96094 L 775.09961 820.35352 L 616.70703 978.74609 L 661.96094 1024 L 820.35352 865.60742 L 978.74609 1024 L 1024 978.74609 L 865.60742 820.35352 L 1024 661.96094 L 978.74609 616.70703 L 820.35352 775.09961 L 661.96094 616.70703 z "
       style="color:#000000;font-style:normal;font-variant:normal;font-weight:normal;font-stretch:normal;font-size:medium;line-height:normal;font-family:sans-serif;font-variant-ligatures:normal;font-variant-position:normal;font-variant-caps:normal;font-variant-numeric:normal;font-variant-alternates:normal;font-feature-settings:normal;text-indent:0;text-align:start;text-decoration:none;text-decoration-line:none;text-decoration-style:solid;text-decoration-color:#000000;letter-spacing:normal;word-spacing:normal;text-transform:none;writing-mode:lr-tb;direction:ltr;text-orientation:mixed;dominant-baseline:auto;baseline-shift:baseline;text-anchor:start;white-space:normal;shape-padding:0;clip-rule:nonzero;display:inline;overflow:visible;visibility:visible;opacity:1;isolation:auto;mix-blend-mode:normal;color-interpolation:sRGB;color-interpolation-filters:linearRGB;solid-color:#000000;solid-opacity:1;vector-effect:none;fill:#e80000;fill-opacity:1;fill-rule:nonzero;stroke:none;stroke-width:64.00001526;stroke-linecap:butt;stroke-linejoin:miter;stroke-miterlimit:4;stroke-dasharray:none;stroke-dashoffset:0;stroke-opacity:1;color-rendering:auto;image-rendering:auto;shape-rendering:auto;text-rendering:auto;enable-background:accumulate" /></g><g
     transform="translate(1024,1024)"
     id="g5081" /></svg>