<?xml version="1.0" encoding="UTF-8" standalone="no"?>
<svg
   xmlns:dc="http://purl.org/dc/elements/1.1/"
   xmlns:cc="http://creativecommons.org/ns#"
   xmlns:rdf="http://www.w3.org/1999/02/22-rdf-syntax-ns#"
   xmlns:svg="http://www.w3.org/2000/svg"
   xmlns="http://www.w3.org/2000/svg"
   version="1.1"
   width="1024"
   height="1024"
   viewBox="0 0 1024.00 1024.00"
   enable-background="new 0 0 1024.00 1024.00"
   xml:space="preserve"
   id="svg4"><metadata
     id="metadata10"><rdf:RDF><cc:Work
         rdf:about=""><dc:format>image/svg+xml</dc:format><dc:type
           rdf:resource="http://purl.org/dc/dcmitype/StillImage" /><dc:title></dc:title></cc:Work></rdf:RDF></metadata><defs
     id="defs8" /><path
     id="path840"
     d="m 368,804 c 0,62.66667 0,125.33333 0,188 21.33333,0 42.66667,0 64,0 0,-62.66667 0,-125.33333 0,-188 -21.33333,0 -42.66667,0 -64,0 z M 146.7168,0 c 0,169.45898 0,338.91797 0,508.37695 242.7168,0 485.43359,0 728.15039,0 0,-169.45898 0,-338.91797 0,-508.37695 C 632.15039,0 389.4336,0 146.7168,0 Z m 64,64 c 200.05013,0 400.10026,0 600.15039,0 0,126.79232 0,253.58463 0,380.37695 -200.05013,0 -400.10026,0 -600.15039,0 0,-126.79232 0,-253.58463 0,-380.37695 z m 14.49023,597.73633 c 0,120.75456 0,241.50911 0,362.26367 166.64193,0 333.28385,0 499.92578,0 0,-120.75456 0,-241.50911 0,-362.26367 -166.64193,0 -333.28385,0 -499.92578,0 z m 61.23047,61.23047 c 125.82161,0 251.64323,0 377.46484,0 0,79.93424 0,159.86849 0,239.80273 -125.82161,0 -251.64323,0 -377.46484,0 0,-79.93424 0,-159.86849 0,-239.80273 z M 0,0 C 0,292.41797 0,584.83594 0,877.25391 48.915363,926.16927 97.830727,975.08464 146.74609,1024 c 292.41797,0 584.83594,0 877.25391,0 0,-341.33333 0,-682.66667 0,-1024 C 682.66667,0 341.33333,0 0,0 Z m 64,64 c 298.66667,0 597.33333,0 896,0 0,298.66667 0,597.33333 0,896 -262.2487,0 -524.49739,0 -786.74609,0 C 136.83594,923.58203 100.41797,887.16406 64,850.74609 64,588.49739 64,326.2487 64,64 Z"
     style="color:#000000;font-style:normal;font-variant:normal;font-weight:normal;font-stretch:normal;font-size:medium;line-height:normal;font-family:sans-serif;font-variant-ligatures:normal;font-variant-position:normal;font-variant-caps:normal;font-variant-numeric:normal;font-variant-alternates:normal;font-feature-settings:normal;text-indent:0;text-align:start;text-decoration:none;text-decoration-line:none;text-decoration-style:solid;text-decoration-color:#000000;letter-spacing:normal;word-spacing:normal;text-transform:none;writing-mode:lr-tb;direction:ltr;text-orientation:mixed;dominant-baseline:auto;baseline-shift:baseline;text-anchor:start;white-space:normal;shape-padding:0;clip-rule:nonzero;display:inline;overflow:visible;visibility:visible;opacity:1;isolation:auto;mix-blend-mode:normal;color-interpolation:sRGB;color-interpolation-filters:linearRGB;solid-color:#000000;solid-opacity:1;vector-effect:none;fill:#ea0000;fill-opacity:1;fill-rule:nonzero;stroke:none;stroke-width:64;stroke-linecap:butt;stroke-linejoin:miter;stroke-miterlimit:4;stroke-dasharray:none;stroke-dashoffset:0;stroke-opacity:1;color-rendering:auto;image-rendering:auto;shape-rendering:auto;text-rendering:auto;enable-background:accumulate" /></svg>