<?xml version="1.0" encoding="UTF-8" standalone="no"?>
<svg
   xmlns:dc="http://purl.org/dc/elements/1.1/"
   xmlns:cc="http://creativecommons.org/ns#"
   xmlns:rdf="http://www.w3.org/1999/02/22-rdf-syntax-ns#"
   xmlns:svg="http://www.w3.org/2000/svg"
   xmlns="http://www.w3.org/2000/svg"
   version="1.1"
   width="1024"
   height="1024"
   viewBox="0 0 1024.00 1024.00"
   enable-background="new 0 0 1024.00 1024.00"
   xml:space="preserve"
   id="svg4"><metadata
     id="metadata10"><rdf:RDF><cc:Work
         rdf:about=""><dc:format>image/svg+xml</dc:format><dc:type
           rdf:resource="http://purl.org/dc/dcmitype/StillImage" /><dc:title></dc:title></cc:Work></rdf:RDF></metadata><defs
     id="defs8" /><path
     id="path3696"
     d="M 418.69141 8.859375 A 512 512 0 0 0 225.83984 87.978516 L 256.42188 226.0332 A 384 384 0 0 0 228.19922 253.99609 L 90.001953 222.14844 A 512 512 0 0 0 9.5878906 414.36523 L 129.07422 490.51562 A 384 384 0 0 0 128 512 A 384 384 0 0 0 128.65234 530.38867 L 8.859375 605.30859 A 512 512 0 0 0 87.978516 798.16016 L 226.0332 767.57812 A 384 384 0 0 0 253.99609 795.80078 L 222.14844 933.99805 A 512 512 0 0 0 414.36523 1014.4121 L 490.51562 894.92578 A 384 384 0 0 0 512 896 A 384 384 0 0 0 530.38867 895.34766 L 605.30859 1015.1406 A 512 512 0 0 0 798.16016 936.02148 L 767.57812 797.9668 A 384 384 0 0 0 795.80078 770.00391 L 933.99805 801.85156 A 512 512 0 0 0 1014.4121 609.63477 L 894.92578 533.48438 A 384 384 0 0 0 896 512 A 384 384 0 0 0 895.34766 493.61133 L 1015.1406 418.69141 A 512 512 0 0 0 936.02148 225.83984 L 797.9668 256.42188 A 384 384 0 0 0 770.00391 228.19922 L 801.85156 90.001953 A 512 512 0 0 0 609.63477 9.5878906 L 533.48438 129.07422 A 384 384 0 0 0 512 128 A 384 384 0 0 0 493.61133 128.65234 L 418.69141 8.859375 z M 512 320 A 192 192 0 0 1 704 512 A 192 192 0 0 1 512 704 A 192 192 0 0 1 320 512 A 192 192 0 0 1 512 320 z "
     style="fill:#ff0000;stroke-width:1.5782932" /></svg>