<?xml version="1.0" encoding="UTF-8" standalone="no"?>
<svg
   xmlns:dc="http://purl.org/dc/elements/1.1/"
   xmlns:cc="http://creativecommons.org/ns#"
   xmlns:rdf="http://www.w3.org/1999/02/22-rdf-syntax-ns#"
   xmlns:svg="http://www.w3.org/2000/svg"
   xmlns="http://www.w3.org/2000/svg"
   version="1.1"
   width="1024"
   height="1024"
   viewBox="0 0 1024.00 1024.00"
   enable-background="new 0 0 1024.00 1024.00"
   xml:space="preserve"
   id="svg4"><metadata
     id="metadata10"><rdf:RDF><cc:Work
         rdf:about=""><dc:format>image/svg+xml</dc:format><dc:type
           rdf:resource="http://purl.org/dc/dcmitype/StillImage" /><dc:title></dc:title></cc:Work></rdf:RDF></metadata><defs
     id="defs8" /><path
     id="path840"
     d="m 0,20.91992 v 710.73633 l 10.015625,9.4707 117.449215,111.04688 h 61.73243 v 1.10742 h 434.82617 v -1.10742 H 787.1582 l -64,-64 H 624.02344 V 548.6875 H 189.19727 v 32 207.48633 H 152.93164 L 64,704.08984 V 84.91992 h 60.01953 v 355.15625 h 625.4043 V 84.91992 h 62.0625 v 610.5625 l 64,64 V 20.91992 h -126.0625 -625.4043 z m 188.01953,64 h 497.4043 V 376.07617 H 188.01953 Z M 253.19727,612.6875 H 560.02344 V 788.17383 H 375.07031 V 669.91992 h -64 V 788.17383 H 253.19727 Z M 752.4707,686.29687 707.2168,731.55078 820.35547,844.68945 707.2168,957.82617 752.4707,1003.0801 865.60938,889.94336 978.74609,1003.0801 1024,957.82617 910.86328,844.68945 1024,731.55078 978.74609,686.29687 865.60938,799.43554 Z"
     style="color:#000000;font-style:normal;font-variant:normal;font-weight:normal;font-stretch:normal;font-size:medium;line-height:normal;font-family:sans-serif;font-variant-ligatures:normal;font-variant-position:normal;font-variant-caps:normal;font-variant-numeric:normal;font-variant-alternates:normal;font-feature-settings:normal;text-indent:0;text-align:start;text-decoration:none;text-decoration-line:none;text-decoration-style:solid;text-decoration-color:#000000;letter-spacing:normal;word-spacing:normal;text-transform:none;writing-mode:lr-tb;direction:ltr;text-orientation:mixed;dominant-baseline:auto;baseline-shift:baseline;text-anchor:start;white-space:normal;shape-padding:0;clip-rule:nonzero;display:inline;overflow:visible;visibility:visible;opacity:1;isolation:auto;mix-blend-mode:normal;color-interpolation:sRGB;color-interpolation-filters:linearRGB;solid-color:#000000;solid-opacity:1;vector-effect:none;fill:#ea0000;fill-opacity:1;fill-rule:nonzero;stroke:none;stroke-width:64;stroke-linecap:butt;stroke-linejoin:miter;stroke-miterlimit:4;stroke-dasharray:none;stroke-dashoffset:0;stroke-opacity:1;color-rendering:auto;image-rendering:auto;shape-rendering:auto;text-rendering:auto;enable-background:accumulate" /></svg>