<?xml version="1.0" encoding="UTF-8" standalone="no"?>
<svg
   xmlns:dc="http://purl.org/dc/elements/1.1/"
   xmlns:cc="http://creativecommons.org/ns#"
   xmlns:rdf="http://www.w3.org/1999/02/22-rdf-syntax-ns#"
   xmlns:svg="http://www.w3.org/2000/svg"
   xmlns="http://www.w3.org/2000/svg"
   version="1.1"
   width="1024"
   height="1024"
   viewBox="0 0 1024.00 1024.00"
   enable-background="new 0 0 1024.00 1024.00"
   xml:space="preserve"
   id="svg4"><metadata
     id="metadata10"><rdf:RDF><cc:Work
         rdf:about=""><dc:format>image/svg+xml</dc:format><dc:type
           rdf:resource="http://purl.org/dc/dcmitype/StillImage" /><dc:title></dc:title></cc:Work></rdf:RDF></metadata><defs
     id="defs8" /><g
     transform="translate(-3.1596555e-7,5.1231888)"
     id="g5269" /><path
     id="rect5381"
     d="M 46.851562 0 L 0 46.851562 L 194.82422 241.67578 L 0 436.5 L 46.851562 483.35156 L 241.67578 288.52734 L 436.5 483.35156 L 483.35156 436.5 L 288.52734 241.67578 L 483.35156 46.851562 L 436.5 0 L 241.67578 194.82422 L 46.851562 0 z M 488.14844 132.56445 L 412.63281 208.07812 L 412.63281 212.82812 L 877.13477 212.82812 L 877.13477 433.97852 L 571.33984 433.97852 L 573.86133 436.5 L 436.5 573.86133 L 296.61914 433.97852 L 186.73242 433.97852 L 134.27344 486.43945 L 134.27344 731.125 L 135.98047 731.125 L 135.98047 911.66016 L 248.31836 1024 L 356.27734 1024 L 356.27734 731.125 L 802.18945 731.125 L 802.18945 1024 L 1024 1024 L 1024 731.125 L 1024 523.63477 L 1024 433.97852 L 1024 133.41992 L 1024 132.56445 L 488.14844 132.56445 z M 429.49414 878.84375 L 429.49414 1024 L 579.77344 1024 L 579.77344 878.84375 L 429.49414 878.84375 z "
     style="opacity:0.98999999;fill:#57820f;fill-opacity:0.53266332;stroke:none;stroke-width:64;stroke-linecap:square;stroke-linejoin:miter;stroke-miterlimit:4;stroke-dasharray:none;stroke-dashoffset:0;stroke-opacity:1;paint-order:markers fill stroke" /></svg>