<?xml version="1.0" encoding="UTF-8" standalone="no"?>
<svg
   xmlns:osb="http://www.openswatchbook.org/uri/2009/osb"
   xmlns:dc="http://purl.org/dc/elements/1.1/"
   xmlns:cc="http://creativecommons.org/ns#"
   xmlns:rdf="http://www.w3.org/1999/02/22-rdf-syntax-ns#"
   xmlns:svg="http://www.w3.org/2000/svg"
   xmlns="http://www.w3.org/2000/svg"
   version="1.1"
   width="1024"
   height="1024"
   viewBox="0 0 1024.00 1024.00"
   enable-background="new 0 0 1024.00 1024.00"
   xml:space="preserve"
   id="svg4562"><metadata
     id="metadata4568"><rdf:RDF><cc:Work
         rdf:about=""><dc:format>image/svg+xml</dc:format><dc:type
           rdf:resource="http://purl.org/dc/dcmitype/StillImage" /><dc:title></dc:title></cc:Work></rdf:RDF></metadata><defs
     id="defs4566"><linearGradient
       osb:paint="solid"
       id="linearGradient5239"><stop
         id="stop5237"
         offset="0"
         style="stop-color:#41e7d0;stop-opacity:1;" /></linearGradient></defs><path
     cx="512"
     cy="512"
     r="448"
     id="path1995-3"
     style="fill:#d2f628;fill-opacity:1;stroke:#000000;stroke-opacity:1" /><path
     id="path10838"
     d="M 542.64453 19.773438 C 529.33095 19.783999 519.02083 20.931587 512 20.894531 C 487.03704 20.762776 424.44228 8.3628186 325.2207 80.722656 C 271.3006 122.91229 77.068359 118.16992 77.068359 118.16992 C 55.591489 539.01432 104.41933 594.13023 188.68945 726.5625 C 292.18827 889.21308 488.58882 1004.0317 512 1004.2285 C 535.41118 1004.0317 731.81173 889.21308 835.31055 726.5625 C 919.58072 594.13023 968.40844 539.01433 946.93164 118.16992 C 946.93164 118.16992 752.6994 122.9123 698.7793 80.722656 C 630.3057 27.145671 576.66812 19.746446 542.64453 19.773438 z M 448 155.84375 L 576 155.84375 L 576 654.29102 L 448 654.29102 L 448 155.84375 z M 448 741.76562 L 576 741.76562 L 576 869.76562 L 448 869.76562 L 448 741.76562 z "
     style="fill:#00bf00;fill-opacity:0.50251255;stroke:#000000;stroke-width:1px;stroke-linecap:butt;stroke-linejoin:miter;stroke-opacity:1" /></svg>