<?xml version="1.0" encoding="UTF-8" standalone="no"?>
<svg
   xmlns:dc="http://purl.org/dc/elements/1.1/"
   xmlns:cc="http://creativecommons.org/ns#"
   xmlns:rdf="http://www.w3.org/1999/02/22-rdf-syntax-ns#"
   xmlns:svg="http://www.w3.org/2000/svg"
   xmlns="http://www.w3.org/2000/svg"
   id="svg4562"
   xml:space="preserve"
   enable-background="new 0 0 1024.00 1024.00"
   viewBox="0 0 1024.00 1024.00"
   height="1024"
   width="1024"
   version="1.1"><metadata
     id="metadata4568"><rdf:RDF><cc:Work
         rdf:about=""><dc:format>image/svg+xml</dc:format><dc:type
           rdf:resource="http://purl.org/dc/dcmitype/StillImage" /><dc:title></dc:title></cc:Work></rdf:RDF></metadata><defs
     id="defs4566" /><path
     id="rect5055"
     d="M 398.39062 0 C 363.48816 0 334.39062 29.097512 334.39062 64 L 334.39062 140.64453 C 334.39062 140.86909 334.40393 141.09078 334.4082 141.31445 L 111.57617 141.31445 L 111.57617 205.31445 L 186.50977 205.31445 C 186.50975 205.33148 186.50781 205.34821 186.50781 205.36523 L 186.50781 960 C 186.50781 994.90249 215.60532 1024 250.50781 1024 L 773.49219 1024 C 808.39468 1024 837.49219 994.90249 837.49219 960 L 837.49219 205.36523 C 837.49219 205.34821 837.49025 205.33148 837.49023 205.31445 L 912.42383 205.31445 L 912.42383 141.31445 L 689.5918 141.31445 C 689.59607 141.09078 689.60936 140.86909 689.60938 140.64453 L 689.60938 64 C 689.60938 29.097512 660.51184 0 625.60938 0 L 398.39062 0 z M 398.39062 64 L 625.60938 64 L 625.60938 140.64453 L 398.39062 140.64453 L 398.39062 64 z M 250.50781 205.36523 L 773.49219 205.36523 L 773.49219 960 L 250.50781 960 L 250.50781 205.36523 z M 331.35742 367.24023 L 331.35742 798 L 395.35742 798 L 395.35742 367.24023 L 331.35742 367.24023 z M 480 367.24023 L 480 798 L 544 798 L 544 367.24023 L 480 367.24023 z M 628.64258 367.24023 L 628.64258 798 L 692.64258 798 L 692.64258 367.24023 L 628.64258 367.24023 z "
     style="color:#000000;font-style:normal;font-variant:normal;font-weight:normal;font-stretch:normal;font-size:medium;line-height:normal;font-family:sans-serif;font-variant-ligatures:normal;font-variant-position:normal;font-variant-caps:normal;font-variant-numeric:normal;font-variant-alternates:normal;font-feature-settings:normal;text-indent:0;text-align:start;text-decoration:none;text-decoration-line:none;text-decoration-style:solid;text-decoration-color:#000000;letter-spacing:normal;word-spacing:normal;text-transform:none;writing-mode:lr-tb;direction:ltr;text-orientation:mixed;dominant-baseline:auto;baseline-shift:baseline;text-anchor:start;white-space:normal;shape-padding:0;clip-rule:nonzero;display:inline;overflow:visible;visibility:visible;opacity:0.98999999;isolation:auto;mix-blend-mode:normal;color-interpolation:sRGB;color-interpolation-filters:linearRGB;solid-color:#000000;solid-opacity:1;vector-effect:none;fill:#e03232;fill-opacity:1;fill-rule:nonzero;stroke:none;stroke-width:64;stroke-linecap:butt;stroke-linejoin:miter;stroke-miterlimit:4;stroke-dasharray:none;stroke-dashoffset:0;stroke-opacity:1;color-rendering:auto;image-rendering:auto;shape-rendering:auto;text-rendering:auto;enable-background:accumulate" /><g
     transform="translate(-0.66383362)"
     id="g5122" /></svg>