<?xml version="1.0" encoding="UTF-8" standalone="no"?>
<svg
   xmlns:osb="http://www.openswatchbook.org/uri/2009/osb"
   xmlns:dc="http://purl.org/dc/elements/1.1/"
   xmlns:cc="http://creativecommons.org/ns#"
   xmlns:rdf="http://www.w3.org/1999/02/22-rdf-syntax-ns#"
   xmlns:svg="http://www.w3.org/2000/svg"
   xmlns="http://www.w3.org/2000/svg"
   version="1.1"
   width="1024"
   height="1024"
   viewBox="0 0 1024.00 1024.00"
   enable-background="new 0 0 1024.00 1024.00"
   xml:space="preserve"
   id="svg4562"><metadata
     id="metadata4568"><rdf:RDF><cc:Work
         rdf:about=""><dc:format>image/svg+xml</dc:format><dc:type
           rdf:resource="http://purl.org/dc/dcmitype/StillImage" /><dc:title></dc:title></cc:Work></rdf:RDF></metadata><defs
     id="defs4566"><linearGradient
       osb:paint="solid"
       id="linearGradient5239"><stop
         id="stop5237"
         offset="0"
         style="stop-color:#41e7d0;stop-opacity:1;" /></linearGradient></defs><path
     id="path6747"
     d="M 955.98633 67.949219 L 815.25977 208.67578 C 727.59043 151.82419 621.53347 121.05859 512 121.05859 C 377.50772 121.05859 248.25499 167.43827 151.84961 251.54492 C 55.444228 335.65158 6.4479748e-006 451.37775 0 572.58789 L 76 572.58789 C 76.000005 474.44786 120.43339 379.80983 201.8125 308.8125 C 283.19161 237.81517 395.06705 197.05664 512 197.05664 C 601.4373 197.05664 687.91544 220.90155 760.05273 263.88281 L 618.31055 405.625 A 192 192 0 0 0 511.63086 373.15234 A 192 192 0 0 0 319.63086 565.15234 A 192 192 0 0 0 352.14258 671.79297 L 127.24023 896.69531 L 186.59766 956.05078 L 413.02148 729.62695 A 192 192 0 0 0 511.63086 757.15234 A 192 192 0 0 0 703.63086 565.15234 A 192 192 0 0 0 676.12305 466.52344 L 828.34375 314.30273 C 905.80075 384.65074 948 476.95432 948 572.58789 L 1024 572.58789 C 1024 455.62796 972.37066 343.7779 882.13477 260.51172 L 1015.3418 127.30469 L 955.98633 67.949219 z "
     style="color:#000000;font-style:normal;font-variant:normal;font-weight:normal;font-stretch:normal;font-size:medium;line-height:normal;font-family:sans-serif;font-variant-ligatures:normal;font-variant-position:normal;font-variant-caps:normal;font-variant-numeric:normal;font-variant-alternates:normal;font-feature-settings:normal;text-indent:0;text-align:start;text-decoration:none;text-decoration-line:none;text-decoration-style:solid;text-decoration-color:#000000;letter-spacing:normal;word-spacing:normal;text-transform:none;writing-mode:lr-tb;direction:ltr;text-orientation:mixed;dominant-baseline:auto;baseline-shift:baseline;text-anchor:start;white-space:normal;shape-padding:0;clip-rule:nonzero;display:inline;overflow:visible;visibility:visible;opacity:1;isolation:auto;mix-blend-mode:normal;color-interpolation:sRGB;color-interpolation-filters:linearRGB;solid-color:#000000;solid-opacity:1;vector-effect:none;fill:#0000fb;fill-opacity:1;fill-rule:nonzero;stroke:none;stroke-width:75.99900055;stroke-linecap:butt;stroke-linejoin:miter;stroke-miterlimit:4;stroke-dasharray:none;stroke-dashoffset:0;stroke-opacity:1;color-rendering:auto;image-rendering:auto;shape-rendering:auto;text-rendering:auto;enable-background:accumulate" /><path
     cx="512"
     cy="512"
     r="448"
     id="path1995-3"
     style="fill:#d2f628;fill-opacity:1;stroke:#000000;stroke-opacity:1" /><text
     id="text6743"
     y="938.23425"
     x="-4.6126099"
     style="font-style:normal;font-variant:normal;font-weight:normal;font-stretch:normal;font-size:1033.22521973px;line-height:1.25;font-family:bowtie;-inkscape-font-specification:bowtie;letter-spacing:0px;word-spacing:0px;fill:none;fill-opacity:1;stroke:none;stroke-width:1;"
     xml:space="preserve"><tspan
       style="stroke-width:1;fill:none;"
       y="938.23425"
       x="-4.6126099"
       id="tspan6741"></tspan></text>
</svg>