<?xml version="1.0" encoding="UTF-8" standalone="no"?>
<svg
   xmlns:dc="http://purl.org/dc/elements/1.1/"
   xmlns:cc="http://creativecommons.org/ns#"
   xmlns:rdf="http://www.w3.org/1999/02/22-rdf-syntax-ns#"
   xmlns:svg="http://www.w3.org/2000/svg"
   xmlns="http://www.w3.org/2000/svg"
   id="svg4562"
   xml:space="preserve"
   enable-background="new 0 0 1024.00 1024.00"
   viewBox="0 0 1024.00 1024.00"
   height="1024"
   width="1024"
   version="1.1"><metadata
     id="metadata4568"><rdf:RDF><cc:Work
         rdf:about=""><dc:format>image/svg+xml</dc:format><dc:type
           rdf:resource="http://purl.org/dc/dcmitype/StillImage" /><dc:title></dc:title></cc:Work></rdf:RDF></metadata><defs
     id="defs4566" /><g
     id="g6360"><path
       id="path6356"
       d="M 606.41797 44.554688 C 419.60066 230.83112 232.7839 417.10812 45.966797 603.38477 C 171.68424 728.73828 297.40169 854.0918 423.11914 979.44531 C 608.09049 795.00976 793.06185 610.57422 978.0332 426.13867 C 977.85547 298.94401 977.67773 171.74935 977.5 44.554688 L 606.41797 44.554688 z M 632.87305 108.55469 L 913.58984 108.55469 C 913.72526 205.57357 913.86067 302.59245 913.99609 399.61133 C 750.37044 562.76302 586.74479 725.91472 423.11914 889.06641 L 136.60938 603.38477 C 302.03059 438.44141 467.45183 273.49805 632.87305 108.55469 z M 771.45312 180.42578 C 731.68863 180.42578 699.45312 212.66128 699.45312 252.42578 C 699.45312 292.19028 731.68863 324.42578 771.45312 324.42578 C 811.21762 324.42578 843.45312 292.19028 843.45312 252.42578 C 843.45312 212.66128 811.21762 180.42578 771.45312 180.42578 z "
       style="color:#000000;font-style:normal;font-variant:normal;font-weight:normal;font-stretch:normal;font-size:medium;line-height:normal;font-family:sans-serif;font-variant-ligatures:normal;font-variant-position:normal;font-variant-caps:normal;font-variant-numeric:normal;font-variant-alternates:normal;font-feature-settings:normal;text-indent:0;text-align:start;text-decoration:none;text-decoration-line:none;text-decoration-style:solid;text-decoration-color:#000000;letter-spacing:normal;word-spacing:normal;text-transform:none;writing-mode:lr-tb;direction:ltr;text-orientation:mixed;dominant-baseline:auto;baseline-shift:baseline;text-anchor:start;white-space:normal;shape-padding:0;clip-rule:nonzero;display:inline;overflow:visible;visibility:visible;opacity:1;isolation:auto;mix-blend-mode:normal;color-interpolation:sRGB;color-interpolation-filters:linearRGB;solid-color:#000000;solid-opacity:1;vector-effect:none;fill:#000000;fill-opacity:1;fill-rule:nonzero;stroke:none;stroke-width:64;stroke-linecap:butt;stroke-linejoin:miter;stroke-miterlimit:4;stroke-dasharray:none;stroke-dashoffset:0;stroke-opacity:1;color-rendering:auto;image-rendering:auto;shape-rendering:auto;text-rendering:auto;enable-background:accumulate" /></g></svg>