<?xml version="1.0" encoding="UTF-8" standalone="no"?>
<svg
   xmlns:dc="http://purl.org/dc/elements/1.1/"
   xmlns:cc="http://creativecommons.org/ns#"
   xmlns:rdf="http://www.w3.org/1999/02/22-rdf-syntax-ns#"
   xmlns:svg="http://www.w3.org/2000/svg"
   xmlns="http://www.w3.org/2000/svg"
   id="svg4562"
   xml:space="preserve"
   enable-background="new 0 0 1024.00 1024.00"
   viewBox="0 0 1024.00 1024.00"
   height="1024"
   width="1024"
   version="1.1"><metadata
     id="metadata4568"><rdf:RDF><cc:Work
         rdf:about=""><dc:format>image/svg+xml</dc:format><dc:type
           rdf:resource="http://purl.org/dc/dcmitype/StillImage" /><dc:title></dc:title></cc:Work></rdf:RDF></metadata><defs
     id="defs4566" /><g
     style="stroke-width:1.05485857"
     transform="matrix(0.94539768,0,0,0.9505983,-58.465019,117.54705)"
     id="g8114" /><g
     style="stroke-width:0.83874679"
     transform="matrix(1.192255,0,0,1.192255,-140.80285,-56.549276)"
     id="g8118" /><path
     id="path8731"
     d="M 751.06965,12.048553 A 255.57355,255.57355 0 0 0 495.49738,267.62082 255.57355,255.57355 0 0 0 506.55207,341.73605 L 56.132146,792.15597 A 128.0128,128.0128 0 1 0 237.15168,973.17551 l 456.77539,-456.7754 a 255.57355,255.57355 0 0 0 57.14258,6.79493 255.57355,255.57355 0 0 0 255.57425,-255.57422 255.57355,255.57355 0 0 0 -19.24612,-96.80469 L 799.95637,358.25754 664.1927,222.49386 853.20442,33.482147 A 255.57355,255.57355 0 0 0 751.06965,12.048553 Z"
     style="color:#000000;font-style:normal;font-variant:normal;font-weight:normal;font-stretch:normal;font-size:medium;line-height:normal;font-family:sans-serif;font-variant-ligatures:normal;font-variant-position:normal;font-variant-caps:normal;font-variant-numeric:normal;font-variant-alternates:normal;font-feature-settings:normal;text-indent:0;text-align:start;text-decoration:none;text-decoration-line:none;text-decoration-style:solid;text-decoration-color:#000000;letter-spacing:normal;word-spacing:normal;text-transform:none;writing-mode:lr-tb;direction:ltr;text-orientation:mixed;dominant-baseline:auto;baseline-shift:baseline;text-anchor:start;white-space:normal;shape-padding:0;clip-rule:nonzero;display:inline;overflow:visible;visibility:visible;opacity:1;isolation:auto;mix-blend-mode:normal;color-interpolation:sRGB;color-interpolation-filters:linearRGB;solid-color:#000000;solid-opacity:1;vector-effect:none;fill:#ec0000;fill-opacity:1;fill-rule:nonzero;stroke:none;stroke-width:256;stroke-linecap:round;stroke-linejoin:miter;stroke-miterlimit:4;stroke-dasharray:none;stroke-dashoffset:0;stroke-opacity:1;color-rendering:auto;image-rendering:auto;shape-rendering:auto;text-rendering:auto;enable-background:accumulate" /></svg>