<?xml version="1.0" encoding="UTF-8" standalone="no"?>
<svg
   xmlns:dc="http://purl.org/dc/elements/1.1/"
   xmlns:cc="http://creativecommons.org/ns#"
   xmlns:rdf="http://www.w3.org/1999/02/22-rdf-syntax-ns#"
   xmlns:svg="http://www.w3.org/2000/svg"
   xmlns="http://www.w3.org/2000/svg"
   version="1.1"
   width="1024"
   height="1024"
   viewBox="0 0 1024.00 1024.00"
   enable-background="new 0 0 1024.00 1024.00"
   xml:space="preserve"
   id="svg4"><metadata
     id="metadata10"><rdf:RDF><cc:Work
         rdf:about=""><dc:format>image/svg+xml</dc:format><dc:type
           rdf:resource="http://purl.org/dc/dcmitype/StillImage" /><dc:title></dc:title></cc:Work></rdf:RDF></metadata><defs
     id="defs8" /><path
     id="path3696"
     d="M 439.375 8.9550781 L 419.35742 12.685547 C 350.84357 25.456664 285.68791 52.183405 227.94336 91.201172 L 211.0957 102.58398 L 240.38867 234.79297 C 239.27238 235.88558 238.16358 236.98385 237.06055 238.08984 L 104.65039 207.58203 L 93.132812 224.37305 C 53.731946 281.81439 26.56355 346.74362 13.316406 415.125 L 9.4492188 435.08984 L 123.57227 507.80859 C 123.53557 508.9881 123.42043 510.1639 123.39453 511.34375 L 123.38477 511.84375 L 123.38867 512.34375 C 123.39067 512.55549 123.40941 512.76678 123.41211 512.97852 L 8.8632812 584.60547 L 12.595703 604.62891 C 25.369675 673.13177 52.101197 738.27558 91.126953 796.00977 L 102.50977 812.84961 L 234.74414 783.5625 C 235.83699 784.67864 236.93479 785.78775 238.04102 786.89062 L 207.52734 919.27734 L 224.32617 930.79492 C 281.77784 970.18772 346.71702 997.34953 415.10938 1010.5938 L 435.07031 1014.459 L 507.80078 900.35938 C 508.98285 900.39607 510.16133 900.51116 511.34375 900.53711 L 511.84375 900.54688 L 512.34375 900.54102 C 512.5581 900.53902 512.77198 900.52038 512.98633 900.51758 L 584.625 1015.0449 L 604.64258 1011.3145 C 673.15643 998.54332 738.31208 971.81657 796.05664 932.79883 L 812.9043 921.41602 L 783.61133 789.20703 C 784.72762 788.11442 785.83642 787.01615 786.93945 785.91016 L 919.34961 816.41797 L 930.86719 799.62695 C 970.26805 742.18561 997.43645 677.25638 1010.6836 608.875 L 1014.5508 588.91016 L 900.42773 516.19141 C 900.46443 515.0119 900.57957 513.8361 900.60547 512.65625 L 900.61523 512.15625 L 900.61133 511.65625 C 900.60933 511.44451 900.59059 511.23322 900.58789 511.02148 L 1015.1367 439.39453 L 1011.4043 419.37109 C 998.63016 350.86823 971.89879 285.72443 932.87305 227.99023 L 921.49023 211.15039 L 789.25586 240.4375 C 788.16301 239.32136 787.06521 238.21225 785.95898 237.10938 L 816.47266 104.72266 L 799.67383 93.205078 C 742.22216 53.812265 677.283 26.650433 608.89062 13.40625 L 588.92969 9.5410156 L 516.19922 123.64062 C 515.01715 123.60393 513.83867 123.48884 512.65625 123.46289 L 512.15625 123.45312 L 511.65625 123.45898 C 511.4419 123.46098 511.22802 123.47962 511.01367 123.48242 L 439.375 8.9550781 z M 410.58789 75.658203 L 478.88867 184.84766 L 496.5957 183.79492 C 501.66782 183.49323 506.74753 183.32029 511.82812 183.25391 C 517.8063 183.39392 523.78048 183.68469 529.74219 184.15039 L 547.63086 185.54688 L 617.18555 76.431641 C 663.77356 87.644155 708.2484 106.24341 748.94531 131.53516 L 719.96289 257.26758 L 732.90625 269.04297 C 741.29971 276.67885 749.29219 284.74303 756.85156 293.20508 L 768.51367 306.26172 L 894.18359 278.42773 C 919.21934 319.30786 937.53117 363.92242 948.42969 410.60156 L 839.2207 478.88867 L 840.27539 496.60156 C 840.57665 501.66456 840.7478 506.73322 840.81445 511.80469 C 840.67466 517.78918 840.38434 523.77028 839.91797 529.73828 L 838.51953 547.63086 L 947.65625 617.17188 C 936.44146 663.74639 917.83994 708.2086 892.54492 748.89453 L 766.78516 719.91992 L 755.01172 732.85547 C 747.3744 741.24728 739.30748 749.23696 730.84375 756.79492 L 717.7832 768.45898 L 745.62305 894.10547 C 704.7319 919.13794 660.10475 937.44554 613.41211 948.3418 L 545.11133 839.15234 L 527.4043 840.20508 C 522.33218 840.50677 517.25248 840.67971 512.17188 840.74609 C 506.19369 840.60608 500.21952 840.31531 494.25781 839.84961 L 476.36914 838.45312 L 406.81445 947.56836 C 360.22644 936.35585 315.7516 917.75658 275.05469 892.46484 L 304.03711 766.73242 L 291.09375 754.95703 C 282.70029 747.32114 274.70781 739.25697 267.14844 730.79492 L 255.48633 717.73828 L 129.81641 745.57227 C 104.78065 704.69215 86.468838 660.07758 75.570312 613.39844 L 184.7793 545.11133 L 183.72461 527.40039 C 183.42335 522.33737 183.2522 517.2668 183.18555 512.19531 C 183.32533 506.21081 183.61566 500.22972 184.08203 494.26172 L 185.48047 476.36914 L 76.34375 406.82812 C 87.55853 360.25367 106.16009 315.79137 131.45508 275.10547 L 257.21484 304.08203 L 268.98828 291.14453 C 276.62559 282.75273 284.69253 274.76304 293.15625 267.20508 L 306.2168 255.54102 L 278.37695 129.89453 C 319.26809 104.86204 363.89525 86.554475 410.58789 75.658203 z M 512 320 C 406.28621 320 320 406.28621 320 512 C 320 617.71379 406.28621 704 512 704 C 617.71379 704 704 617.71379 704 512 C 704 406.28621 617.71379 320 512 320 z M 512 374.85742 C 588.06679 374.85742 649.14258 435.93321 649.14258 512 C 649.14258 588.06679 588.06679 649.14258 512 649.14258 C 435.93321 649.14258 374.85742 588.06679 374.85742 512 C 374.85742 435.93321 435.93321 374.85742 512 374.85742 z "
     style="color:#000000;font-style:normal;font-variant:normal;font-weight:normal;font-stretch:normal;font-size:medium;line-height:normal;font-family:sans-serif;font-variant-ligatures:normal;font-variant-position:normal;font-variant-caps:normal;font-variant-numeric:normal;font-variant-alternates:normal;font-feature-settings:normal;text-indent:0;text-align:start;text-decoration:none;text-decoration-line:none;text-decoration-style:solid;text-decoration-color:#000000;letter-spacing:normal;word-spacing:normal;text-transform:none;writing-mode:lr-tb;direction:ltr;text-orientation:mixed;dominant-baseline:auto;baseline-shift:baseline;text-anchor:start;white-space:normal;shape-padding:0;clip-rule:nonzero;display:inline;overflow:visible;visibility:visible;opacity:1;isolation:auto;mix-blend-mode:normal;color-interpolation:sRGB;color-interpolation-filters:linearRGB;solid-color:#000000;solid-opacity:1;vector-effect:none;fill:#d30000;fill-opacity:1;fill-rule:nonzero;stroke:none;stroke-width:59.7812233;stroke-linecap:butt;stroke-linejoin:miter;stroke-miterlimit:4;stroke-dasharray:none;stroke-dashoffset:0;stroke-opacity:1;color-rendering:auto;image-rendering:auto;shape-rendering:auto;text-rendering:auto;enable-background:accumulate" /></svg>