<?xml version="1.0" encoding="UTF-8" standalone="no"?>
<svg
   xmlns:dc="http://purl.org/dc/elements/1.1/"
   xmlns:cc="http://creativecommons.org/ns#"
   xmlns:rdf="http://www.w3.org/1999/02/22-rdf-syntax-ns#"
   xmlns:svg="http://www.w3.org/2000/svg"
   xmlns="http://www.w3.org/2000/svg"
   version="1.1"
   width="1024"
   height="1024"
   viewBox="0 0 1024.00 1024.00"
   enable-background="new 0 0 1024.00 1024.00"
   xml:space="preserve"
   id="svg4562"><metadata
     id="metadata4568"><rdf:RDF><cc:Work
         rdf:about=""><dc:format>image/svg+xml</dc:format><dc:type
           rdf:resource="http://purl.org/dc/dcmitype/StillImage" /><dc:title></dc:title></cc:Work></rdf:RDF></metadata><defs
     id="defs4566" /><path
     id="path5179"
     d="M 705.40821,4.7500047 A 128,128 0 0 0 588.22071,81.439457 c -13.60728,-1.290166 -27.32024,-1.958984 -41.10352,-1.958984 -161.00014,0 -301.84928,87.826387 -376.75976,217.964847 l 67.24414,12.22461 c 66.03987,-100.17251 179.84248,-166.18945 309.51562,-166.18945 10.37835,0 20.70964,0.44447 30.97266,1.30273 a 128,128 0 0 0 127.31836,115.9668 128,128 0 0 0 128,-128 128,128 0 0 0 -128,-128.0000053 z M 887.64844,243.84571 838.5918,284.98243 c 50.63135,64.4753 78.52539,144.27639 78.52539,226.96289 0,97.70308 -38.94041,191.38097 -108.32617,260.50196 -11.4871,11.44326 -23.65733,22.04882 -36.40625,31.79296 a 128,128 0 0 0 -93.72851,-40.99023 128,128 0 0 0 -128,128 128,128 0 0 0 128,127.99999 128,128 0 0 0 128,-127.99999 128,128 0 0 0 -3.70703,-29.97852 c 17.99234,-13.08261 35.06109,-27.59461 51.00976,-43.48242 81.3935,-81.0829 127.1582,-191.12647 127.1582,-305.84375 0,-97.77637 -33.25245,-192.15209 -93.46875,-268.09961 z m -716.76562,126.6836 a 128,128 0 0 0 -128.000005,128 128,128 0 0 0 83.601565,119.88476 c 19.08114,74.8318 58.09119,143.88578 113.79297,199.375 65.5763,65.32606 149.97389,107.57341 240.4707,121.5293 l -6.15234,-66.05078 C 403.44735,859.1059 337.49078,824.29409 285.44532,772.44728 243.37329,730.53579 212.49876,679.59464 194.70704,624.20313 a 128,128 0 0 0 104.17578,-125.67382 128,128 0 0 0 -128,-128 z"
     style="color:#000000;font-style:normal;font-variant:normal;font-weight:normal;font-stretch:normal;font-size:medium;line-height:normal;font-family:sans-serif;font-variant-ligatures:normal;font-variant-position:normal;font-variant-caps:normal;font-variant-numeric:normal;font-variant-alternates:normal;font-feature-settings:normal;text-indent:0;text-align:start;text-decoration:none;text-decoration-line:none;text-decoration-style:solid;text-decoration-color:#000000;letter-spacing:normal;word-spacing:normal;text-transform:none;writing-mode:lr-tb;direction:ltr;text-orientation:mixed;dominant-baseline:auto;baseline-shift:baseline;text-anchor:start;white-space:normal;shape-padding:0;clip-rule:nonzero;display:inline;overflow:visible;visibility:visible;opacity:0.98999999;isolation:auto;mix-blend-mode:normal;color-interpolation:sRGB;color-interpolation-filters:linearRGB;solid-color:#000000;solid-opacity:1;vector-effect:none;fill:#d82828;fill-opacity:1;fill-rule:nonzero;stroke:none;stroke-width:63.99999619;stroke-linecap:butt;stroke-linejoin:miter;stroke-miterlimit:4;stroke-dasharray:none;stroke-dashoffset:0;stroke-opacity:1;color-rendering:auto;image-rendering:auto;shape-rendering:auto;text-rendering:auto;enable-background:accumulate" /></svg>