<?xml version="1.0" encoding="UTF-8" standalone="no"?>
<svg
   xmlns:dc="http://purl.org/dc/elements/1.1/"
   xmlns:cc="http://creativecommons.org/ns#"
   xmlns:rdf="http://www.w3.org/1999/02/22-rdf-syntax-ns#"
   xmlns:svg="http://www.w3.org/2000/svg"
   xmlns="http://www.w3.org/2000/svg"
   version="1.1"
   width="1024"
   height="1024"
   viewBox="0 0 1024.00 1024.00"
   enable-background="new 0 0 1024.00 1024.00"
   xml:space="preserve"
   id="svg4562"><metadata
   id="metadata4568"><rdf:RDF><cc:Work
       rdf:about=""><dc:format>image/svg+xml</dc:format><dc:type
         rdf:resource="http://purl.org/dc/dcmitype/StillImage" /><dc:title></dc:title></cc:Work></rdf:RDF></metadata><defs
   id="defs4566" />
	
	
<g
   transform="translate(-232,138.99991)"
   id="g2710" /><path
   id="path6344"
   d="M 338.13672 96 C 318.13672 117.33333 298.13672 138.66667 278.13672 160 L 0 160 L 0 924.47852 L 1024 924.47852 L 1024 160 L 745.86328 160 C 725.86328 138.66667 705.86328 117.33333 685.86328 96 L 338.13672 96 z M 365.86328 160 L 658.13672 160 C 678.13672 181.33333 698.13672 202.66667 718.13672 224 L 960 224 L 960 860.47852 L 64 860.47852 L 64 224 L 305.86328 224 C 325.86328 202.66667 345.86328 181.33333 365.86328 160 z M 512 283.42383 C 367.39499 283.42383 249.48242 401.3364 249.48242 545.94141 C 249.48242 690.54641 367.39499 808.45703 512 808.45703 C 656.60501 808.45703 774.51758 690.54641 774.51758 545.94141 C 774.51758 401.3364 656.60501 283.42383 512 283.42383 z M 159.2793 285.41992 A 32 32 0 0 0 127.2793 317.41992 A 32 32 0 0 0 159.2793 349.41992 A 32 32 0 0 0 191.2793 317.41992 A 32 32 0 0 0 159.2793 285.41992 z M 512 347.42383 C 622.01684 347.42383 710.51758 435.92457 710.51758 545.94141 C 710.51758 655.95824 622.01684 744.45703 512 744.45703 C 401.98316 744.45703 313.48242 655.95824 313.48242 545.94141 C 313.48242 435.92457 401.98316 347.42383 512 347.42383 z "
   style="color:#000000;font-style:normal;font-variant:normal;font-weight:normal;font-stretch:normal;font-size:medium;line-height:normal;font-family:sans-serif;font-variant-ligatures:normal;font-variant-position:normal;font-variant-caps:normal;font-variant-numeric:normal;font-variant-alternates:normal;font-feature-settings:normal;text-indent:0;text-align:start;text-decoration:none;text-decoration-line:none;text-decoration-style:solid;text-decoration-color:#000000;letter-spacing:normal;word-spacing:normal;text-transform:none;writing-mode:lr-tb;direction:ltr;text-orientation:mixed;dominant-baseline:auto;baseline-shift:baseline;text-anchor:start;white-space:normal;shape-padding:0;clip-rule:nonzero;display:inline;overflow:visible;visibility:visible;opacity:1;isolation:auto;mix-blend-mode:normal;color-interpolation:sRGB;color-interpolation-filters:linearRGB;solid-color:#000000;solid-opacity:1;vector-effect:none;fill:#000000;fill-opacity:1;fill-rule:nonzero;stroke:none;stroke-width:64;stroke-linecap:butt;stroke-linejoin:miter;stroke-miterlimit:4;stroke-dasharray:none;stroke-dashoffset:0;stroke-opacity:1;paint-order:fill markers stroke;color-rendering:auto;image-rendering:auto;shape-rendering:auto;text-rendering:auto;enable-background:accumulate" /></svg>