<?xml version="1.0" encoding="UTF-8" standalone="no"?>
<svg
   xmlns:dc="http://purl.org/dc/elements/1.1/"
   xmlns:cc="http://creativecommons.org/ns#"
   xmlns:rdf="http://www.w3.org/1999/02/22-rdf-syntax-ns#"
   xmlns:svg="http://www.w3.org/2000/svg"
   xmlns="http://www.w3.org/2000/svg"
   id="svg4562"
   xml:space="preserve"
   enable-background="new 0 0 1024.00 1024.00"
   viewBox="0 0 1024.00 1024.00"
   height="1024"
   width="1024"
   version="1.1"><metadata
     id="metadata4568"><rdf:RDF><cc:Work
         rdf:about=""><dc:format>image/svg+xml</dc:format><dc:type
           rdf:resource="http://purl.org/dc/dcmitype/StillImage" /><dc:title></dc:title></cc:Work></rdf:RDF></metadata><defs
     id="defs4566" /><path
     id="path4519"
     d="M 267.79102 0 A 244.21017 189.5946 0 0 0 354 144.37109 L 354 429.70508 A 329.16083 259.36542 0 0 0 347.42188 432.53516 A 329.16083 259.36542 0 0 0 182.8418 657.15234 L 480 657.15234 L 480 954.55859 L 480 956.51172 L 480.90039 956.51172 L 512 1024 L 543.09961 956.51172 L 544 956.51172 L 544 954.55859 L 544 657.15234 L 841.16406 657.15234 A 329.16083 259.36542 0 0 0 676.58203 432.53516 A 329.16083 259.36542 0 0 0 670 429.87695 L 670 144.28906 A 244.21017 189.5946 0 0 0 756.21289 0 L 512.00195 0 L 267.79102 0 z "
     style="opacity:0.98999999;fill:#e82323;fill-opacity:1;stroke:none;stroke-width:63.99999619;stroke-miterlimit:4;stroke-dasharray:none;stroke-opacity:1" /></svg>