<?xml version="1.0" encoding="UTF-8" standalone="no"?>
<svg
   xmlns:dc="http://purl.org/dc/elements/1.1/"
   xmlns:cc="http://creativecommons.org/ns#"
   xmlns:rdf="http://www.w3.org/1999/02/22-rdf-syntax-ns#"
   xmlns:svg="http://www.w3.org/2000/svg"
   xmlns="http://www.w3.org/2000/svg"
   version="1.1"
   width="1024"
   height="1024"
   viewBox="0 0 1024.00 1024.00"
   enable-background="new 0 0 1024.00 1024.00"
   xml:space="preserve"
   id="svg4562"><metadata
     id="metadata4568"><rdf:RDF><cc:Work
         rdf:about=""><dc:format>image/svg+xml</dc:format><dc:type
           rdf:resource="http://purl.org/dc/dcmitype/StillImage" /><dc:title></dc:title></cc:Work></rdf:RDF></metadata><defs
     id="defs4566" /><g
     id="g8114"
     transform="matrix(0.95119109,0,0,0.95642065,-5.8105565,57.667912)"
     style="stroke-width:1.04843533"><path
       style="opacity:0.98999999;fill:#e82323;fill-opacity:1;stroke:none;stroke-width:63.99999237;stroke-miterlimit:4;stroke-dasharray:none;stroke-opacity:1"
       d="M 665.12891,33.398438 A 232.93528,180.83028 45.63358 0 0 626.00781,189.33789 L 434.09375,382.30469 A 313.96444,247.37538 45.671414 0 0 427.76562,379.77148 313.96444,247.37538 45.671414 0 0 165.99414,420.375 L 357.06641,612.49414 67.908203,901.65234 37.990234,985.52539 124.59961,952.96094 410.875,666.59961 608.77734,865.5918 a 313.96444,247.37538 45.671414 0 0 40.38086,-263.21094 313.96444,247.37538 45.671414 0 0 -2.64062,-6.25 L 838.60156,402.99023 A 232.93528,180.83028 45.63358 0 0 993.63672,363.71289 L 829.38281,198.55469 Z"
       transform="matrix(1.0513135,0,0,1.045565,2.0995381,-57.641796)"
       id="path4519" /></g><g
     id="g8118"
     transform="matrix(1.192255,0,0,1.192255,-140.80285,-56.549276)"
     style="stroke-width:0.83874679" /></svg>