<?xml version="1.0" encoding="UTF-8" standalone="no"?>
<svg
   xmlns:dc="http://purl.org/dc/elements/1.1/"
   xmlns:cc="http://creativecommons.org/ns#"
   xmlns:rdf="http://www.w3.org/1999/02/22-rdf-syntax-ns#"
   xmlns:svg="http://www.w3.org/2000/svg"
   xmlns="http://www.w3.org/2000/svg"
   id="svg4562"
   xml:space="preserve"
   enable-background="new 0 0 1024.00 1024.00"
   viewBox="0 0 1024.00 1024.00"
   height="1024"
   width="1024"
   version="1.1"><metadata
     id="metadata4568"><rdf:RDF><cc:Work
         rdf:about=""><dc:format>image/svg+xml</dc:format><dc:type
           rdf:resource="http://purl.org/dc/dcmitype/StillImage" /><dc:title></dc:title></cc:Work></rdf:RDF></metadata><defs
     id="defs4566" /><g
     style="stroke-width:1.11007619"
     transform="matrix(0.90084694,0,0,0.9008313,49.981215,33.368661)"
     id="g7515"><path
       id="path4519"
       d="m 1079.5974,252.29355 -35.5677,0.0499 c -62.90995,0.0833 -121.34054,32.9061 -162.47945,86.20944 H 636.88899 C 584.41785,234.79066 490.91623,167.39136 386.9354,167.39151 H 351.41327 V 497.42738 H 21.493696 19.325591 v 0.99951 l -74.91648,34.52323 74.91648,34.52324 v 0.99951 h 2.168105 329.919574 v 328.2992 l 35.52213,-0.002 c 103.98248,-2.6e-4 197.48536,-67.4005 249.95576,-171.16568 h 244.74366 c 41.11497,53.27427 99.49873,86.09437 162.37328,86.21377 l 35.5893,0.0672 V 532.0807 Z m -71.0421,76.88211 V 532.0807 734.95755 c -29.45393,-9.59617 -57.16222,-31.10791 -79.10307,-64.4175 L 918.9261,654.55872 H 589.99302 l -8.85018,22.53561 c -0.69315,1.76497 -1.40485,3.51678 -2.12474,5.26206 -35.27872,77.27208 -93.32676,126.07275 -156.56275,139.47622 V 532.0807 242.3288 c 63.32062,13.42107 121.44501,62.32637 156.71018,139.77757 0.8306,1.88371 1.64661,3.78059 2.44561,5.68919 l 9.1277,21.80279 h 328.10488 l 10.52612,-15.98133 c 21.9623,-33.34068 49.7009,-54.85973 79.18546,-64.44136 z"
       style="color:#000000;font-style:normal;font-variant:normal;font-weight:normal;font-stretch:normal;font-size:medium;line-height:normal;font-family:sans-serif;font-variant-ligatures:normal;font-variant-position:normal;font-variant-caps:normal;font-variant-numeric:normal;font-variant-alternates:normal;font-feature-settings:normal;text-indent:0;text-align:start;text-decoration:none;text-decoration-line:none;text-decoration-style:solid;text-decoration-color:#000000;letter-spacing:normal;word-spacing:normal;text-transform:none;writing-mode:lr-tb;direction:ltr;text-orientation:mixed;dominant-baseline:auto;baseline-shift:baseline;text-anchor:start;white-space:normal;shape-padding:0;clip-rule:nonzero;display:inline;overflow:visible;visibility:visible;opacity:0.98999999;isolation:auto;mix-blend-mode:normal;color-interpolation:sRGB;color-interpolation-filters:linearRGB;solid-color:#000000;solid-opacity:1;vector-effect:none;fill:#000000;fill-opacity:1;fill-rule:nonzero;stroke:none;stroke-width:71.04486847;stroke-linecap:butt;stroke-linejoin:miter;stroke-miterlimit:4;stroke-dasharray:none;stroke-dashoffset:0;stroke-opacity:1;color-rendering:auto;image-rendering:auto;shape-rendering:auto;text-rendering:auto;enable-background:accumulate" /></g></svg>