<?xml version="1.0" encoding="UTF-8" standalone="no"?>
<svg
   xmlns:dc="http://purl.org/dc/elements/1.1/"
   xmlns:cc="http://creativecommons.org/ns#"
   xmlns:rdf="http://www.w3.org/1999/02/22-rdf-syntax-ns#"
   xmlns:svg="http://www.w3.org/2000/svg"
   xmlns="http://www.w3.org/2000/svg"
   id="svg4562"
   xml:space="preserve"
   enable-background="new 0 0 1024.00 1024.00"
   viewBox="0 0 1024.00 1024.00"
   height="1024"
   width="1024"
   version="1.1"><metadata
     id="metadata4568"><rdf:RDF><cc:Work
         rdf:about=""><dc:format>image/svg+xml</dc:format><dc:type
           rdf:resource="http://purl.org/dc/dcmitype/StillImage" /><dc:title></dc:title></cc:Work></rdf:RDF></metadata><defs
     id="defs4566" /><g
     style="stroke-width:1.11007619"
     transform="matrix(0.90084694,0,0,0.9008313,49.981215,33.368661)"
     id="g7515"><path
       id="path4519"
       transform="matrix(1.1100665,0,0,1.1100858,-55.482472,-37.042075)"
       d="M 259.17578 1.3691406 L 259.2207 33.410156 C 259.29574 90.082422 288.86355 142.71944 336.88086 179.7793 L 336.88086 400.18164 C 243.40863 447.45011 182.69323 531.68075 182.69336 625.35156 L 182.69336 657.35156 L 480 657.35156 L 480 954.55859 L 480 956.51172 L 480.90039 956.51172 L 512 1024 L 543.09961 956.51172 L 544 956.51172 L 544 954.55859 L 544 657.35156 L 839.74219 657.35156 L 839.74023 625.35156 C 839.74 531.67926 779.02375 447.44748 685.54883 400.17969 L 685.54883 179.70312 C 733.53996 142.66482 763.10533 90.069997 763.21289 33.429688 L 763.27344 1.3691406 L 511.2168 1.3691406 L 259.17578 1.3691406 z M 328.43359 65.367188 L 511.2168 65.367188 L 693.97461 65.367188 C 685.33008 91.900676 665.95163 116.8616 635.94531 136.62695 L 621.54883 146.10938 L 621.54883 442.42773 L 641.84961 450.40039 C 643.43955 451.02481 645.01764 451.66594 646.58984 452.31445 C 716.19895 484.09518 760.16012 536.38758 772.23438 593.35352 L 511.2168 593.35352 L 250.19922 593.35352 C 262.28934 536.31134 306.34476 483.95016 376.11523 452.18164 C 377.81213 451.4334 379.5209 450.6983 381.24023 449.97852 L 400.88086 441.75586 L 400.88086 146.18359 L 386.48438 136.70117 C 356.45005 116.9165 337.06502 91.928267 328.43359 65.367188 z "
       style="color:#000000;font-style:normal;font-variant:normal;font-weight:normal;font-stretch:normal;font-size:medium;line-height:normal;font-family:sans-serif;font-variant-ligatures:normal;font-variant-position:normal;font-variant-caps:normal;font-variant-numeric:normal;font-variant-alternates:normal;font-feature-settings:normal;text-indent:0;text-align:start;text-decoration:none;text-decoration-line:none;text-decoration-style:solid;text-decoration-color:#000000;letter-spacing:normal;word-spacing:normal;text-transform:none;writing-mode:lr-tb;direction:ltr;text-orientation:mixed;dominant-baseline:auto;baseline-shift:baseline;text-anchor:start;white-space:normal;shape-padding:0;clip-rule:nonzero;display:inline;overflow:visible;visibility:visible;opacity:0.98999999;isolation:auto;mix-blend-mode:normal;color-interpolation:sRGB;color-interpolation-filters:linearRGB;solid-color:#000000;solid-opacity:1;vector-effect:none;fill:#000000;fill-opacity:1;fill-rule:nonzero;stroke:none;stroke-width:63.99999619;stroke-linecap:butt;stroke-linejoin:miter;stroke-miterlimit:4;stroke-dasharray:none;stroke-dashoffset:0;stroke-opacity:1;color-rendering:auto;image-rendering:auto;shape-rendering:auto;text-rendering:auto;enable-background:accumulate" /></g></svg>