<?xml version="1.0" encoding="UTF-8" standalone="no"?>
<svg
   id="svg4"
   xml:space="preserve"
   enable-background="new 0 0 1024.00 1024.00"
   viewBox="0 0 1024.00 1024.00"
   height="1024"
   width="1024"
   version="1.1"
   xmlns="http://www.w3.org/2000/svg"
   xmlns:svg="http://www.w3.org/2000/svg"
   xmlns:rdf="http://www.w3.org/1999/02/22-rdf-syntax-ns#"
   xmlns:cc="http://creativecommons.org/ns#"
   xmlns:dc="http://purl.org/dc/elements/1.1/"><metadata
     id="metadata10"><rdf:RDF><cc:Work
         rdf:about=""><dc:format>image/svg+xml</dc:format><dc:type
           rdf:resource="http://purl.org/dc/dcmitype/StillImage" /></cc:Work></rdf:RDF></metadata><defs
     id="defs8" /><path
     id="path7091"
     style="color:#000000;fill:#00f000;-inkscape-stroke:none"
     d="M 148.08203 -0.91210938 C 148.07691 64.854686 148.07172 130.62182 148.06641 196.38867 L 212.06641 196.38867 L 212.07812 63.205078 L 591.82422 63.892578 L 593.5957 350.73828 L 886 350.73828 L 886 960 L 212.00195 960 L 212.04688 442.30273 L 148.04492 442.30273 C 148.02886 636.20172 148.01381 830.1013 147.99805 1024 L 950 1024 L 950 274.34961 C 854.63431 182.90773 759.26805 91.465313 663.90234 0.0234375 L 148.08203 -0.91210938 z M 655.92969 81.046875 L 870.44727 286.73828 L 657.20117 286.73828 L 655.92969 81.046875 z " /><path
     id="rect414"
     style="fill:#d31283;stroke-width:66.7766;stroke-linecap:round"
     d="M 0 179.3125 L 0 450.83984 L 524.27344 450.83984 L 524.27344 179.3125 L 0 179.3125 z M 36.433594 229.17773 L 92.097656 229.17773 C 113.19139 229.17773 126.94141 230.03711 133.34766 231.75586 C 143.1914 234.33398 151.4336 239.95899 158.07422 248.63086 C 164.71484 257.2246 168.03516 268.35744 168.03516 282.0293 C 168.03516 292.57616 166.12109 301.44337 162.29297 308.63086 C 158.46485 315.81835 153.58203 321.48243 147.64453 325.62305 C 141.78516 329.68554 135.80859 332.38086 129.71484 333.70898 C 121.4336 335.34961 109.44139 336.16992 93.738281 336.16992 L 71.121094 336.16992 L 71.121094 400.97461 L 36.433594 400.97461 L 36.433594 229.17773 z M 196.39453 229.17773 L 259.79297 229.17773 C 274.08983 229.17773 284.98829 230.27149 292.48828 232.45898 C 302.5664 235.42773 311.19923 240.70118 318.38672 248.2793 C 325.57421 255.85741 331.04297 265.15431 334.79297 276.16992 C 338.54296 287.10741 340.41797 300.62306 340.41797 316.7168 C 340.41797 330.85741 338.66015 343.04493 335.14453 353.2793 C 330.84766 365.77928 324.71484 375.89649 316.74609 383.63086 C 310.73047 389.49023 302.60546 394.06055 292.37109 397.3418 C 284.71485 399.76367 274.48046 400.97461 261.66797 400.97461 L 196.39453 400.97461 L 196.39453 229.17773 z M 370.06641 229.17773 L 487.83984 229.17773 L 487.83984 258.24023 L 404.75391 258.24023 L 404.75391 298.9043 L 476.47266 298.9043 L 476.47266 327.9668 L 404.75391 327.9668 L 404.75391 400.97461 L 370.06641 400.97461 L 370.06641 229.17773 z M 71.121094 258.24023 L 71.121094 306.99023 L 90.105469 306.99023 C 103.77733 306.99023 112.91797 306.0918 117.52734 304.29492 C 122.13671 302.49805 125.73047 299.68554 128.30859 295.85742 C 130.96484 292.0293 132.29297 287.57617 132.29297 282.49805 C 132.29297 276.24805 130.45703 271.09179 126.78516 267.0293 C 123.11328 262.9668 118.46484 260.42773 112.83984 259.41211 C 108.69922 258.63086 100.37889 258.24023 87.878906 258.24023 L 71.121094 258.24023 z M 231.08203 258.24023 L 231.08203 372.0293 L 256.98047 372.0293 C 266.66796 372.0293 273.66016 371.48242 277.95703 370.38867 C 283.58203 368.98242 288.23047 366.59961 291.90234 363.24023 C 295.65234 359.88086 298.69922 354.37304 301.04297 346.7168 C 303.38672 338.98243 304.55859 328.4746 304.55859 315.19336 C 304.55859 301.91212 303.38672 291.71679 301.04297 284.60742 C 298.69922 277.49805 295.41796 271.95117 291.19922 267.9668 C 286.98047 263.98243 281.6289 261.28711 275.14453 259.88086 C 270.30079 258.78711 260.80858 258.24023 246.66797 258.24023 L 231.08203 258.24023 z " /><path
     id="rect1200"
     style="fill:#d3da83;stroke-width:64;stroke-linecap:round"
     d="M 603.64258,600 V 747.98633 H 486.70312 L 667.64258,928.92578 848.58203,747.98633 H 731.64258 V 600 Z" /></svg>
