<?xml version="1.0" encoding="UTF-8" standalone="no"?>
<svg
   xmlns:dc="http://purl.org/dc/elements/1.1/"
   xmlns:cc="http://creativecommons.org/ns#"
   xmlns:rdf="http://www.w3.org/1999/02/22-rdf-syntax-ns#"
   xmlns:svg="http://www.w3.org/2000/svg"
   xmlns="http://www.w3.org/2000/svg"
   version="1.1"
   width="1024"
   height="1024"
   viewBox="0 0 1024.00 1024.00"
   enable-background="new 0 0 1024.00 1024.00"
   xml:space="preserve"
   id="svg4562"><metadata
     id="metadata4568"><rdf:RDF><cc:Work
         rdf:about=""><dc:format>image/svg+xml</dc:format><dc:type
           rdf:resource="http://purl.org/dc/dcmitype/StillImage" /><dc:title></dc:title></cc:Work></rdf:RDF></metadata><defs
     id="defs4566" /><path
     id="rect4643"
     d="M 0 78.265625 L 0 282.26562 L 204 282.26562 L 204 78.265625 L 0 78.265625 z M 364.35352 151.54883 L 364.35352 215.54883 L 1024 215.54883 L 1024 151.54883 L 364.35352 151.54883 z M 0 449.13281 L 0 653.13281 L 204 653.13281 L 204 449.13281 L 0 449.13281 z M 364.35352 516.54883 L 364.35352 580.54883 L 1024 580.54883 L 1024 516.54883 L 364.35352 516.54883 z M 0 820 L 0 1024 L 204 1024 L 204 820 L 0 820 z M 364.35352 881.54688 L 364.35352 945.54688 L 1024 945.54688 L 1024 881.54688 L 364.35352 881.54688 z "
     style="opacity:0.98999999;fill:#f53468;fill-opacity:1;stroke:none;stroke-width:64;stroke-miterlimit:4;stroke-dasharray:none;stroke-opacity:1" /></svg>