<?xml version="1.0" encoding="UTF-8" standalone="no"?>
<svg
   xmlns:dc="http://purl.org/dc/elements/1.1/"
   xmlns:cc="http://creativecommons.org/ns#"
   xmlns:rdf="http://www.w3.org/1999/02/22-rdf-syntax-ns#"
   xmlns:svg="http://www.w3.org/2000/svg"
   xmlns="http://www.w3.org/2000/svg"
   version="1.1"
   width="1024"
   height="1024"
   viewBox="0 0 1024.00 1024.00"
   enable-background="new 0 0 1024.00 1024.00"
   xml:space="preserve"
   id="svg4"><metadata
     id="metadata10"><rdf:RDF><cc:Work
         rdf:about=""><dc:format>image/svg+xml</dc:format><dc:type
           rdf:resource="http://purl.org/dc/dcmitype/StillImage" /><dc:title></dc:title></cc:Work></rdf:RDF></metadata><defs
     id="defs8" /><path
     id="path7085"
     d="m 128.07972,35.22457 1.70773,959.74403"
     style="fill:none;stroke:#000000;stroke-width:1px;stroke-linecap:butt;stroke-linejoin:miter;stroke-opacity:1" /><path
     id="path7091"
     d="M 148.08203 -0.91210938 C 148.06656 197.81966 148.04976 396.55143 148.0332 595.2832 L 212.04297 467.26172 L 212.07812 63.205078 L 591.82422 63.892578 L 593.5957 350.73828 L 886 350.73828 L 886 960 L 676.02344 960 L 708.02344 1024 L 950 1024 L 950 274.34961 C 854.63411 182.90755 759.26823 91.465495 663.90234 0.0234375 L 148.08203 -0.91210938 z M 655.92969 81.046875 L 870.44727 286.73828 L 657.20117 286.73828 L 655.92969 81.046875 z M 320.01562 379.02734 L 0 1024 L 51.599609 1024 L 640.0332 1024 L 320.01562 379.02734 z M 320.01562 523.01953 L 536.83398 960 L 103.19922 960 L 320.01562 523.01953 z M 287.88477 644.56055 L 287.88477 830 L 351.88477 830 L 351.88477 644.56055 L 287.88477 644.56055 z M 287.88477 862 L 287.88477 926 L 351.88477 926 L 351.88477 862 L 287.88477 862 z "
     style="color:#000000;font-style:normal;font-variant:normal;font-weight:normal;font-stretch:normal;font-size:medium;line-height:normal;font-family:sans-serif;font-variant-ligatures:normal;font-variant-position:normal;font-variant-caps:normal;font-variant-numeric:normal;font-variant-alternates:normal;font-feature-settings:normal;text-indent:0;text-align:start;text-decoration:none;text-decoration-line:none;text-decoration-style:solid;text-decoration-color:#000000;letter-spacing:normal;word-spacing:normal;text-transform:none;writing-mode:lr-tb;direction:ltr;text-orientation:mixed;dominant-baseline:auto;baseline-shift:baseline;text-anchor:start;white-space:normal;shape-padding:0;clip-rule:nonzero;display:inline;overflow:visible;visibility:visible;opacity:1;isolation:auto;mix-blend-mode:normal;color-interpolation:sRGB;color-interpolation-filters:linearRGB;solid-color:#000000;solid-opacity:1;vector-effect:none;fill:#00f000;fill-opacity:1;fill-rule:nonzero;stroke:none;stroke-width:64;stroke-linecap:butt;stroke-linejoin:miter;stroke-miterlimit:4;stroke-dasharray:none;stroke-dashoffset:0;stroke-opacity:1;color-rendering:auto;image-rendering:auto;shape-rendering:auto;text-rendering:auto;enable-background:accumulate" /></svg>