<?xml version="1.0" encoding="UTF-8" standalone="no"?>
<svg
   xmlns:dc="http://purl.org/dc/elements/1.1/"
   xmlns:cc="http://creativecommons.org/ns#"
   xmlns:rdf="http://www.w3.org/1999/02/22-rdf-syntax-ns#"
   xmlns:svg="http://www.w3.org/2000/svg"
   xmlns="http://www.w3.org/2000/svg"
   version="1.1"
   width="1024"
   height="1024"
   viewBox="0 0 1024.00 1024.00"
   enable-background="new 0 0 1024.00 1024.00"
   xml:space="preserve"
   id="svg4"><metadata
     id="metadata10"><rdf:RDF><cc:Work
         rdf:about=""><dc:format>image/svg+xml</dc:format><dc:type
           rdf:resource="http://purl.org/dc/dcmitype/StillImage" /><dc:title></dc:title></cc:Work></rdf:RDF></metadata><defs
     id="defs8" /><path
     id="path7091"
     d="m 37.147461,0 c -0.0266,341.33336 -0.05621,682.66671 -0.08398,1024 H 839.06543 v -64 h -64 v 0.0566 H 101.06738 l 0.0762,-895.996093 379.7461,0.685547 c 0.32806,53.073966 0.65631,106.148686 0.98437,159.222656 h 64 C 545.581,176.60794 545.28814,129.24752 544.99511,81.886719 L 693.30566,223.96875 h 92.47266 C 708.17475,149.6244 630.57134,75.279902 552.96777,0.93554688 Z M 329.54785,292.27734 v 32 549.44336 H 986.93652 V 292.27734 Z m 64,64 H 922.93652 V 757.79883 L 768.5459,609.02148 698.52832,680.74609 548.24902,533.88086 393.54785,688.58203 Z m 409.15234,80.26368 a 42.693241,42.693241 0 0 0 -42.69336,42.69336 42.693241,42.693241 0 0 0 42.69336,42.69335 42.693241,42.693241 0 0 0 42.69336,-42.69335 42.693241,42.693241 0 0 0 -42.69336,-42.69336 z"
     style="color:#000000;font-style:normal;font-variant:normal;font-weight:normal;font-stretch:normal;font-size:medium;line-height:normal;font-family:sans-serif;font-variant-ligatures:normal;font-variant-position:normal;font-variant-caps:normal;font-variant-numeric:normal;font-variant-alternates:normal;font-feature-settings:normal;text-indent:0;text-align:start;text-decoration:none;text-decoration-line:none;text-decoration-style:solid;text-decoration-color:#000000;letter-spacing:normal;word-spacing:normal;text-transform:none;writing-mode:lr-tb;direction:ltr;text-orientation:mixed;dominant-baseline:auto;baseline-shift:baseline;text-anchor:start;white-space:normal;shape-padding:0;clip-rule:nonzero;display:inline;overflow:visible;visibility:visible;opacity:1;isolation:auto;mix-blend-mode:normal;color-interpolation:sRGB;color-interpolation-filters:linearRGB;solid-color:#000000;solid-opacity:1;vector-effect:none;fill:#00f000;fill-opacity:1;fill-rule:nonzero;stroke:none;stroke-width:64;stroke-linecap:butt;stroke-linejoin:miter;stroke-miterlimit:4;stroke-dasharray:none;stroke-dashoffset:0;stroke-opacity:1;color-rendering:auto;image-rendering:auto;shape-rendering:auto;text-rendering:auto;enable-background:accumulate" /></svg>