<?xml version="1.0" encoding="UTF-8" standalone="no"?>
<svg
   xmlns:dc="http://purl.org/dc/elements/1.1/"
   xmlns:cc="http://creativecommons.org/ns#"
   xmlns:rdf="http://www.w3.org/1999/02/22-rdf-syntax-ns#"
   xmlns:svg="http://www.w3.org/2000/svg"
   xmlns="http://www.w3.org/2000/svg"
   version="1.1"
   width="1024"
   height="1024"
   viewBox="0 0 1024.00 1024.00"
   enable-background="new 0 0 1024.00 1024.00"
   xml:space="preserve"
   id="svg4"><metadata
     id="metadata10"><rdf:RDF><cc:Work
         rdf:about=""><dc:format>image/svg+xml</dc:format><dc:type
           rdf:resource="http://purl.org/dc/dcmitype/StillImage" /><dc:title></dc:title></cc:Work></rdf:RDF></metadata><defs
     id="defs8" /><path
     id="path7091"
     d="M 148.08203 -0.91210938 L 148.08008 31.142578 L 148.04102 511.68164 L 212.03906 511.68164 L 212.07812 63.205078 L 591.82422 63.892578 L 593.5957 350.73828 L 886 350.73828 L 886 960 L 362.03906 960 L 362.03906 1024 L 950 1024 L 950 274.34961 L 663.90234 0.0234375 L 148.08203 -0.91210938 z M 655.92969 81.046875 L 870.44727 286.73828 L 657.20117 286.73828 L 655.92969 81.046875 z M 438.79883 472.39062 C 340.03986 472.39062 260.02148 554.73246 260.02148 654.58203 C 260.02148 692.24382 271.41066 727.41025 290.89062 756.61133 L 78.123047 969.37891 L 123.37695 1014.6328 L 335.16406 802.8457 C 364.39492 824.16929 400.162 836.77344 438.79883 836.77344 C 537.5578 836.77344 617.57422 754.4316 617.57422 654.58203 C 617.57422 554.73246 537.5578 472.39065 438.79883 472.39062 z M 438.79883 536.39062 C 502.16477 536.39062 553.57422 588.53407 553.57422 654.58203 C 553.57422 720.63 502.16477 772.77344 438.79883 772.77344 C 375.43288 772.77344 324.02148 720.63 324.02148 654.58203 C 324.02148 588.53407 375.43288 536.39064 438.79883 536.39062 z "
     style="color:#000000;font-style:normal;font-variant:normal;font-weight:normal;font-stretch:normal;font-size:medium;line-height:normal;font-family:sans-serif;font-variant-ligatures:normal;font-variant-position:normal;font-variant-caps:normal;font-variant-numeric:normal;font-variant-alternates:normal;font-feature-settings:normal;text-indent:0;text-align:start;text-decoration:none;text-decoration-line:none;text-decoration-style:solid;text-decoration-color:#000000;letter-spacing:normal;word-spacing:normal;text-transform:none;writing-mode:lr-tb;direction:ltr;text-orientation:mixed;dominant-baseline:auto;baseline-shift:baseline;text-anchor:start;white-space:normal;shape-padding:0;clip-rule:nonzero;display:inline;overflow:visible;visibility:visible;opacity:1;isolation:auto;mix-blend-mode:normal;color-interpolation:sRGB;color-interpolation-filters:linearRGB;solid-color:#000000;solid-opacity:1;vector-effect:none;fill:#00f000;fill-opacity:1;fill-rule:nonzero;stroke:none;stroke-width:64;stroke-linecap:butt;stroke-linejoin:miter;stroke-miterlimit:4;stroke-dasharray:none;stroke-dashoffset:0;stroke-opacity:1;color-rendering:auto;image-rendering:auto;shape-rendering:auto;text-rendering:auto;enable-background:accumulate" /></svg>