<?xml version="1.0" encoding="UTF-8" standalone="no"?>
<svg
   xmlns:dc="http://purl.org/dc/elements/1.1/"
   xmlns:cc="http://creativecommons.org/ns#"
   xmlns:rdf="http://www.w3.org/1999/02/22-rdf-syntax-ns#"
   xmlns:svg="http://www.w3.org/2000/svg"
   xmlns="http://www.w3.org/2000/svg"
   version="1.1"
   width="1024"
   height="1024"
   viewBox="0 0 1024.00 1024.00"
   enable-background="new 0 0 1024.00 1024.00"
   xml:space="preserve"
   id="svg4"><metadata
     id="metadata10"><rdf:RDF><cc:Work
         rdf:about=""><dc:format>image/svg+xml</dc:format><dc:type
           rdf:resource="http://purl.org/dc/dcmitype/StillImage" /><dc:title></dc:title></cc:Work></rdf:RDF></metadata><defs
     id="defs8" /><path
     id="path7091"
     d="M 148.08203 -0.91210938 C 148.07241 122.70508 148.06096 246.32227 148.05078 369.93945 L 212.05273 369.93945 L 212.07812 63.205078 L 591.82422 63.892578 C 592.41471 159.50781 593.00521 255.12305 593.5957 350.73828 L 886 350.73828 L 886 960 L 693.33789 960 L 693.33789 1024 L 950 1024 L 950 274.34961 C 854.63411 182.90755 759.26823 91.465495 663.90234 0.0234375 L 148.08203 -0.91210938 z M 655.92969 81.046875 C 727.43555 149.61068 798.94141 218.17448 870.44727 286.73828 L 657.20117 286.73828 C 656.77734 218.17448 656.35352 149.61068 655.92969 81.046875 z M 32 442.55859 L 32 1024 L 618 1024 L 618 442.55859 L 32 442.55859 z M 96 506.55859 L 554 506.55859 L 554 960 L 96 960 L 96 506.55859 z M 160 587.71484 L 160 651.71484 L 359.0293 651.71484 L 160 850.74609 L 205.25391 896 L 407.33398 693.92188 L 407.33398 896 L 471.33398 896 L 472.51367 587.71484 L 160 587.71484 z "
     style="color:#000000;font-style:normal;font-variant:normal;font-weight:normal;font-stretch:normal;font-size:medium;line-height:normal;font-family:sans-serif;font-variant-ligatures:normal;font-variant-position:normal;font-variant-caps:normal;font-variant-numeric:normal;font-variant-alternates:normal;font-feature-settings:normal;text-indent:0;text-align:start;text-decoration:none;text-decoration-line:none;text-decoration-style:solid;text-decoration-color:#000000;letter-spacing:normal;word-spacing:normal;text-transform:none;writing-mode:lr-tb;direction:ltr;text-orientation:mixed;dominant-baseline:auto;baseline-shift:baseline;text-anchor:start;white-space:normal;shape-padding:0;clip-rule:nonzero;display:inline;overflow:visible;visibility:visible;opacity:1;isolation:auto;mix-blend-mode:normal;color-interpolation:sRGB;color-interpolation-filters:linearRGB;solid-color:#000000;solid-opacity:1;vector-effect:none;fill:#00f000;fill-opacity:1;fill-rule:nonzero;stroke:none;stroke-width:64;stroke-linecap:butt;stroke-linejoin:miter;stroke-miterlimit:4;stroke-dasharray:none;stroke-dashoffset:0;stroke-opacity:1;color-rendering:auto;image-rendering:auto;shape-rendering:auto;text-rendering:auto;enable-background:accumulate" /></svg>