<?xml version="1.0" encoding="UTF-8" standalone="no"?>
<svg
   xmlns:dc="http://purl.org/dc/elements/1.1/"
   xmlns:cc="http://creativecommons.org/ns#"
   xmlns:rdf="http://www.w3.org/1999/02/22-rdf-syntax-ns#"
   xmlns:svg="http://www.w3.org/2000/svg"
   xmlns="http://www.w3.org/2000/svg"
   version="1.1"
   width="1024"
   height="1024"
   viewBox="0 0 1024.00 1024.00"
   enable-background="new 0 0 1024.00 1024.00"
   xml:space="preserve"
   id="svg4"><metadata
     id="metadata10"><rdf:RDF><cc:Work
         rdf:about=""><dc:format>image/svg+xml</dc:format><dc:type
           rdf:resource="http://purl.org/dc/dcmitype/StillImage" /><dc:title></dc:title></cc:Work></rdf:RDF></metadata><defs
     id="defs8" /><path
     id="path7091"
     d="M 111.08398 0 C 111.05738 341.33336 111.02585 682.66671 110.99805 1024 L 913.00195 1024 L 913.00195 275.01758 C 817.63608 183.65689 722.27019 92.296233 626.9043 0.93554688 L 111.08398 0 z M 175.08008 64.060547 L 554.82617 64.746094 C 555.41666 160.27624 556.00717 255.80774 556.59766 351.33789 L 849.00195 351.33789 L 849.00195 960.05664 L 175.00391 960.05664 L 175.08008 64.060547 z M 618.93164 81.886719 L 833.44922 287.39453 L 620.20312 287.39453 C 619.7793 218.89174 619.35547 150.38951 618.93164 81.886719 z M 512 393.2793 C 415.17691 393.2793 336 472.45621 336 569.2793 C 336 624.78891 362.03071 674.48981 402.48438 706.80469 C 322.03785 744.07672 266.00001 821.07155 266 910.84375 L 330.60352 910.84375 C 330.60352 820.73478 410.31768 746.24609 512 746.24609 C 613.68232 746.2461 693.39648 820.73478 693.39648 910.84375 L 758 910.84375 C 758 821.07155 701.96215 744.07672 621.51562 706.80469 C 661.96929 674.48981 688 624.78891 688 569.2793 C 688 472.45621 608.82309 393.2793 512 393.2793 z M 512 457.2793 C 574.23492 457.2793 624 507.04438 624 569.2793 C 624 631.51422 574.23492 681.2793 512 681.2793 C 449.76508 681.2793 400 631.51422 400 569.2793 C 400 507.04438 449.76508 457.2793 512 457.2793 z "
     style="color:#000000;font-style:normal;font-variant:normal;font-weight:normal;font-stretch:normal;font-size:medium;line-height:normal;font-family:sans-serif;font-variant-ligatures:normal;font-variant-position:normal;font-variant-caps:normal;font-variant-numeric:normal;font-variant-alternates:normal;font-feature-settings:normal;text-indent:0;text-align:start;text-decoration:none;text-decoration-line:none;text-decoration-style:solid;text-decoration-color:#000000;letter-spacing:normal;word-spacing:normal;text-transform:none;writing-mode:lr-tb;direction:ltr;text-orientation:mixed;dominant-baseline:auto;baseline-shift:baseline;text-anchor:start;white-space:normal;shape-padding:0;clip-rule:nonzero;display:inline;overflow:visible;visibility:visible;opacity:1;isolation:auto;mix-blend-mode:normal;color-interpolation:sRGB;color-interpolation-filters:linearRGB;solid-color:#000000;solid-opacity:1;vector-effect:none;fill:#00f000;fill-opacity:1;fill-rule:nonzero;stroke:none;stroke-width:64;stroke-linecap:butt;stroke-linejoin:miter;stroke-miterlimit:4;stroke-dasharray:none;stroke-dashoffset:0;stroke-opacity:1;color-rendering:auto;image-rendering:auto;shape-rendering:auto;text-rendering:auto;enable-background:accumulate" /><g
     style="stroke:#de0000;stroke-width:83.28759766;stroke-miterlimit:4;stroke-dasharray:none;stroke-opacity:1"
     transform="matrix(0.77567103,0,0,0.76124015,-65.123581,408.82869)"
     id="g2710" /></svg>