<?xml version="1.0" encoding="UTF-8" standalone="no"?>
<svg
   xmlns:dc="http://purl.org/dc/elements/1.1/"
   xmlns:cc="http://creativecommons.org/ns#"
   xmlns:rdf="http://www.w3.org/1999/02/22-rdf-syntax-ns#"
   xmlns:svg="http://www.w3.org/2000/svg"
   xmlns="http://www.w3.org/2000/svg"
   id="svg4"
   xml:space="preserve"
   enable-background="new 0 0 1024.00 1024.00"
   viewBox="0 0 1024.00 1024.00"
   height="1024"
   width="1024"
   version="1.1"><metadata
     id="metadata10"><rdf:RDF><cc:Work
         rdf:about=""><dc:format>image/svg+xml</dc:format><dc:type
           rdf:resource="http://purl.org/dc/dcmitype/StillImage" /><dc:title></dc:title></cc:Work></rdf:RDF></metadata><defs
     id="defs8" /><path
     style="color:#000000;font-style:normal;font-variant:normal;font-weight:normal;font-stretch:normal;font-size:medium;line-height:normal;font-family:sans-serif;font-variant-ligatures:normal;font-variant-position:normal;font-variant-caps:normal;font-variant-numeric:normal;font-variant-alternates:normal;font-feature-settings:normal;text-indent:0;text-align:start;text-decoration:none;text-decoration-line:none;text-decoration-style:solid;text-decoration-color:#000000;letter-spacing:normal;word-spacing:normal;text-transform:none;writing-mode:lr-tb;direction:ltr;text-orientation:mixed;dominant-baseline:auto;baseline-shift:baseline;text-anchor:start;white-space:normal;shape-padding:0;clip-rule:nonzero;display:inline;overflow:visible;visibility:visible;opacity:1;isolation:auto;mix-blend-mode:normal;color-interpolation:sRGB;color-interpolation-filters:linearRGB;solid-color:#000000;solid-opacity:1;vector-effect:none;fill:#00f000;fill-opacity:1;fill-rule:nonzero;stroke:none;stroke-width:64;stroke-linecap:butt;stroke-linejoin:miter;stroke-miterlimit:4;stroke-dasharray:none;stroke-dashoffset:0;stroke-opacity:1;color-rendering:auto;image-rendering:auto;shape-rendering:auto;text-rendering:auto;enable-background:accumulate"
     d="M 148.08203 -0.91210938 L 148.08008 31.142578 L 148.05273 360.77734 A 384 384 0 0 1 212.05469 335.73047 L 212.07812 63.205078 L 591.82422 63.892578 L 593.5957 350.73828 L 886 350.73828 L 886 960 L 605.66797 960 A 384 384 0 0 1 531.8457 1024 L 950 1024 L 950 274.34961 L 663.90234 0.0234375 L 148.08203 -0.91210938 z M 655.92969 81.046875 L 870.44727 286.73828 L 657.20117 286.73828 L 655.92969 81.046875 z M 320 384 C 143.64791 384 0 527.64791 0 704 C 0 880.35209 143.64791 1024 320 1024 C 496.35209 1024 640 880.35209 640 704 C 640 527.64791 496.35209 384 320 384 z M 320 448 C 461.76392 448 576 562.23608 576 704 C 576 845.76392 461.76392 960 320 960 C 178.23608 960 64 845.76392 64 704 C 64 562.23608 178.23608 448 320 448 z M 481.1582 574.88086 L 287.32031 768.71875 L 163.51758 644.91797 L 118.26367 690.17383 L 287.32031 859.23047 C 367.01625 779.53058 446.71624 699.83473 526.41406 620.13672 L 481.1582 574.88086 z "
     id="path7091" /></svg>