<?xml version="1.0" encoding="UTF-8" standalone="no"?>
<svg
   xmlns:dc="http://purl.org/dc/elements/1.1/"
   xmlns:cc="http://creativecommons.org/ns#"
   xmlns:rdf="http://www.w3.org/1999/02/22-rdf-syntax-ns#"
   xmlns:svg="http://www.w3.org/2000/svg"
   xmlns="http://www.w3.org/2000/svg"
   version="1.1"
   width="1024"
   height="1024"
   viewBox="0 0 1024.00 1024.00"
   enable-background="new 0 0 1024.00 1024.00"
   xml:space="preserve"
   id="svg4"><metadata
     id="metadata10"><rdf:RDF><cc:Work
         rdf:about=""><dc:format>image/svg+xml</dc:format><dc:type
           rdf:resource="http://purl.org/dc/dcmitype/StillImage" /><dc:title></dc:title></cc:Work></rdf:RDF></metadata><defs
     id="defs8" /><path
     id="path5138"
     d="M 512 0 C 376.22145 0 245.97087 53.951003 149.96094 149.96094 C 53.951003 245.97087 0 376.22145 0 512 C 0 647.77855 53.951003 778.02913 149.96094 874.03906 C 245.97087 970.049 376.22145 1024 512 1024 C 647.77855 1024 778.02913 970.049 874.03906 874.03906 C 970.049 778.02913 1024 647.77855 1024 512 C 1024 376.22145 970.049 245.97087 874.03906 149.96094 C 778.02913 53.951003 647.77855 0 512 0 z M 512 64 C 630.82928 64 744.75821 111.19181 828.7832 195.2168 C 912.80819 279.24179 960 393.17072 960 512 C 960 630.82928 912.80819 744.75821 828.7832 828.7832 C 744.75821 912.80819 630.82928 960 512 960 C 393.17072 960 279.24179 912.80819 195.2168 828.7832 C 111.19181 744.75821 64 630.82928 64 512 C 64 393.17072 111.19181 279.24179 195.2168 195.2168 C 279.24179 111.19181 393.17072 64 512 64 z M 263.54688 318.79297 L 263.54688 574.79297 L 386.11328 574.79297 L 386.11328 510.79297 L 327.54688 510.79297 L 327.54688 382.79297 L 590.79297 385.20703 L 590.79297 318.79297 L 263.54688 318.79297 z M 450.11328 449.20703 L 450.11328 710.03711 L 779.77344 710.03711 L 779.77344 449.20703 L 450.11328 449.20703 z M 514.11328 513.20703 L 715.77344 513.20703 L 715.77344 646.03711 L 514.11328 646.03711 L 514.11328 513.20703 z "
     style="color:#000000;font-style:normal;font-variant:normal;font-weight:normal;font-stretch:normal;font-size:medium;line-height:normal;font-family:sans-serif;font-variant-ligatures:normal;font-variant-position:normal;font-variant-caps:normal;font-variant-numeric:normal;font-variant-alternates:normal;font-feature-settings:normal;text-indent:0;text-align:start;text-decoration:none;text-decoration-line:none;text-decoration-style:solid;text-decoration-color:#000000;letter-spacing:normal;word-spacing:normal;text-transform:none;writing-mode:lr-tb;direction:ltr;text-orientation:mixed;dominant-baseline:auto;baseline-shift:baseline;text-anchor:start;white-space:normal;shape-padding:0;clip-rule:nonzero;display:inline;overflow:visible;visibility:visible;opacity:0.98999999;isolation:auto;mix-blend-mode:normal;color-interpolation:sRGB;color-interpolation-filters:linearRGB;solid-color:#000000;solid-opacity:1;vector-effect:none;fill:#0052c9;fill-opacity:1;fill-rule:nonzero;stroke:none;stroke-width:64;stroke-linecap:square;stroke-linejoin:bevel;stroke-miterlimit:4;stroke-dasharray:none;stroke-dashoffset:0;stroke-opacity:1;paint-order:markers fill stroke;color-rendering:auto;image-rendering:auto;shape-rendering:auto;text-rendering:auto;enable-background:accumulate" /></svg>