<?xml version="1.0" encoding="UTF-8" standalone="no"?>
<svg
   xmlns:dc="http://purl.org/dc/elements/1.1/"
   xmlns:cc="http://creativecommons.org/ns#"
   xmlns:rdf="http://www.w3.org/1999/02/22-rdf-syntax-ns#"
   xmlns:svg="http://www.w3.org/2000/svg"
   xmlns="http://www.w3.org/2000/svg"
   version="1.1"
   width="1024"
   height="1024"
   viewBox="0 0 1024.00 1024.00"
   enable-background="new 0 0 1024.00 1024.00"
   xml:space="preserve"
   id="svg4562"><metadata
     id="metadata4568"><rdf:RDF><cc:Work
         rdf:about=""><dc:format>image/svg+xml</dc:format><dc:type
           rdf:resource="http://purl.org/dc/dcmitype/StillImage" /><dc:title></dc:title></cc:Work></rdf:RDF></metadata><defs
     id="defs4566" /><path
     id="path5068"
     d="M 511.60352,0.11523438 C 330.65033,-2.9364634 151.87977,96.517158 60.931641,253.31641 c 0,-60.84831 0,-121.69662 0,-182.544926 -21.333333,0 -42.666667,0 -64.0000004,0 0,97.860676 0,195.721356 0,293.582036 97.8606764,0 195.7213494,0 293.5820294,0 0,-21.33333 0,-42.66667 0,-64 -60.90104,0 -121.80208,0 -182.70312,0 C 198.75659,126.40082 411.24229,30.311131 602.15027,74.129846 790.00715,110.77943 942.73865,278.74361 957.99642,470.05328 978.65087,657.75007 864.3803,848.64693 690.71154,921.61708 514.7715,1001.6164 291.2529,953.35883 165.35126,806.31526 121.51216,756.65749 89.012873,697.08188 70.96875,633.34766 50.449219,639.1836 29.929687,645.01953 9.4101562,650.85547 66.367651,862.87164 272.59031,1020.4928 491.48903,1023.7883 699.17873,1032.4458 904.56557,903.13767 983.64152,710.26893 1067.5578,519.92252 1016.7378,281.95868 863.54766,141.50393 769.59585,52.023873 641.20698,0.96124184 511.60352,0.11523438 Z M 449.69531,217.5625 c 0,105.01953 0,210.03906 0,315.05859 65.13151,71.66211 130.26302,143.32422 195.39453,214.98633 15.78711,-14.34831 31.57422,-28.69661 47.36133,-43.04492 C 632.86588,639.0026 573.2806,573.44271 513.69531,507.88281 c 0,-96.77344 0,-193.54687 0,-290.32031 -21.33333,0 -42.66667,0 -64,0 z"
     style="color:#000000;font-style:normal;font-variant:normal;font-weight:normal;font-stretch:normal;font-size:medium;line-height:normal;font-family:sans-serif;font-variant-ligatures:normal;font-variant-position:normal;font-variant-caps:normal;font-variant-numeric:normal;font-variant-alternates:normal;font-feature-settings:normal;text-indent:0;text-align:start;text-decoration:none;text-decoration-line:none;text-decoration-style:solid;text-decoration-color:#000000;letter-spacing:normal;word-spacing:normal;text-transform:none;writing-mode:lr-tb;direction:ltr;text-orientation:mixed;dominant-baseline:auto;baseline-shift:baseline;text-anchor:start;white-space:normal;shape-padding:0;clip-rule:nonzero;display:inline;overflow:visible;visibility:visible;opacity:0.98999999;isolation:auto;mix-blend-mode:normal;color-interpolation:sRGB;color-interpolation-filters:linearRGB;solid-color:#000000;solid-opacity:1;vector-effect:none;fill:#d82828;fill-opacity:1;fill-rule:nonzero;stroke:none;stroke-width:63.99999619;stroke-linecap:butt;stroke-linejoin:miter;stroke-miterlimit:4;stroke-dasharray:none;stroke-dashoffset:0;stroke-opacity:1;color-rendering:auto;image-rendering:auto;shape-rendering:auto;text-rendering:auto;enable-background:accumulate" /></svg>