<?xml version="1.0" encoding="UTF-8" standalone="no"?>
<svg
   xmlns:dc="http://purl.org/dc/elements/1.1/"
   xmlns:cc="http://creativecommons.org/ns#"
   xmlns:rdf="http://www.w3.org/1999/02/22-rdf-syntax-ns#"
   xmlns:svg="http://www.w3.org/2000/svg"
   xmlns="http://www.w3.org/2000/svg"
   id="svg4562"
   xml:space="preserve"
   enable-background="new 0 0 1024.00 1024.00"
   viewBox="0 0 1024.00 1024.00"
   height="1024"
   width="1024"
   version="1.1"><metadata
   id="metadata4568"><rdf:RDF><cc:Work
       rdf:about=""><dc:format>image/svg+xml</dc:format><dc:type
         rdf:resource="http://purl.org/dc/dcmitype/StillImage" /><dc:title></dc:title></cc:Work></rdf:RDF></metadata><defs
   id="defs4566" />
	
	<path
   id="path4560"
   d="M 66.818359 0 L 66.818359 64 L 311.21094 64 C 148.42899 142.88576 32.505268 315.92864 32.242188 498.85742 C 24.818716 713.8647 174.95208 921.65267 380.89258 983.39844 C 581.35241 1049.984 819.46682 970.9393 938.16992 795.58203 C 1060.096 625.38857 1054.9454 377.16123 924.76953 212.8457 C 887.25316 163.56501 840.48153 121.34513 787.57422 89.136719 C 776.47852 107.35742 765.38281 125.57813 754.28711 143.79883 C 895.13387 227.74153 979.85544 396.22878 959.13281 559.50781 C 944.49812 727.25024 819.71218 877.60565 657.55664 922.93945 C 494.66544 975.1859 303.91008 919.14405 197.30273 784.82227 C 89.60021 658.15438 63.600919 467.35843 140.9375 319.00586 C 189.43832 223.08723 274.1524 144.53488 374.94531 106.79688 L 374.94531 352.50195 L 439.44336 352.50195 L 439.44336 64 L 439.44336 0 L 374.94531 0 L 66.818359 0 z "
   style="color:#000000;font-style:normal;font-variant:normal;font-weight:normal;font-stretch:normal;font-size:medium;line-height:normal;font-family:sans-serif;font-variant-ligatures:normal;font-variant-position:normal;font-variant-caps:normal;font-variant-numeric:normal;font-variant-alternates:normal;font-feature-settings:normal;text-indent:0;text-align:start;text-decoration:none;text-decoration-line:none;text-decoration-style:solid;text-decoration-color:#000000;letter-spacing:normal;word-spacing:normal;text-transform:none;writing-mode:lr-tb;direction:ltr;text-orientation:mixed;dominant-baseline:auto;baseline-shift:baseline;text-anchor:start;white-space:normal;shape-padding:0;clip-rule:nonzero;display:inline;overflow:visible;visibility:visible;opacity:1;isolation:auto;mix-blend-mode:normal;color-interpolation:sRGB;color-interpolation-filters:linearRGB;solid-color:#000000;solid-opacity:1;vector-effect:none;fill:#000000;fill-opacity:1;fill-rule:nonzero;stroke:none;stroke-width:64;stroke-linecap:butt;stroke-linejoin:round;stroke-miterlimit:4;stroke-dasharray:none;stroke-dashoffset:0;stroke-opacity:1;color-rendering:auto;image-rendering:auto;shape-rendering:auto;text-rendering:auto;enable-background:accumulate" />
</svg>