<?xml version="1.0" encoding="UTF-8" standalone="no"?>
<svg
   xmlns:dc="http://purl.org/dc/elements/1.1/"
   xmlns:cc="http://creativecommons.org/ns#"
   xmlns:rdf="http://www.w3.org/1999/02/22-rdf-syntax-ns#"
   xmlns:svg="http://www.w3.org/2000/svg"
   xmlns="http://www.w3.org/2000/svg"
   id="svg4562"
   xml:space="preserve"
   enable-background="new 0 0 1024.00 1024.00"
   viewBox="0 0 1024.00 1024.00"
   height="1024"
   width="1024"
   version="1.1"><metadata
   id="metadata4568"><rdf:RDF><cc:Work
       rdf:about=""><dc:format>image/svg+xml</dc:format><dc:type
         rdf:resource="http://purl.org/dc/dcmitype/StillImage" /><dc:title></dc:title></cc:Work></rdf:RDF></metadata><defs
   id="defs4566" />
	
	<g
   id="g5125"><g
     id="g4558">
		<path
   style="fill:#000000;fill-opacity:1;fill-rule:evenodd;stroke:#000000;stroke-linejoin:round;stroke-opacity:1"
   d="M 66.817802,0 C 191.02614,0 315.23447,0 439.4428,0 c 0,21.333333 0,42.666667 0,64 -124.20833,0 -248.41666,0 -372.624998,0 0,-21.333333 0,-42.666667 0,-64 z"
   id="rect4554" />
		<path
   style="fill:#000000;fill-opacity:1;stroke:#000000;stroke-linejoin:round;stroke-opacity:1"
   d="m 375.802,0 c 21.4989,0 42.9978,0 64.4967,0 0,117.50067 0,235.00134 0,352.50201 -21.4989,0 -42.9978,0 -64.4967,0 0,-117.50067 0,-235.00134 0,-352.50201 z"
   id="rect4556" />
	</g><path
     style="color:#000000;font-style:normal;font-variant:normal;font-weight:normal;font-stretch:normal;font-size:medium;line-height:normal;font-family:sans-serif;font-variant-ligatures:normal;font-variant-position:normal;font-variant-caps:normal;font-variant-numeric:normal;font-variant-alternates:normal;font-feature-settings:normal;text-indent:0;text-align:start;text-decoration:none;text-decoration-line:none;text-decoration-style:solid;text-decoration-color:#000000;letter-spacing:normal;word-spacing:normal;text-transform:none;writing-mode:lr-tb;direction:ltr;text-orientation:mixed;dominant-baseline:auto;baseline-shift:baseline;text-anchor:start;white-space:normal;shape-padding:0;clip-rule:nonzero;display:inline;overflow:visible;visibility:visible;opacity:1;isolation:auto;mix-blend-mode:normal;color-interpolation:sRGB;color-interpolation-filters:linearRGB;solid-color:#000000;solid-opacity:1;vector-effect:none;fill:#000000;fill-opacity:1;fill-rule:nonzero;stroke:none;stroke-width:64;stroke-linecap:butt;stroke-linejoin:round;stroke-miterlimit:4;stroke-dasharray:none;stroke-dashoffset:0;stroke-opacity:1;color-rendering:auto;image-rendering:auto;shape-rendering:auto;text-rendering:auto;enable-background:accumulate"
     d="M 420.05664,27.390625 C 202.59663,70.171114 32.5603,277.26519 32.241614,498.85799 24.818142,713.86527 174.9516,921.65177 380.8921,983.39754 581.35193,1049.9831 819.4666,970.93856 938.1697,795.58129 1060.0958,625.38783 1054.9455,377.16044 924.76963,212.84491 887.25326,163.56422 840.48153,121.34513 787.57422,89.136719 776.47852,107.35742 765.38281,125.57813 754.28711,143.79883 895.13387,227.74153 979.85584,396.22867 959.13321,559.5077 944.49852,727.25013 819.71198,877.60512 657.55644,922.93892 494.66524,975.18537 303.90922,919.14334 197.30187,784.82156 89.599346,658.15367 63.600719,467.35795 140.9373,319.00538 198.476,205.21279 306.98075,115.85944 432.83594,90.101562 428.57617,69.197916 424.31641,48.294271 420.05664,27.390625 Z"
     id="path4560" /></g>
</svg>