<?xml version="1.0" encoding="UTF-8" standalone="no"?>
<svg
   xmlns:osb="http://www.openswatchbook.org/uri/2009/osb"
   xmlns:dc="http://purl.org/dc/elements/1.1/"
   xmlns:cc="http://creativecommons.org/ns#"
   xmlns:rdf="http://www.w3.org/1999/02/22-rdf-syntax-ns#"
   xmlns:svg="http://www.w3.org/2000/svg"
   xmlns="http://www.w3.org/2000/svg"
   id="svg4562"
   xml:space="preserve"
   enable-background="new 0 0 1024.00 1024.00"
   viewBox="0 0 1024.00 1024.00"
   height="1024"
   width="1024"
   version="1.1"><metadata
   id="metadata4568"><rdf:RDF><cc:Work
       rdf:about=""><dc:format>image/svg+xml</dc:format><dc:type
         rdf:resource="http://purl.org/dc/dcmitype/StillImage" /><dc:title></dc:title></cc:Work></rdf:RDF></metadata><defs
   id="defs4566"><linearGradient
     id="linearGradient5239"
     osb:paint="solid"><stop
       style="stop-color:#41e7d0;stop-opacity:1;"
       offset="0"
       id="stop5237" /></linearGradient></defs>
	
	
<path
   id="path5914"
   d="M 512 0 A 512 512 0 0 0 0 512 A 512 512 0 0 0 512 1024 A 512 512 0 0 0 1024 512 A 512 512 0 0 0 512 0 z M 512 64 A 448 448 0 0 1 960 512 A 448 448 0 0 1 512 960 A 448 448 0 0 1 64 512 A 448 448 0 0 1 512 64 z "
   style="fill:#0100cc;fill-opacity:1;stroke:none;stroke-width:104.0165329;stroke-miterlimit:4.0999999;stroke-dasharray:none;stroke-opacity:1" /><path
   id="rect5081"
   d="M 288.41016 237.01953 L 237.01953 288.41016 L 460.60938 512 L 237.01953 735.58984 L 288.41016 786.98047 L 512 563.39062 L 735.58984 786.98047 L 786.98047 735.58984 L 563.39062 512 L 786.98047 288.41016 L 735.58984 237.01953 L 512 460.60938 L 288.41016 237.01953 z "
   style="fill:#0600cc;fill-opacity:1;stroke:none" /></svg>