<?xml version="1.0" encoding="UTF-8" standalone="no"?>
<svg
   xmlns:osb="http://www.openswatchbook.org/uri/2009/osb"
   xmlns:dc="http://purl.org/dc/elements/1.1/"
   xmlns:cc="http://creativecommons.org/ns#"
   xmlns:rdf="http://www.w3.org/1999/02/22-rdf-syntax-ns#"
   xmlns:svg="http://www.w3.org/2000/svg"
   xmlns="http://www.w3.org/2000/svg"
   xmlns:sodipodi="http://sodipodi.sourceforge.net/DTD/sodipodi-0.dtd"
   xmlns:inkscape="http://www.inkscape.org/namespaces/inkscape"
   id="svg4562"
   xml:space="preserve"
   enable-background="new 0 0 1024.00 1024.00"
   viewBox="0 0 1024.00 1024.00"
   height="1024"
   width="1024"
   version="1.1"
   sodipodi:docname="uE9A0A-ban.svg"
   inkscape:version="0.92.3 (2405546, 2018-03-11)"><sodipodi:namedview
   pagecolor="#ffffff"
   bordercolor="#666666"
   borderopacity="1"
   objecttolerance="10"
   gridtolerance="10"
   guidetolerance="10"
   inkscape:pageopacity="0"
   inkscape:pageshadow="2"
   inkscape:window-width="1544"
   inkscape:window-height="836"
   id="namedview1415"
   showgrid="false"
   inkscape:zoom="0.32593203"
   inkscape:cx="-100.62629"
   inkscape:cy="350.96493"
   inkscape:window-x="0"
   inkscape:window-y="0"
   inkscape:window-maximized="0"
   inkscape:current-layer="svg4562" /><metadata
   id="metadata4568"><rdf:RDF><cc:Work
       rdf:about=""><dc:format>image/svg+xml</dc:format><dc:type
         rdf:resource="http://purl.org/dc/dcmitype/StillImage" /><dc:title></dc:title></cc:Work></rdf:RDF></metadata><defs
   id="defs4566"><linearGradient
     id="linearGradient5239"
     osb:paint="solid"><stop
       style="stop-color:#41e7d0;stop-opacity:1;"
       offset="0"
       id="stop5237" /></linearGradient></defs>
	
	
<path
   style="fill:#d21b28;fill-opacity:1;stroke:#000000;stroke-opacity:1"
   d="M 512 0 A 512 512 0 0 0 0 512 A 512 512 0 0 0 512 1024 A 512 512 0 0 0 1024 512 A 512 512 0 0 0 512 0 z M 512 64 A 448 448 0 0 1 805.4707 173.88086 L 174.07031 805.28125 A 448 448 0 0 1 64 512 A 448 448 0 0 1 512 64 z M 849.92969 218.71875 A 448 448 0 0 1 960 512 A 448 448 0 0 1 512 960 A 448 448 0 0 1 218.5293 850.11914 L 849.92969 218.71875 z "
   id="path1995" /></svg>