<?xml version="1.0" encoding="UTF-8" standalone="no"?>
<svg
   id="svg4562"
   xml:space="preserve"
   enable-background="new 0 0 1024.00 1024.00"
   viewBox="0 0 1024.00 1024.00"
   height="1024"
   width="1024"
   version="1.1"
   xmlns="http://www.w3.org/2000/svg"
   xmlns:svg="http://www.w3.org/2000/svg"
   xmlns:rdf="http://www.w3.org/1999/02/22-rdf-syntax-ns#"
   xmlns:cc="http://creativecommons.org/ns#"
   xmlns:dc="http://purl.org/dc/elements/1.1/"><metadata
   id="metadata4568"><rdf:RDF><cc:Work
       rdf:about=""><dc:format>image/svg+xml</dc:format><dc:type
         rdf:resource="http://purl.org/dc/dcmitype/StillImage" /></cc:Work></rdf:RDF></metadata><defs
   id="defs4566"><linearGradient
     id="linearGradient5239"><stop
       style="stop-color:#41e7d0;stop-opacity:1;"
       offset="0"
       id="stop5237" /></linearGradient></defs>
	
	
<path
   id="rect3861"
   style="color:#000000;fill:#209230;stroke-linecap:round"
   d="m 64,64 c 0,106.66667 0,213.33333 0,320 106.66667,0 213.33333,0 320,0 0,-106.66667 0,-213.33333 0,-320 -106.66667,0 -213.33333,0 -320,0 z m 384,0 c 0,21.333333 0,42.66667 0,64 21.33333,0 42.66667,0 64,0 0,-21.33333 0,-42.666667 0,-64 -21.33333,0 -42.66667,0 -64,0 z m 64,64 c 0,42.66667 0,85.33333 0,128 -21.33333,0 -42.66667,0 -64,0 0,64 0,128 0,192 21.33333,0 42.66667,0 64,0 0,-42.66667 0,-85.33333 0,-128 21.33333,0 42.66667,0 64,0 0,-64 0,-128 0,-192 -21.33333,0 -42.66667,0 -64,0 z m 0,320 c 0,21.33333 0,42.66667 0,64 21.33333,0 42.66667,0 64,0 0,-21.33333 0,-42.66667 0,-64 -21.33333,0 -42.66667,0 -64,0 z m 0,64 c -64,0 -128,0 -192,0 0,-21.33333 0,-42.66667 0,-64 -42.66667,0 -85.33333,0 -128,0 0,21.33333 0,42.66667 0,64 21.33333,0 42.66667,0 64,0 0,21.33333 0,42.66667 0,64 64,0 128,0 192,0 0,21.33333 0,42.66667 0,64 21.33333,0 42.66667,0 64,0 0,-42.66667 0,-85.33333 0,-128 z m 0,128 c 0,20 0,40 0,60 -21.33333,0 -42.66667,0 -64,0 0,65.33333 0,130.66667 0,196 21.33333,0 42.66667,0 64,0 0,-21.33333 0,-42.66667 0,-64 21.33333,0 42.66667,0 64,0 0,-21.33333 0,-42.66667 0,-64 -21.33333,0 -42.66667,0 -64,0 0,-21.33333 0,-42.66667 0,-64 21.33333,0 42.66667,0 64,0 0,-21.33333 0,-42.66667 0,-64 -21.33333,0 -42.66667,0 -64,0 z m 64,0 c 21.33333,0 42.66667,0 64,0 0,-21.33333 0,-42.66667 0,-64 -21.33333,0 -42.66667,0 -64,0 0,21.33333 0,42.66667 0,64 z m 64,-64 c 21.33333,0 42.66667,0 64,0 0,-21.33333 0,-42.66667 0,-64 42.66667,0 85.33333,0 128,0 0,-21.33333 0,-42.66667 0,-64 -64,0 -128,0 -192,0 0,42.66667 0,85.33333 0,128 z m 192,-64 c 0,42.66667 0,85.33333 0,128 -64,0 -128,0 -192,0 0,21.33333 0,42.66667 0,64 42.66667,0 85.33333,0 128,0 0,21.33333 0,42.66667 0,64 21.33333,0 42.66667,0 64,0 0,-21.33333 0,-42.66667 0,-64 21.33333,0 42.66667,0 64,0 0,-42.66667 0,-85.33333 0,-128 21.33333,0 42.66667,0 64,0 0,-42.66667 0,-85.33333 0,-128 -21.33333,0 -42.66667,0 -64,0 0,21.33333 0,42.66667 0,64 -21.33333,0 -42.66667,0 -64,0 z M 640,704 c -21.33333,0 -42.66667,0 -64,0 0,21.33333 0,42.66667 0,64 21.33333,0 42.66667,0 64,0 0,-21.33333 0,-42.66667 0,-64 z m 0,64 c 0,21.33333 0,42.66667 0,64 21.33333,0 42.66667,0 64,0 0,-21.33333 0,-42.66667 0,-64 -21.33333,0 -42.66667,0 -64,0 z m 64,64 c 0,21.33333 0,42.66667 0,64 -64,0 -128,0 -192,0 0,21.33333 0,42.66667 0,64 85.33333,0 170.66667,0 256,0 0,-42.66667 0,-85.33333 0,-128 -21.33333,0 -42.66667,0 -64,0 z M 192,512 c -21.33333,0 -42.66667,0 -64,0 0,21.33333 0,42.66667 0,64 21.33333,0 42.66667,0 64,0 0,-21.33333 0,-42.66667 0,-64 z m -64,0 c 0,-21.33333 0,-42.66667 0,-64 -21.33333,0 -42.666667,0 -64,0 0,21.33333 0,42.66667 0,64 21.333333,0 42.66667,0 64,0 z M 640,64 c 0,106.66667 0,213.33333 0,320 106.66667,0 213.33333,0 320,0 0,-106.66667 0,-213.33333 0,-320 -106.66667,0 -213.33333,0 -320,0 z m -513.89648,62.10352 c 65.26432,0 130.52864,0 195.79296,0 0,65.26432 0,130.52864 0,195.79296 -65.26432,0 -130.52864,0 -195.79296,0 0,-65.26432 0,-130.52864 0,-195.79296 z m 576,0 c 65.26432,0 130.52864,0 195.79296,0 0,65.26432 0,130.52864 0,195.79296 -65.26432,0 -130.52864,0 -195.79296,0 0,-65.26432 0,-130.52864 0,-195.79296 z M 192,192 c 0,21.33333 0,42.66667 0,64 21.33333,0 42.66667,0 64,0 0,-21.33333 0,-42.66667 0,-64 -21.33333,0 -42.66667,0 -64,0 z m 576,0 c 0,21.33333 0,42.66667 0,64 21.33333,0 42.66667,0 64,0 0,-21.33333 0,-42.66667 0,-64 -21.33333,0 -42.66667,0 -64,0 z M 64,640 c 0,106.66667 0,213.33333 0,320 106.66667,0 213.33333,0 320,0 0,-106.66667 0,-213.33333 0,-320 -106.66667,0 -213.33333,0 -320,0 z m 62.10352,62.10352 c 65.26432,0 130.52864,0 195.79296,0 0,65.26432 0,130.52864 0,195.79296 -65.26432,0 -130.52864,0 -195.79296,0 0,-65.26432 0,-130.52864 0,-195.79296 z M 192,768 c 0,21.33333 0,42.66667 0,64 21.33333,0 42.66667,0 64,0 0,-21.33333 0,-42.66667 0,-64 -21.33333,0 -42.66667,0 -64,0 z m 704,0 c 0,42.66667 0,85.33333 0,128 -21.33333,0 -42.66667,0 -64,0 0,21.33333 0,42.66667 0,64 42.66667,0 85.33333,0 128,0 0,-64 0,-128 0,-192 -21.33333,0 -42.66667,0 -64,0 z" /></svg>
