<?xml version="1.0" encoding="UTF-8" standalone="no"?>
<svg
   xmlns:osb="http://www.openswatchbook.org/uri/2009/osb"
   xmlns:dc="http://purl.org/dc/elements/1.1/"
   xmlns:cc="http://creativecommons.org/ns#"
   xmlns:rdf="http://www.w3.org/1999/02/22-rdf-syntax-ns#"
   xmlns:svg="http://www.w3.org/2000/svg"
   xmlns="http://www.w3.org/2000/svg"
   id="svg4562"
   xml:space="preserve"
   enable-background="new 0 0 1024.00 1024.00"
   viewBox="0 0 1024.00 1024.00"
   height="1024"
   width="1024"
   version="1.1"><metadata
   id="metadata4568"><rdf:RDF><cc:Work
       rdf:about=""><dc:format>image/svg+xml</dc:format><dc:type
         rdf:resource="http://purl.org/dc/dcmitype/StillImage" /><dc:title></dc:title></cc:Work></rdf:RDF></metadata><defs
   id="defs4566"><linearGradient
     id="linearGradient5239"
     osb:paint="solid"><stop
       style="stop-color:#41e7d0;stop-opacity:1;"
       offset="0"
       id="stop5237" /></linearGradient></defs>
	
	
<path
   id="path5914"
   d="M 512 0 A 512 512 0 0 0 0 512 A 512 512 0 0 0 512 1024 A 512 512 0 0 0 1024 512 A 512 512 0 0 0 512 0 z M 512 64 A 448 448 0 0 1 960 512 A 448 448 0 0 1 512 960 A 448 448 0 0 1 64 512 A 448 448 0 0 1 512 64 z "
   style="fill:#0100cc;fill-opacity:1;stroke:none;stroke-width:104.0165329;stroke-miterlimit:4.0999999;stroke-dasharray:none;stroke-opacity:1" /><g
   id="flowRoot5102"
   style="font-style:normal;font-variant:normal;font-weight:normal;font-stretch:normal;font-size:40px;line-height:1.25;font-family:Arial;-inkscape-font-specification:Arial;letter-spacing:0px;word-spacing:0px;fill:#0000bb;fill-opacity:1;stroke:none"
   transform="matrix(26.76483,0,0,23.010841,-6401.847,-9167.6294)"
   aria-label="?"><path
     id="path5110"
     style=""
     d="m 256.54102,428.16494 q -0.0195,-0.70312 -0.0195,-1.05468 0,-2.07032 0.58594,-3.57422 0.42969,-1.13282 1.38672,-2.28516 0.70313,-0.83984 2.51953,-2.44141 1.83594,-1.62109 2.38281,-2.57812 0.54688,-0.95703 0.54688,-2.08984 0,-2.05079 -1.60156,-3.59375 -1.60157,-1.5625 -3.92578,-1.5625 -2.2461,0 -3.75,1.40625 -1.50391,1.40625 -1.97266,4.39453 l -3.61328,-0.42969 q 0.48828,-4.00391 2.89062,-6.13281 2.42188,-2.12891 6.38672,-2.12891 4.19922,0 6.69922,2.28516 2.5,2.28515 2.5,5.52734 0,1.875 -0.87891,3.45703 -0.8789,1.58203 -3.4375,3.84766 -1.71875,1.52344 -2.24609,2.24609 -0.52734,0.72266 -0.78125,1.66016 -0.25391,0.9375 -0.29297,3.04687 z m -0.21485,7.05078 v -4.0039 h 4.00391 v 4.0039 z" /></g></svg>