<?xml version="1.0" encoding="UTF-8" standalone="no"?>
<svg
   id="svg4562"
   xml:space="preserve"
   enable-background="new 0 0 1024.00 1024.00"
   viewBox="0 0 1024.00 1024.00"
   height="1024"
   width="1024"
   version="1.1"
   xmlns="http://www.w3.org/2000/svg"
   xmlns:svg="http://www.w3.org/2000/svg"
   xmlns:rdf="http://www.w3.org/1999/02/22-rdf-syntax-ns#"
   xmlns:cc="http://creativecommons.org/ns#"
   xmlns:dc="http://purl.org/dc/elements/1.1/"><metadata
   id="metadata4568"><rdf:RDF><cc:Work
       rdf:about=""><dc:format>image/svg+xml</dc:format><dc:type
         rdf:resource="http://purl.org/dc/dcmitype/StillImage" /></cc:Work></rdf:RDF></metadata><defs
   id="defs4566"><linearGradient
     id="linearGradient5239"><stop
       style="stop-color:#41e7d0;stop-opacity:1;"
       offset="0"
       id="stop5237" /></linearGradient></defs>
	
	
<path
   id="rect3861"
   style="color:#000000;fill:#209230;stroke-linecap:round;-inkscape-stroke:none"
   d="m 755.3457,0 c 0,149.15234 0,298.30469 0,447.45703 -40.44206,0 -80.88411,0 -121.32617,0 0.0885,-106.54427 0.17709,-213.08854 0.26563,-319.63281 C 545.52344,208.1582 456.76172,288.49219 368,368.82617 368,289.17643 368,209.52669 368,129.87695 245.9707,235.73698 123.94141,341.597 1.9121094,447.45703 -2.0698561,529.09372 0.94387448,611.46553 0,693.4254 0,803.61693 0,913.80847 0,1024 c 341.33333,0 682.66667,0 1024,0 0,-341.33333 0,-682.66667 0,-1024 -89.55143,0 -179.10287,0 -268.6543,0 z m 62.10157,62.101562 c 48.15039,0 96.30078,0 144.45117,0 0,19.348306 0,38.696608 0,58.044918 -48.15039,0 -96.30078,0 -144.45117,0 0,-19.34831 0,-38.696612 0,-58.044918 z m 0,120.146488 c 48.15039,0 96.30078,0 144.45117,0 0,88.40299 0,176.80599 0,265.20898 -48.15039,0 -96.30078,0 -144.45117,0 0,-88.40299 0,-176.80599 0,-265.20898 z M 304,270.12109 c 0,80.98307 0,161.96615 0,242.94922 88.72201,-80.29818 177.44401,-160.59635 266.16602,-240.89453 0.10391,79.12801 -0.73582,158.2647 0.76171,237.38477 130.32357,0 260.64714,0 390.97071,0 0,150.7793 0,301.55859 0,452.33789 -299.93229,0 -599.86459,0 -899.796878,0 C 62.067708,801.28386 62.033854,640.66927 62,480.05469 142.66667,410.07682 223.33333,340.09896 304,270.12109 Z m -176,380.8418 c 0,69.33333 0,138.66667 0,208 69.33333,0 138.66667,0 208,0 0,-69.33333 0,-138.66667 0,-208 -69.33333,0 -138.66667,0 -208,0 z m 288,0 c 0,69.33333 0,138.66667 0,208 69.33333,0 138.66667,0 208,0 0,-69.33333 0,-138.66667 0,-208 -69.33333,0 -138.66667,0 -208,0 z m 272,0 c 0,69.33333 0,138.66667 0,208 69.33333,0 138.66667,0 208,0 0,-69.33333 0,-138.66667 0,-208 -69.33333,0 -138.66667,0 -208,0 z m -497.89844,62.10156 c 27.93229,0 55.86459,0 83.79688,0 0,27.93164 0,55.86329 0,83.79493 -27.93229,0 -55.86459,0 -83.79688,0 0,-27.93164 0,-55.86329 0,-83.79493 z m 288,0 c 27.93229,0 55.86459,0 83.79688,0 0,27.93164 0,55.86329 0,83.79493 -27.93229,0 -55.86459,0 -83.79688,0 0,-27.93164 0,-55.86329 0,-83.79493 z m 272,0 c 27.93229,0 55.86459,0 83.79688,0 0,27.93164 0,55.86329 0,83.79493 -27.93229,0 -55.86459,0 -83.79688,0 0,-27.93164 0,-55.86329 0,-83.79493 z" /><path
   style="fill:#000000;stroke-width:37.7953;stroke-linecap:square;stroke-miterlimit:1000"
   d="M 71.59322,180.0678 264.67797,73.762712"
   id="path572" /></svg>
