<?xml version="1.0" encoding="UTF-8" standalone="no"?>
<svg
   xmlns:osb="http://www.openswatchbook.org/uri/2009/osb"
   xmlns:dc="http://purl.org/dc/elements/1.1/"
   xmlns:cc="http://creativecommons.org/ns#"
   xmlns:rdf="http://www.w3.org/1999/02/22-rdf-syntax-ns#"
   xmlns:svg="http://www.w3.org/2000/svg"
   xmlns="http://www.w3.org/2000/svg"
   id="svg4562"
   xml:space="preserve"
   enable-background="new 0 0 1024.00 1024.00"
   viewBox="0 0 1024.00 1024.00"
   height="1024"
   width="1024"
   version="1.1"><metadata
     id="metadata4568"><rdf:RDF><cc:Work
         rdf:about=""><dc:format>image/svg+xml</dc:format><dc:type
           rdf:resource="http://purl.org/dc/dcmitype/StillImage" /><dc:title></dc:title></cc:Work></rdf:RDF></metadata><defs
     id="defs4566"><linearGradient
       id="linearGradient5239"
       osb:paint="solid"><stop
         style="stop-color:#41e7d0;stop-opacity:1;"
         offset="0"
         id="stop5237" /></linearGradient></defs><path
     style="fill:#d2f628;fill-opacity:1;stroke:#000000;stroke-opacity:1"
     id="path1995-3"
     r="448"
     cy="512"
     cx="512" /><path
     style="color:#000000;font-style:normal;font-variant:normal;font-weight:normal;font-stretch:normal;font-size:medium;line-height:normal;font-family:sans-serif;font-variant-ligatures:normal;font-variant-position:normal;font-variant-caps:normal;font-variant-numeric:normal;font-variant-alternates:normal;font-feature-settings:normal;text-indent:0;text-align:start;text-decoration:none;text-decoration-line:none;text-decoration-style:solid;text-decoration-color:#000000;letter-spacing:normal;word-spacing:normal;text-transform:none;writing-mode:lr-tb;direction:ltr;text-orientation:mixed;dominant-baseline:auto;baseline-shift:baseline;text-anchor:start;white-space:normal;shape-padding:0;clip-rule:nonzero;display:inline;overflow:visible;visibility:visible;opacity:1;isolation:auto;mix-blend-mode:normal;color-interpolation:sRGB;color-interpolation-filters:linearRGB;solid-color:#000000;solid-opacity:1;vector-effect:none;fill:#f60000;fill-opacity:1;fill-rule:nonzero;stroke:none;stroke-width:63.99999619;stroke-linecap:butt;stroke-linejoin:miter;stroke-miterlimit:4;stroke-dasharray:none;stroke-dashoffset:0;stroke-opacity:1;paint-order:fill markers stroke;color-rendering:auto;image-rendering:auto;shape-rendering:auto;text-rendering:auto;enable-background:accumulate"
     d="m 0,132.99414 v 32 618.01172 h 132.54883 c 14.2093,61.73152 70.36888,108 136.52734,108 66.15847,0 122.31804,-46.26848 136.52735,-108 H 630 665.78711 c 14.2093,61.73152 70.36888,108 136.52734,108 66.15847,0 122.31804,-46.26848 136.52735,-108 H 1024 V 487.88672 L 871.01562,267.00586 H 630 V 132.99414 Z m 64,64 H 566 V 719.00586 H 404.93164 C 389.70314,658.66365 334.24263,613.77149 269.07617,613.77148 203.90972,613.77149 148.4492,658.66365 133.2207,719.00586 H 64 Z M 630,331.00586 H 837.49219 L 943.02344,483.375 H 630 Z m 0,216.36914 h 330 v 171.63086 h -21.83008 c -15.2285,-60.34222 -70.68901,-105.23438 -135.85547,-105.23438 -65.16645,0 -120.62697,44.89216 -135.85547,105.23438 H 630 Z M 269.07617,677.77148 c 42.57409,0 76,33.25244 76,74.61719 0,41.36476 -33.42591,74.61719 -76,74.61719 -42.57408,0 -76,-33.25243 -76,-74.61719 0,-41.36475 33.42592,-74.61717 76,-74.61719 z m 533.23828,0 c 42.57409,0 76,33.25244 76,74.61719 0,41.36475 -33.42591,74.61719 -76,74.61719 -42.57408,0 -76,-33.25244 -76,-74.61719 0,-41.36475 33.42592,-74.61717 76,-74.61719 z"
     id="rect1961" /></svg>