<?xml version="1.0" encoding="UTF-8" standalone="no"?>
<svg
   xmlns:dc="http://purl.org/dc/elements/1.1/"
   xmlns:cc="http://creativecommons.org/ns#"
   xmlns:rdf="http://www.w3.org/1999/02/22-rdf-syntax-ns#"
   xmlns:svg="http://www.w3.org/2000/svg"
   xmlns="http://www.w3.org/2000/svg"
   version="1.1"
   width="1024"
   height="1024"
   viewBox="0 0 1024.00 1024.00"
   enable-background="new 0 0 1024.00 1024.00"
   xml:space="preserve"
   id="svg4"><metadata
     id="metadata10"><rdf:RDF><cc:Work
         rdf:about=""><dc:format>image/svg+xml</dc:format><dc:type
           rdf:resource="http://purl.org/dc/dcmitype/StillImage" /><dc:title></dc:title></cc:Work></rdf:RDF></metadata><defs
     id="defs8" /><g
     transform="translate(-3.1596555e-7,5.1231888)"
     id="g5269" /><path
     id="path4535"
     d="m 823.48747,1020.272 c 50.49281,-20.1951 81.57677,-69.44255 121.79134,-103.93263 26.3469,-37.1508 102.08489,-70.6728 71.61169,-124.33234 C 970.32609,753.41545 913.47457,727.64986 862.57634,694.71406 818.95107,671.99649 763.2028,618.36236 715.1604,662.12947 679.52896,697.84744 638.75023,758.38314 584.05079,712.59814 489.86176,661.43616 414.21558,581.85846 348.29711,498.83428 327.48477,460.38674 278.69766,412.36826 303.25528,368.93157 c 26.00324,-32.8251 74.79834,-59.47601 67.22501,-107.87689 -11.65883,-32.39225 -32.28073,-62.5761 -47.3851,-94.11944 C 292.62324,113.28712 269.57394,54.385134 230.84625,6.1921653 177.56095,-21.502415 146.17317,51.202069 109.24203,76.523861 75.048231,116.04828 27.090166,146.75196 5.4451155,195.40279 -13.076936,278.04193 19.018228,362.16854 51.191195,437.4158 130.08509,606.0188 260.98897,744.68573 404.42311,861.01876 c 103.02602,75.64483 218.36339,145.23214 347.70741,160.82084 23.64816,2.0334 48.05867,4.2375 71.35695,-1.5676 z"
     style="fill:#dacd00;fill-opacity:1;stroke-width:1" /></svg>