<?xml version="1.0" encoding="UTF-8" standalone="no"?>
<svg
   xmlns:osb="http://www.openswatchbook.org/uri/2009/osb"
   xmlns:dc="http://purl.org/dc/elements/1.1/"
   xmlns:cc="http://creativecommons.org/ns#"
   xmlns:rdf="http://www.w3.org/1999/02/22-rdf-syntax-ns#"
   xmlns:svg="http://www.w3.org/2000/svg"
   xmlns="http://www.w3.org/2000/svg"
   version="1.1"
   width="1024"
   height="1024"
   viewBox="0 0 1024.00 1024.00"
   enable-background="new 0 0 1024.00 1024.00"
   xml:space="preserve"
   id="svg4562"><metadata
     id="metadata4568"><rdf:RDF><cc:Work
         rdf:about=""><dc:format>image/svg+xml</dc:format><dc:type
           rdf:resource="http://purl.org/dc/dcmitype/StillImage" /><dc:title></dc:title></cc:Work></rdf:RDF></metadata><defs
     id="defs4566"><linearGradient
       osb:paint="solid"
       id="linearGradient5239"><stop
         id="stop5237"
         offset="0"
         style="stop-color:#41e7d0;stop-opacity:1;" /></linearGradient></defs><path
     cx="512"
     cy="512"
     r="448"
     id="path1995-3"
     style="fill:#d2f628;fill-opacity:1;stroke:#000000;stroke-opacity:1" /><path
     id="rect4505"
     d="M 0 74.416016 L 0 950.36523 L 291.47266 950.36523 L 291.47266 439.52148 L 880.55078 439.52148 L 880.55078 582.18945 L 1024 582.18945 L 1024 214.36523 L 599.20508 214.36523 C 551.34245 167.71549 503.47982 121.06575 455.61719 74.416016 L 0 74.416016 z M 369.92383 516.44141 L 369.92383 879.58203 L 591.11719 879.58203 L 591.11719 1024 L 1024 1024 L 1024 660.85742 L 802.80664 660.85742 L 802.80664 516.44141 L 369.92383 516.44141 z M 433.92383 580.44141 L 738.80664 580.44141 L 738.80664 660.85742 L 591.11719 660.85742 L 591.11719 815.58203 L 433.92383 815.58203 L 433.92383 580.44141 z M 655.11719 724.85742 L 738.80664 724.85742 L 738.80664 815.58203 L 655.11719 815.58203 L 655.11719 724.85742 z M 802.80664 724.85742 L 960 724.85742 L 960 960 L 655.11719 960 L 655.11719 879.58203 L 802.80664 879.58203 L 802.80664 724.85742 z "
     style="fill:#0000ff;fill-opacity:1;stroke:none;stroke-width:64;stroke-miterlimit:4;stroke-dasharray:none;stroke-opacity:1" /></svg>