<?xml version="1.0" encoding="UTF-8" standalone="no"?>
<svg
   xmlns:dc="http://purl.org/dc/elements/1.1/"
   xmlns:cc="http://creativecommons.org/ns#"
   xmlns:rdf="http://www.w3.org/1999/02/22-rdf-syntax-ns#"
   xmlns:svg="http://www.w3.org/2000/svg"
   xmlns="http://www.w3.org/2000/svg"
   version="1.1"
   width="1024"
   height="1024"
   viewBox="0 0 1024.00 1024.00"
   enable-background="new 0 0 1024.00 1024.00"
   xml:space="preserve"
   id="svg4562"><metadata
     id="metadata4568"><rdf:RDF><cc:Work
         rdf:about=""><dc:format>image/svg+xml</dc:format><dc:type
           rdf:resource="http://purl.org/dc/dcmitype/StillImage" /><dc:title></dc:title></cc:Work></rdf:RDF></metadata><defs
     id="defs4566" /><path
     id="path9391"
     d="m 509.23047,-0.16601562 c 0,71.95247562 0,143.90494562 0,215.85742562 -95.07682,0 -190.15365,0 -285.23047,0 0,73.14779 0,146.29557 0,219.44336 -74.66667,0 -149.333333,0 -224,0 0,121.68034 0,243.36067 0,365.04101 126,1.02539 252,2.05078 378,3.07617 0,73.58268 0,147.16537 0,220.74805 215.87567,0 431.75133,0 647.627,0 -0.5736,-196.28841 -1.1472,-392.57682 -1.7208,-588.86523 -50.92446,0 -101.84893,0 -152.77339,0 0,-144.47917 0,-288.95834 0,-433.4375044 C 750.4987,1.0761719 629.86458,0.45507812 509.23047,-0.16601562 Z m 64,64.33203162 c 77.96745,0.401042 155.93489,0.802083 233.90234,1.203125 0,123.255209 0,246.510419 0,369.765629 -47.46094,0 -94.92187,0 -142.38281,0 -0.51172,75.7832 -1.02344,151.56641 -1.53516,227.34961 -95.07161,0 -190.14323,0 -285.21484,0 -2.99028,24.02389 5.92929,60.05499 -4.34812,76.73217 C 270.43458,738.37613 167.21729,737.53572 64,736.69531 c 0,-79.18685 0,-158.37369 0,-237.56054 74.66667,0 149.33333,0 224,0 0,-73.14779 0,-146.29557 0,-219.44336 95.07682,0 190.15365,0 285.23047,0 0,-71.8418 0,-143.6836 0,-215.525394 z M 728.31836,499.13477 c 77.25846,0 154.51693,0 231.77539,0 0.44922,153.62174 0.89844,307.24349 1.34766,460.86523 -173.14714,0 -346.29427,0 -519.44141,0 0,-77.83854 0,-155.67708 0,-233.51562 94.92839,0 189.85677,0 284.78516,0 0.51107,-75.7832 1.02213,-151.56641 1.5332,-227.34961 z"
     style="color:#000000;font-style:normal;font-variant:normal;font-weight:normal;font-stretch:normal;font-size:medium;line-height:normal;font-family:sans-serif;font-variant-ligatures:normal;font-variant-position:normal;font-variant-caps:normal;font-variant-numeric:normal;font-variant-alternates:normal;font-feature-settings:normal;text-indent:0;text-align:start;text-decoration:none;text-decoration-line:none;text-decoration-style:solid;text-decoration-color:#000000;letter-spacing:normal;word-spacing:normal;text-transform:none;writing-mode:lr-tb;direction:ltr;text-orientation:mixed;dominant-baseline:auto;baseline-shift:baseline;text-anchor:start;white-space:normal;shape-padding:0;clip-rule:nonzero;display:inline;overflow:visible;visibility:visible;opacity:1;isolation:auto;mix-blend-mode:normal;color-interpolation:sRGB;color-interpolation-filters:linearRGB;solid-color:#000000;solid-opacity:1;vector-effect:none;fill:#e900db;fill-opacity:1;fill-rule:nonzero;stroke:none;stroke-width:64;stroke-linecap:butt;stroke-linejoin:miter;stroke-miterlimit:4;stroke-dasharray:none;stroke-dashoffset:0;stroke-opacity:1;color-rendering:auto;image-rendering:auto;shape-rendering:auto;text-rendering:auto;enable-background:accumulate" /></svg>