<?xml version="1.0" encoding="UTF-8" standalone="no"?>
<svg
   xmlns:dc="http://purl.org/dc/elements/1.1/"
   xmlns:cc="http://creativecommons.org/ns#"
   xmlns:rdf="http://www.w3.org/1999/02/22-rdf-syntax-ns#"
   xmlns:svg="http://www.w3.org/2000/svg"
   xmlns="http://www.w3.org/2000/svg"
   version="1.1"
   width="1024"
   height="1024"
   viewBox="0 0 1024.00 1024.00"
   enable-background="new 0 0 1024.00 1024.00"
   xml:space="preserve"
   id="svg4"><metadata
     id="metadata10"><rdf:RDF><cc:Work
         rdf:about=""><dc:format>image/svg+xml</dc:format><dc:type
           rdf:resource="http://purl.org/dc/dcmitype/StillImage" /><dc:title></dc:title></cc:Work></rdf:RDF></metadata><defs
     id="defs8" /><path
     id="path8441"
     d="M 425.64648,0.00585938 C 348.24095,0.71027804 288.69626,67.505211 281.19141,148 H 206.79492 64 v 876 H 800 V 802.17969 H 736 V 960 H 128 V 212 h 78.79492 V 363.10938 H 650.48633 V 212 H 736 v 152.31055 h 64 V 148 H 650.48633 572.46875 C 564.86657,66.504376 503.85235,-0.70583586 425.64648,0.00585938 Z m 0.58399,63.99804662 c 38.91241,-0.354113 75.02147,33.923613 81.87891,84.013674 V 212 h 78.37695 v 87.10938 H 270.79492 V 212 h 74.25196 v -59.72852 c 5.26399,-51.63162 41.59736,-87.907324 81.18359,-88.267574 z M 912.19531,345.82422 498.4082,760.08594 304.01953,567.22656 l -45.07422,45.4336 239.66797,237.7832 458.86328,-459.39063 z"
     style="color:#000000;font-style:normal;font-variant:normal;font-weight:normal;font-stretch:normal;font-size:medium;line-height:normal;font-family:sans-serif;font-variant-ligatures:normal;font-variant-position:normal;font-variant-caps:normal;font-variant-numeric:normal;font-variant-alternates:normal;font-feature-settings:normal;text-indent:0;text-align:start;text-decoration:none;text-decoration-line:none;text-decoration-style:solid;text-decoration-color:#000000;letter-spacing:normal;word-spacing:normal;text-transform:none;writing-mode:lr-tb;direction:ltr;text-orientation:mixed;dominant-baseline:auto;baseline-shift:baseline;text-anchor:start;white-space:normal;shape-padding:0;clip-rule:nonzero;display:inline;overflow:visible;visibility:visible;opacity:0.98999999;isolation:auto;mix-blend-mode:normal;color-interpolation:sRGB;color-interpolation-filters:linearRGB;solid-color:#000000;solid-opacity:1;vector-effect:none;fill:#e2b400;fill-opacity:1;fill-rule:nonzero;stroke:none;stroke-width:64;stroke-linecap:square;stroke-linejoin:miter;stroke-miterlimit:4;stroke-dasharray:none;stroke-dashoffset:0;stroke-opacity:1;paint-order:normal;color-rendering:auto;image-rendering:auto;shape-rendering:auto;text-rendering:auto;enable-background:accumulate" /></svg>