<?xml version="1.0" encoding="UTF-8" standalone="no"?>
<svg
   xmlns:dc="http://purl.org/dc/elements/1.1/"
   xmlns:cc="http://creativecommons.org/ns#"
   xmlns:rdf="http://www.w3.org/1999/02/22-rdf-syntax-ns#"
   xmlns:svg="http://www.w3.org/2000/svg"
   xmlns="http://www.w3.org/2000/svg"
   version="1.1"
   width="1024"
   height="1024"
   viewBox="0 0 1024.00 1024.00"
   enable-background="new 0 0 1024.00 1024.00"
   xml:space="preserve"
   id="svg4562"><metadata
     id="metadata4568"><rdf:RDF><cc:Work
         rdf:about=""><dc:format>image/svg+xml</dc:format><dc:type
           rdf:resource="http://purl.org/dc/dcmitype/StillImage" /><dc:title></dc:title></cc:Work></rdf:RDF></metadata><defs
     id="defs4566" /><g
     transform="translate(-121.56768,327.20774)"
     id="g12958"><path
       id="rect4499"
       transform="translate(121.56768,-327.20774)"
       d="M 0 -4.1367188 L 0 871.8125 L 196.35938 871.8125 L 196.35938 286.11523 L 1024 286.11523 L 1024 135.8125 L 599.20508 135.8125 L 455.61719 -4.1367188 L 0 -4.1367188 z M 261.74414 356.93945 L 261.74414 1029.9844 L 1027.6484 1029.9844 L 1027.6484 356.93945 L 261.74414 356.93945 z M 325.74414 420.93945 L 963.64844 420.93945 L 963.64844 516.00977 L 325.74414 516.00977 L 325.74414 420.93945 z M 325.74414 580.00977 L 612.69727 580.00977 L 612.69727 965.98438 L 325.74414 965.98438 L 325.74414 580.00977 z M 676.69727 580.00977 L 963.64844 580.00977 L 963.64844 965.98438 L 676.69727 965.98438 L 676.69727 580.00977 z M 377.16797 640 L 377.16797 704 L 564.3418 704 L 564.3418 640 L 377.16797 640 z M 722.5332 720 L 722.5332 784 L 909.70898 784 L 909.70898 720 L 722.5332 720 z M 377.16797 768 L 377.16797 832 L 564.3418 832 L 564.3418 768 L 377.16797 768 z M 722.5332 848 L 722.5332 912 L 909.70898 912 L 909.70898 848 L 722.5332 848 z "
       style="fill:#0000ff;fill-opacity:1;stroke:none;stroke-width:63.99999619;stroke-miterlimit:4;stroke-dasharray:none;stroke-opacity:1" /></g></svg>