<?xml version="1.0" encoding="UTF-8" standalone="no"?>
<svg
   xmlns:dc="http://purl.org/dc/elements/1.1/"
   xmlns:cc="http://creativecommons.org/ns#"
   xmlns:rdf="http://www.w3.org/1999/02/22-rdf-syntax-ns#"
   xmlns:svg="http://www.w3.org/2000/svg"
   xmlns="http://www.w3.org/2000/svg"
   version="1.1"
   width="1024"
   height="1024"
   viewBox="0 0 1024.00 1024.00"
   enable-background="new 0 0 1024.00 1024.00"
   xml:space="preserve"
   id="svg4562"><metadata
     id="metadata4568"><rdf:RDF><cc:Work
         rdf:about=""><dc:format>image/svg+xml</dc:format><dc:type
           rdf:resource="http://purl.org/dc/dcmitype/StillImage" /><dc:title></dc:title></cc:Work></rdf:RDF></metadata><defs
     id="defs4566" /><path
     id="rect9311"
     d="m 0,74 c 0,292 0,584 0,876 341.33333,0 682.66667,0 1024,0 0,-292 0,-584 0,-876 C 682.66667,74 341.33333,74 0,74 Z m 64,64 c 298.66667,0 597.33333,0 896,0 0,52.91341 0,105.82682 0,158.74023 -298.66667,0 -597.33333,0 -896,0 C 64,243.82682 64,190.91341 64,138 Z m 0,222.74023 c 138.66667,0 277.33333,0 416,0 0,175.08659 0,350.17318 0,525.25977 -138.66667,0 -277.33333,0 -416,0 0,-175.08659 0,-350.17318 0,-525.25977 z m 480,0 c 138.66667,0 277.33333,0 416,0 0,175.08659 0,350.17318 0,525.25977 -138.66667,0 -277.33333,0 -416,0 0,-175.08659 0,-350.17318 0,-525.25977 z M 144,444.125 c 0,21.33333 0,42.66667 0,64 85.33333,0 170.66667,0 256,0 0,-21.33333 0,-42.66667 0,-64 -85.33333,0 -170.66667,0 -256,0 z m 0,145.95117 c 0,21.33333 0,42.66667 0,64 85.33333,0 170.66667,0 256,0 0,-21.33333 0,-42.66667 0,-64 -85.33333,0 -170.66667,0 -256,0 z m 489.56836,0 c 0,21.33333 0,42.66667 0,64 85.33333,0 170.66667,0 256,0 0,-21.33333 0,-42.66667 0,-64 -85.33333,0 -170.66667,0 -256,0 z m 0,145.95117 c 0,21.33333 0,42.66667 0,64 85.33333,0 170.66667,0 256,0 0,-21.33333 0,-42.66667 0,-64 -85.33333,0 -170.66667,0 -256,0 z"
     style="color:#000000;font-style:normal;font-variant:normal;font-weight:normal;font-stretch:normal;font-size:medium;line-height:normal;font-family:sans-serif;font-variant-ligatures:normal;font-variant-position:normal;font-variant-caps:normal;font-variant-numeric:normal;font-variant-alternates:normal;font-feature-settings:normal;text-indent:0;text-align:start;text-decoration:none;text-decoration-line:none;text-decoration-style:solid;text-decoration-color:#000000;letter-spacing:normal;word-spacing:normal;text-transform:none;writing-mode:lr-tb;direction:ltr;text-orientation:mixed;dominant-baseline:auto;baseline-shift:baseline;text-anchor:start;white-space:normal;shape-padding:0;clip-rule:nonzero;display:inline;overflow:visible;visibility:visible;opacity:0.98999999;isolation:auto;mix-blend-mode:normal;color-interpolation:sRGB;color-interpolation-filters:linearRGB;solid-color:#000000;solid-opacity:1;vector-effect:none;fill:#ed0000;fill-opacity:1;fill-rule:nonzero;stroke:none;stroke-width:64;stroke-linecap:round;stroke-linejoin:miter;stroke-miterlimit:4;stroke-dasharray:none;stroke-dashoffset:0;stroke-opacity:1;color-rendering:auto;image-rendering:auto;shape-rendering:auto;text-rendering:auto;enable-background:accumulate" /></svg>