<?xml version="1.0" encoding="UTF-8" standalone="no"?>
<svg
   xmlns:dc="http://purl.org/dc/elements/1.1/"
   xmlns:cc="http://creativecommons.org/ns#"
   xmlns:rdf="http://www.w3.org/1999/02/22-rdf-syntax-ns#"
   xmlns:svg="http://www.w3.org/2000/svg"
   xmlns="http://www.w3.org/2000/svg"
   version="1.1"
   width="1024"
   height="1024"
   viewBox="0 0 1024.00 1024.00"
   enable-background="new 0 0 1024.00 1024.00"
   xml:space="preserve"
   id="svg4"><metadata
     id="metadata10"><rdf:RDF><cc:Work
         rdf:about=""><dc:format>image/svg+xml</dc:format><dc:type
           rdf:resource="http://purl.org/dc/dcmitype/StillImage" /><dc:title></dc:title></cc:Work></rdf:RDF></metadata><defs
     id="defs8" /><path
     id="path1382"
     d="M 109.16992 17.279297 C 59.844975 17.279297 19.169922 57.541509 19.169922 106.78906 C 19.169922 156.03662 59.844975 196.29883 109.16992 196.29883 C 158.49487 196.29883 199.16992 156.03662 199.16992 106.78906 C 199.16992 57.541509 158.49487 17.279297 109.16992 17.279297 z M 109.16992 65.279297 C 132.74656 65.279297 151.16992 83.676893 151.16992 106.78906 C 151.16992 129.90123 132.74656 148.29883 109.16992 148.29883 C 85.593286 148.29883 67.169922 129.90123 67.169922 106.78906 C 67.169922 83.676894 85.593286 65.279297 109.16992 65.279297 z M 395.49805 187.00195 C 282.06389 187.00195 187.19531 272.45847 187.19531 380.81445 L 187.19531 821.13281 C 187.19531 929.4888 282.06389 1014.9434 395.49805 1014.9434 L 805.73633 1014.9434 C 919.17048 1014.9434 1014.0371 929.4888 1014.0371 821.13281 L 1014.0371 380.81445 C 1014.0371 272.45847 919.17048 187.00195 805.73633 187.00195 L 395.49805 187.00195 z M 395.49805 251.00195 L 805.73633 251.00195 C 887.64471 251.00195 950.03711 309.88347 950.03711 380.81445 L 950.03711 821.13281 C 950.03711 892.06379 887.64471 950.94336 805.73633 950.94336 L 395.49805 950.94336 C 313.58967 950.94336 251.19531 892.06379 251.19531 821.13281 L 251.19531 380.81445 C 251.19531 309.88347 313.58967 251.00195 395.49805 251.00195 z M 391.73633 293.50977 C 337.6466 293.50977 293.2832 337.87121 293.2832 391.96094 C 293.2832 446.05066 337.6466 490.41406 391.73633 490.41406 C 445.82605 490.41406 490.18945 446.05066 490.18945 391.96094 C 490.18945 337.87121 445.82605 293.50977 391.73633 293.50977 z M 391.73633 341.50977 C 419.88493 341.50977 442.18945 363.81234 442.18945 391.96094 C 442.18945 420.10954 419.88493 442.41406 391.73633 442.41406 C 363.58773 442.41406 341.2832 420.10954 341.2832 391.96094 C 341.2832 363.81234 363.58773 341.50977 391.73633 341.50977 z M 745.50977 589.2832 C 657.52323 589.2832 585.50977 661.29667 585.50977 749.2832 C 585.50977 837.26973 657.52323 909.2832 745.50977 909.2832 C 833.4963 909.2832 905.50977 837.26973 905.50977 749.2832 C 905.50977 661.29667 833.4963 589.2832 745.50977 589.2832 z M 745.50977 653.2832 C 798.90813 653.2832 841.50977 695.88484 841.50977 749.2832 C 841.50977 802.68157 798.90813 845.2832 745.50977 845.2832 C 692.1114 845.2832 649.50977 802.68157 649.50977 749.2832 C 649.50977 695.88484 692.1114 653.2832 745.50977 653.2832 z "
     style="color:#000000;font-style:normal;font-variant:normal;font-weight:normal;font-stretch:normal;font-size:medium;line-height:normal;font-family:sans-serif;font-variant-ligatures:normal;font-variant-position:normal;font-variant-caps:normal;font-variant-numeric:normal;font-variant-alternates:normal;font-feature-settings:normal;text-indent:0;text-align:start;text-decoration:none;text-decoration-line:none;text-decoration-style:solid;text-decoration-color:#000000;letter-spacing:normal;word-spacing:normal;text-transform:none;writing-mode:lr-tb;direction:ltr;text-orientation:mixed;dominant-baseline:auto;baseline-shift:baseline;text-anchor:start;white-space:normal;shape-padding:0;clip-rule:nonzero;display:inline;overflow:visible;visibility:visible;opacity:1;isolation:auto;mix-blend-mode:normal;color-interpolation:sRGB;color-interpolation-filters:linearRGB;solid-color:#000000;solid-opacity:1;vector-effect:none;fill:#de0000;fill-opacity:1;fill-rule:nonzero;stroke:none;stroke-width:48;stroke-linecap:butt;stroke-linejoin:miter;stroke-miterlimit:4;stroke-dasharray:none;stroke-dashoffset:0;stroke-opacity:1;color-rendering:auto;image-rendering:auto;shape-rendering:auto;text-rendering:auto;enable-background:accumulate" /></svg>