<?xml version="1.0" encoding="UTF-8" standalone="no"?>
<svg
   xmlns:dc="http://purl.org/dc/elements/1.1/"
   xmlns:cc="http://creativecommons.org/ns#"
   xmlns:rdf="http://www.w3.org/1999/02/22-rdf-syntax-ns#"
   xmlns:svg="http://www.w3.org/2000/svg"
   xmlns="http://www.w3.org/2000/svg"
   version="1.1"
   width="1024"
   height="1024"
   viewBox="0 0 1024.00 1024.00"
   enable-background="new 0 0 1024.00 1024.00"
   xml:space="preserve"
   id="svg4"><metadata
     id="metadata10"><rdf:RDF><cc:Work
         rdf:about=""><dc:format>image/svg+xml</dc:format><dc:type
           rdf:resource="http://purl.org/dc/dcmitype/StillImage" /><dc:title></dc:title></cc:Work></rdf:RDF></metadata><defs
     id="defs8" /><path
     style="display:inline;stroke-width:1"
     id="path1399"
     d="M 512.00003,-3.1914658e-5 C 229.25716,-3.1914658e-5 6e-6,235.19988 6e-6,525.02835 6e-6,757.02827 146.74287,953.59963 350.17145,1023.0853 a 40.137145,40.137129 0 0 0 8.68571,0.9143 c 18.97143,0 26.28572,-13.9429 26.28572,-26.05712 0,-12.57143 -0.45714,-45.48571 -0.68572,-89.3714 a 234.05715,234.05706 0 0 1 -51.65714,6.17143 c -98.51429,0 -120.91429,-76.57141 -120.91429,-76.57141 -23.31429,-60.5714 -56.91429,-76.79997 -56.91429,-76.79997 -44.57143,-31.31428 -0.22857,-32.22856 3.2,-32.22856 h 0.22857 c 51.42857,4.57142 78.4,54.39999 78.4,54.39999 25.60001,44.79998 59.88572,57.37139 90.51429,57.37139 a 144.00001,143.99995 0 0 0 58.51429,-13.71427 c 4.57143,-33.82856 17.82858,-56.91427 32.45715,-70.17141 -113.60001,-13.25713 -233.14287,-58.28569 -233.14287,-259.42848 0,-57.37141 19.88571,-104.22854 52.57143,-140.79995 -5.25714,-13.25714 -22.85714,-66.74284 5.02857,-138.97139 a 42.605716,42.605699 0 0 1 11.42857,-1.14286 c 18.51429,0 60.34286,7.08572 129.37144,55.0857 a 475.9086,475.9084 0 0 1 256.45715,0 c 69.02858,-47.99998 110.85715,-55.0857 129.37144,-55.0857 a 42.605716,42.605699 0 0 1 11.42857,1.14286 c 27.88572,72.22855 10.28572,125.71425 5.02857,138.97139 32.68572,36.79998 52.57143,83.65711 52.57143,140.79995 0,201.59993 -119.77143,245.94278 -233.82858,258.97134 18.28572,16.22857 34.74286,48.22856 34.74286,97.14282 0,70.1714 -0.68571,126.8571 -0.68571,143.99995 0,12.3428 7.08571,26.2857 26.05714,26.2857 a 44.228574,44.228556 0 0 0 9.14286,-0.9143 C 877.48576,953.59963 1024,756.7997 1024,525.02835 1024,235.19988 794.7429,-3.1914658e-5 512.00003,-3.1914658e-5 Z" /></svg>