<?xml version="1.0" encoding="UTF-8" standalone="no"?>
<svg
   xmlns:dc="http://purl.org/dc/elements/1.1/"
   xmlns:cc="http://creativecommons.org/ns#"
   xmlns:rdf="http://www.w3.org/1999/02/22-rdf-syntax-ns#"
   xmlns:svg="http://www.w3.org/2000/svg"
   xmlns="http://www.w3.org/2000/svg"
   version="1.1"
   width="1024"
   height="1024"
   viewBox="0 0 1024.00 1024.00"
   enable-background="new 0 0 1024.00 1024.00"
   xml:space="preserve"
   id="svg4562"><metadata
     id="metadata4568"><rdf:RDF><cc:Work
         rdf:about=""><dc:format>image/svg+xml</dc:format><dc:type
           rdf:resource="http://purl.org/dc/dcmitype/StillImage" /><dc:title></dc:title></cc:Work></rdf:RDF></metadata><defs
     id="defs4566"><pattern
       y="0"
       x="0"
       height="6"
       width="6"
       patternUnits="userSpaceOnUse"
       id="EMFhbasepattern" /><pattern
       y="0"
       x="0"
       height="6"
       width="6"
       patternUnits="userSpaceOnUse"
       id="EMFhbasepattern-4" /><pattern
       y="0"
       x="0"
       height="6"
       width="6"
       patternUnits="userSpaceOnUse"
       id="EMFhbasepattern-8" /></defs><g
     transform="translate(-795.84018,280.31794)"
     id="g5360"><path
       id="path4156"
       transform="translate(795.84018,-280.31794)"
       d="M 511.7168 144.66211 C 511.7168 144.66211 436.33168 144.65911 351.36328 147.11719 C 266.39498 149.5749 175.99809 152.86174 128.34766 165.22266 L 128.06445 165.29492 L 127.78516 165.37305 C 76.171276 179.77021 35.119027 220.82232 20.748047 272.92383 L 20.685547 273.14844 L 20.626953 273.37305 C -1.6528869 358.97244 0.02734375 512.29688 0.02734375 512.29688 C 0.02734375 512.29688 0.025345 552.1144 2.515625 601.30273 C 5.005675 650.49105 9.4511331 708.36809 20.658203 750.74805 L 20.703125 750.91211 L 20.748047 751.07617 C 35.063637 802.97613 75.960401 843.78789 127.90039 858.06641 L 128.03906 858.10547 L 128.17969 858.14258 C 176.20612 870.87814 266.64594 874.27581 351.55664 876.80859 C 436.46734 879.34138 511.7168 879.33789 511.7168 879.33789 C 511.7168 879.33789 587.25129 879.34089 672.36719 876.88281 C 757.48319 874.42516 848.01174 871.1455 895.68164 858.7793 L 895.9043 858.7207 L 896.12695 858.66016 C 947.73345 844.47376 989.12214 804.0624 1002.7773 751.31641 C 1014.2842 708.62717 1018.8722 650.79321 1021.4355 601.72461 C 1024 552.63278 1024 513.0169 1024 512.93945 C 1024.0005 512.83229 1024.1517 473.06999 1021.6621 423.74023 C 1019.1738 374.43842 1014.6083 316.2976 1002.748 273.17578 C 989.07265 221.09438 948.06398 180.15255 895.95508 166.48633 C 847.76168 153.27495 757.47498 149.87242 672.42188 147.26758 C 587.27287 144.6598 511.7168 144.66211 511.7168 144.66211 z M 511.7168 208.66211 C 511.7168 208.66211 586.47349 208.66411 670.46289 211.23633 C 754.45239 213.80859 852.00655 220.76455 879.15625 228.23438 L 879.36914 228.29297 L 879.58008 228.34766 C 909.12398 236.04179 933.18481 260.07937 940.87891 289.52344 L 940.93359 289.73633 L 940.99219 289.94922 C 949.83459 321.97985 955.34299 379.42769 957.74219 426.96484 C 960.14139 474.50201 960 512.76758 960 512.76758 L 960 512.82812 L 960 512.88867 C 960 512.88867 959.99994 551.03561 957.52344 598.38477 C 955.04994 645.73392 949.56417 702.93156 940.94727 734.81055 L 940.89844 734.99414 L 940.84961 735.17773 C 933.13051 765.14546 909.4355 788.53271 879.375 796.87695 C 851.4999 804.02662 754.35913 810.48936 670.51953 812.91016 C 586.49703 815.33623 511.7168 815.33789 511.7168 815.33789 C 511.7168 815.33789 437.24754 815.33703 353.46484 812.83789 C 269.79684 810.34217 172.75409 803.68905 144.73242 796.31055 C 114.9438 788.06813 90.710716 763.85646 82.478516 734.16211 C 74.149556 702.50589 68.830374 645.41242 66.433594 598.06641 C 64.031604 550.61773 64.027344 512.29688 64.027344 512.29688 C 64.027344 512.29688 65.708657 354.70775 82.498047 289.78516 C 90.681037 260.35616 115.85667 235.27231 144.7207 227.11133 C 172.686 219.96187 269.57734 213.50906 353.21484 211.08984 C 437.08804 208.66381 511.7168 208.66211 511.7168 208.66211 z M 377.85156 303.20703 L 377.85156 720.67969 C 498.64976 651.24479 619.44789 581.8099 740.24609 512.375 C 619.44789 442.65234 498.64976 372.92969 377.85156 303.20703 z M 441.85156 414.04297 C 498.57426 446.7819 555.29683 479.52084 612.01953 512.25977 C 555.29683 544.86394 498.57426 577.4681 441.85156 610.07227 L 441.85156 414.04297 z "
       style="color:#000000;font-style:normal;font-variant:normal;font-weight:normal;font-stretch:normal;font-size:medium;line-height:normal;font-family:sans-serif;font-variant-ligatures:normal;font-variant-position:normal;font-variant-caps:normal;font-variant-numeric:normal;font-variant-alternates:normal;font-feature-settings:normal;text-indent:0;text-align:start;text-decoration:none;text-decoration-line:none;text-decoration-style:solid;text-decoration-color:#000000;letter-spacing:normal;word-spacing:normal;text-transform:none;writing-mode:lr-tb;direction:ltr;text-orientation:mixed;dominant-baseline:auto;baseline-shift:baseline;text-anchor:start;white-space:normal;shape-padding:0;clip-rule:nonzero;display:inline;overflow:visible;visibility:visible;opacity:1;isolation:auto;mix-blend-mode:normal;color-interpolation:sRGB;color-interpolation-filters:linearRGB;solid-color:#000000;solid-opacity:1;vector-effect:none;fill:#000000;fill-opacity:1;fill-rule:nonzero;stroke:none;stroke-width:64;stroke-linecap:butt;stroke-linejoin:miter;stroke-miterlimit:4;stroke-dasharray:none;stroke-dashoffset:0;stroke-opacity:1;color-rendering:auto;image-rendering:auto;shape-rendering:auto;text-rendering:auto;enable-background:accumulate" /></g></svg>